SplineFontDB: 3.2
FontName: Linear-Elamite
FullName: Linear Elamite
FamilyName: LinearElamite
Weight: Book
Copyright: 
Version: 1.000
ItalicAngle: 0
UnderlinePosition: -125
UnderlineWidth: 50
Ascent: 750
Descent: 250
InvalidEm: 0
sfntRevision: 0x00010000
LayerCount: 2
Layer: 0 1 "Back" 1
Layer: 1 1 "Fore" 0
XUID: [1021 982 907855491 15136292]
StyleMap: 0x0040
FSType: 4
OS2Version: 4
OS2_WeightWidthSlopeOnly: 0
OS2_UseTypoMetrics: 1
CreationTime: 1663750234
ModificationTime: 1663769620
PfmFamily: 81
TTFWeight: 400
TTFWidth: 5
LineGap: 100
VLineGap: 0
Panose: 0 0 0 0 0 0 0 0 0 0
OS2TypoAscent: 750
OS2TypoAOffset: 0
OS2TypoDescent: -250
OS2TypoDOffset: 0
OS2TypoLinegap: 100
OS2WinAscent: 750
OS2WinAOffset: 0
OS2WinDescent: 250
OS2WinDOffset: 0
HheadAscent: 750
HheadAOffset: 0
HheadDescent: -250
HheadDOffset: 0
OS2SubXSize: 650
OS2SubYSize: 600
OS2SubXOff: 0
OS2SubYOff: 75
OS2SupXSize: 650
OS2SupYSize: 600
OS2SupXOff: 0
OS2SupYOff: 350
OS2StrikeYSize: 50
OS2StrikeYPos: 300
OS2CapHeight: 700
OS2XHeight: 500
OS2Vendor: '    '
OS2CodePages: 00000001.00000000
OS2UnicodeRanges: 00000001.02000000.00000000.00000000
MarkAttachClasses: 1
DEI: 91125
TtTable: prep
PUSHW_1
 0
CALL
SVTCA[y-axis]
PUSHW_3
 1
 1
 7
CALL
PUSHW_1
 0
DUP
RCVT
RDTG
ROUND[Black]
RTG
WCVTP
EndTTInstrs
TtTable: fpgm
PUSHW_1
 0
FDEF
MPPEM
PUSHW_1
 9
LT
IF
PUSHB_2
 1
 1
INSTCTRL
EIF
PUSHW_1
 511
SCANCTRL
PUSHW_1
 68
SCVTCI
PUSHW_2
 9
 3
SDS
SDB
ENDF
PUSHW_1
 1
FDEF
DUP
DUP
RCVT
ROUND[Black]
WCVTP
PUSHB_1
 1
ADD
ENDF
PUSHW_1
 2
FDEF
PUSHW_1
 1
LOOPCALL
POP
ENDF
PUSHW_1
 3
FDEF
DUP
GC[cur]
PUSHB_1
 3
CINDEX
GC[cur]
GT
IF
SWAP
EIF
DUP
ROLL
DUP
ROLL
MD[grid]
ABS
ROLL
DUP
GC[cur]
DUP
ROUND[Grey]
SUB
ABS
PUSHB_1
 4
CINDEX
GC[cur]
DUP
ROUND[Grey]
SUB
ABS
GT
IF
SWAP
NEG
ROLL
EIF
MDAP[rnd]
DUP
PUSHB_1
 0
GTEQ
IF
ROUND[Black]
DUP
PUSHB_1
 0
EQ
IF
POP
PUSHB_1
 64
EIF
ELSE
ROUND[Black]
DUP
PUSHB_1
 0
EQ
IF
POP
PUSHB_1
 64
NEG
EIF
EIF
MSIRP[no-rp0]
ENDF
PUSHW_1
 4
FDEF
DUP
GC[cur]
PUSHB_1
 4
CINDEX
GC[cur]
GT
IF
SWAP
ROLL

StartChar: u1C380
Encoding: 115584 115584 4
Width: 261
VWidth: 1024
GlyphClass: 1
Flags: W
LayerCount: 2
Fore
SplineSet
158.5 -204 m 1,0,-1
 102.5 -204 l 1,1,-1
 102.5 822 l 1,2,-1
 158.5 822 l 1,3,-1
 158.5 -204 l 1,0,-1
EndSplineSet
EndChar

StartChar: u1C381
Encoding: 115585 115585 5
Width: 261
VWidth: 1024
Flags: W
LayerCount: 2
Fore
SplineSet
158.5 -204 m 1,0,-1
 102.5 -204 l 1,1,-1
 102.5 822 l 1,2,-1
 158.5 822 l 1,3,-1
 158.5 -204 l 1,0,-1
EndSplineSet
EndChar

StartChar: u1C382
Encoding: 115586 115586 6
Width: 261
VWidth: 1024
Flags: W
LayerCount: 2
Fore
SplineSet
102.5 716.5 m 1,0,-1
 158.5 716.5 l 1,1,-1
 158.5 376.5 l 1,2,-1
 102.5 376.5 l 1,3,-1
 102.5 716.5 l 1,0,-1
158.5 -102.5 m 1,4,-1
 102.5 -102.5 l 1,5,-1
 102.5 237.5 l 1,6,-1
 158.5 237.5 l 1,7,-1
 158.5 -102.5 l 1,4,-1
EndSplineSet
EndChar

StartChar: u1C383
Encoding: 115587 115587 7
Width: 422
VWidth: 1024
Flags: W
LayerCount: 2
Fore
SplineSet
264 716.5 m 1,0,-1
 320.5 716.5 l 1,1,-1
 320.5 376.5 l 1,2,-1
 264 376.5 l 1,3,-1
 264 716.5 l 1,0,-1
320.5 -102.5 m 1,4,-1
 264 -102.5 l 1,5,-1
 264 237.5 l 1,6,-1
 320.5 237.5 l 1,7,-1
 320.5 -102.5 l 1,4,-1
158.5 -102.5 m 1,8,-1
 102.5 -102.5 l 1,9,-1
 102.5 716.5 l 1,10,-1
 158.5 716.5 l 1,11,-1
 158.5 -102.5 l 1,8,-1
EndSplineSet
EndChar

StartChar: u1C384
Encoding: 115588 115588 8
Width: 422
VWidth: 1024
Flags: W
LayerCount: 2
Fore
SplineSet
264 716.5 m 1,0,-1
 320.5 716.5 l 1,1,-1
 320.5 -102.5 l 1,2,-1
 264 -102.5 l 1,3,-1
 264 716.5 l 1,0,-1
102.5 716.5 m 1,4,-1
 158.5 716.5 l 1,5,-1
 158.5 -102.5 l 1,6,-1
 102.5 -102.5 l 1,7,-1
 102.5 716.5 l 1,4,-1
EndSplineSet
EndChar

StartChar: u1C385
Encoding: 115589 115589 9
Width: 331
VWidth: 1024
Flags: W
LayerCount: 2
Fore
SplineSet
102.5 618 m 0,0,1
 102.5 643 102.5 643 120.25 662 c 128,-1,2
 138 681 138 681 165.5 681 c 0,3,4
 193.5 681 193.5 681 210.75 662 c 128,-1,5
 228 643 228 643 228 618 c 0,6,7
 228 600.5 228 600.5 218.75 585 c 128,-1,8
 209.5 569.5 209.5 569.5 193.5 562 c 1,9,-1
 193 364 l 1,10,11
 209.5 356.5 209.5 356.5 219 340.75 c 128,-1,12
 228.5 325 228.5 325 228.5 307.5 c 128,-1,13
 228.5 290 228.5 290 219 274 c 128,-1,14
 209.5 258 209.5 258 193 250.5 c 1,15,-1
 192.5 57 l 1,16,17
 209 49.5 209 49.5 218.5 33.5 c 128,-1,18
 228 17.5 228 17.5 228 0 c 0,19,20
 228 -25 228 -25 210.75 -44 c 128,-1,21
 193.5 -63 193.5 -63 165.5 -63 c 0,22,23
 138 -63 138 -63 120.25 -44 c 128,-1,24
 102.5 -25 102.5 -25 102.5 0 c 0,25,26
 102.5 17.5 102.5 17.5 111.75 33 c 128,-1,27
 121 48.5 121 48.5 137.5 56.5 c 1,28,29
 137.5 89 137.5 89 137.75 154 c 128,-1,30
 138 219 138 219 138 251 c 1,31,32
 121.5 259 121.5 259 112.25 274.5 c 128,-1,33
 103 290 103 290 103 307.5 c 128,-1,34
 103 325 103 325 112.5 340.5 c 128,-1,35
 122 356 122 356 138 363.5 c 1,36,-1
 138.5 561.5 l 1,37,38
 122 569.5 122 569.5 112.25 584.75 c 128,-1,39
 102.5 600 102.5 600 102.5 618 c 0,0,1
EndSplineSet
EndChar

StartChar: u1C386
Encoding: 115590 115590 10
Width: 331
VWidth: 1024
Flags: W
LayerCount: 2
Fore
SplineSet
102.5 618 m 0,0,1
 102.5 642.5 102.5 642.5 120.25 661.75 c 128,-1,2
 138 681 138 681 165.5 681 c 128,-1,3
 193 681 193 681 210.5 661.75 c 128,-1,4
 228 642.5 228 642.5 228 618 c 0,5,6
 228 600.5 228 600.5 218.75 585 c 128,-1,7
 209.5 569.5 209.5 569.5 193.5 561.5 c 1,8,-1
 192.5 57 l 1,9,10
 209 49.5 209 49.5 218.5 33.5 c 128,-1,11
 228 17.5 228 17.5 228 0 c 0,12,13
 228 -24.5 228 -24.5 210.5 -43.75 c 128,-1,14
 193 -63 193 -63 165.5 -63 c 128,-1,15
 138 -63 138 -63 120.25 -43.75 c 128,-1,16
 102.5 -24.5 102.5 -24.5 102.5 0 c 0,17,18
 102.5 17.5 102.5 17.5 111.75 33 c 128,-1,19
 121 48.5 121 48.5 137.5 56.5 c 1,20,21
 138 140.5 138 140.5 138 308.75 c 128,-1,22
 138 477 138 477 138.5 561 c 1,23,24
 122 568.5 122 568.5 112.25 584.5 c 128,-1,25
 102.5 600.5 102.5 600.5 102.5 618 c 0,0,1
EndSplineSet
EndChar

StartChar: u1C387
Encoding: 115591 115591 11
Width: 331
VWidth: 1024
Flags: W
LayerCount: 2
Fore
SplineSet
192.5 0 m 1,0,-1
 137.5 0 l 1,1,-1
 138 251 l 1,2,3
 121.5 259 121.5 259 112.25 274.5 c 128,-1,4
 103 290 103 290 103 307.5 c 128,-1,5
 103 325 103 325 112.5 340.5 c 128,-1,6
 122 356 122 356 138 363.5 c 1,7,8
 138 406 138 406 138.25 490.75 c 128,-1,9
 138.5 575.5 138.5 575.5 138.5 618 c 1,10,-1
 193.5 618 l 1,11,-1
 193 364 l 1,12,13
 209.5 356.5 209.5 356.5 219 340.75 c 128,-1,14
 228.5 325 228.5 325 228.5 307.5 c 128,-1,15
 228.5 290 228.5 290 219 274 c 128,-1,16
 209.5 258 209.5 258 193 250.5 c 1,17,-1
 192.5 0 l 1,0,-1
EndSplineSet
EndChar

StartChar: u1C388
Encoding: 115592 115592 12
Width: 420
VWidth: 1024
Flags: W
LayerCount: 2
Fore
SplineSet
157.5 0 m 1,0,-1
 102.5 0 l 1,1,-1
 103.5 618 l 1,2,-1
 158.5 618 l 1,3,-1
 157.5 0 l 1,0,-1
192.5 307.5 m 128,-1,5
 192.5 332.5 192.5 332.5 210.25 351.25 c 128,-1,6
 228 370 228 370 255.5 370 c 128,-1,7
 283 370 283 370 300.5 351 c 128,-1,8
 318 332 318 332 318 307.5 c 128,-1,9
 318 283 318 283 300.75 263.75 c 128,-1,10
 283.5 244.5 283.5 244.5 255.5 244.5 c 0,11,12
 228 244.5 228 244.5 210.25 263.5 c 128,-1,4
 192.5 282.5 192.5 282.5 192.5 307.5 c 128,-1,5
EndSplineSet
EndChar

StartChar: u1C389
Encoding: 115593 115593 13
Width: 448
VWidth: 1024
Flags: W
LayerCount: 2
Fore
SplineSet
137 716 m 1,0,-1
 192 716 l 1,1,-1
 192 364 l 1,2,3
 208.5 356 208.5 356 218.25 340.75 c 128,-1,4
 228 325.5 228 325.5 228 307.5 c 0,5,6
 228 290 228 290 218.25 274 c 128,-1,7
 208.5 258 208.5 258 192 250.5 c 1,8,-1
 192 -103 l 1,9,-1
 137 -103 l 1,10,-1
 137 251 l 1,11,12
 121 259 121 259 111.75 274.5 c 128,-1,13
 102.5 290 102.5 290 102.5 307.5 c 0,14,15
 102.5 324.5 102.5 324.5 111.75 340.25 c 128,-1,16
 121 356 121 356 137 363.5 c 1,17,-1
 137 716 l 1,0,-1
290.5 716.5 m 1,18,-1
 345.5 716.5 l 1,19,-1
 345.5 -102.5 l 1,20,-1
 290.5 -102.5 l 1,21,-1
 290.5 716.5 l 1,18,-1
EndSplineSet
EndChar

StartChar: u1C38A
Encoding: 115594 115594 14
Width: 574
VWidth: 1024
Flags: W
LayerCount: 2
Fore
SplineSet
102.5 716.5 m 1,0,-1
 157.5 716.5 l 1,1,-1
 157.5 -102.5 l 1,2,-1
 102.5 -102.5 l 1,3,-1
 102.5 716.5 l 1,0,-1
263.5 716 m 1,4,-1
 318.5 716 l 1,5,-1
 318.5 364 l 1,6,7
 335 356 335 356 344.75 340.75 c 128,-1,8
 354.5 325.5 354.5 325.5 354.5 307.5 c 0,9,10
 354.5 290 354.5 290 344.75 274 c 128,-1,11
 335 258 335 258 318.5 250.5 c 1,12,-1
 318.5 -103 l 1,13,-1
 263.5 -103 l 1,14,-1
 263.5 251 l 1,15,16
 247.5 259 247.5 259 238.25 274.5 c 128,-1,17
 229 290 229 290 229 307.5 c 0,18,19
 229 324.5 229 324.5 238.25 340.25 c 128,-1,20
 247.5 356 247.5 356 263.5 363.5 c 1,21,-1
 263.5 716 l 1,4,-1
417 716.5 m 1,22,-1
 472 716.5 l 1,23,-1
 472 -102.5 l 1,24,-1
 417 -102.5 l 1,25,-1
 417 716.5 l 1,22,-1
EndSplineSet
EndChar

StartChar: u1C38B
Encoding: 115595 115595 15
Width: 717
VWidth: 1024
Flags: W
LayerCount: 2
Fore
SplineSet
588 684.5 m 0,0,1
 592 682.5 592 682.5 599.5 677.75 c 128,-1,2
 607 673 607 673 610.5 670.5 c 1,3,-1
 418 414.5 l 1,4,-1
 611 144 l 2,5,6
 615.5 138 615.5 138 615.5 130.5 c 0,7,8
 615.5 122.5 615.5 122.5 610.5 116 c 2,9,-1
 405.5 -149 l 1,10,-1
 360.5 -120 l 1,11,-1
 555 131 l 1,12,-1
 362 401.5 l 2,13,14
 357.5 408.5 357.5 408.5 357.5 415 c 0,15,16
 357.5 422.5 357.5 422.5 362.5 429 c 2,17,-1
 565.5 698.5 l 1,18,19
 569.5 696.5 569.5 696.5 577 691.75 c 128,-1,20
 584.5 687 584.5 687 588 684.5 c 0,0,1
312.5 698.5 m 1,21,-1
 357.5 670.5 l 1,22,-1
 165 414.5 l 1,23,-1
 358 144 l 2,24,25
 362.5 138 362.5 138 362.5 130.5 c 0,26,27
 362.5 122.5 362.5 122.5 357.5 116 c 2,28,-1
 152.5 -149 l 1,29,-1
 107.5 -120 l 1,30,-1
 302 131 l 1,31,-1
 109 401.5 l 2,32,33
 104.5 408.5 104.5 408.5 104.5 415 c 0,34,35
 104.5 422.5 104.5 422.5 109.5 429 c 2,36,-1
 312.5 698.5 l 1,21,-1
EndSplineSet
EndChar

StartChar: u1C38C
Encoding: 115596 115596 16
Width: 716
VWidth: 1024
Flags: W
LayerCount: 2
Fore
SplineSet
609.5 -88 m 1,0,-1
 562 -117 l 1,1,-1
 359.5 152.5 l 2,2,3
 350.5 166.5 350.5 166.5 359.5 181 c 2,4,-1
 552 450.5 l 1,5,-1
 357.5 702.5 l 1,6,-1
 404.5 731 l 1,7,-1
 609.5 466 l 2,8,9
 613.5 460.5 613.5 460.5 613.5 451.5 c 128,-1,10
 613.5 442.5 613.5 442.5 609.5 437 c 2,11,-1
 417 167 l 1,12,-1
 609.5 -88 l 1,0,-1
356.5 -88 m 1,13,-1
 309.5 -117 l 1,14,-1
 106.5 152.5 l 2,15,16
 102.5 158 102.5 158 102.5 167 c 0,17,18
 102.5 175.5 102.5 175.5 106.5 181 c 2,19,-1
 299 450.5 l 1,20,-1
 104.5 702.5 l 1,21,-1
 151.5 731 l 1,22,-1
 356.5 466 l 2,23,24
 366.5 452.5 366.5 452.5 356.5 437 c 2,25,-1
 164 167 l 1,26,-1
 356.5 -88 l 1,13,-1
319.5 42 m 128,-1,28
 319.5 60.5 319.5 60.5 333.5 73.25 c 128,-1,29
 347.5 86 347.5 86 367.5 86 c 128,-1,30
 387.5 86 387.5 86 401.75 73.25 c 128,-1,31
 416 60.5 416 60.5 416 42 c 128,-1,32
 416 23.5 416 23.5 401.75 10.75 c 128,-1,33
 387.5 -2 387.5 -2 367.5 -2 c 128,-1,34
 347.5 -2 347.5 -2 333.5 10.75 c 128,-1,27
 319.5 23.5 319.5 23.5 319.5 42 c 128,-1,28
319.5 309 m 128,-1,36
 319.5 327.5 319.5 327.5 333.5 340.25 c 128,-1,37
 347.5 353 347.5 353 367.5 353 c 128,-1,38
 387.5 353 387.5 353 401.75 340.25 c 128,-1,39
 416 327.5 416 327.5 416 309 c 128,-1,40
 416 290.5 416 290.5 401.75 277.75 c 128,-1,41
 387.5 265 387.5 265 367.5 265 c 128,-1,42
 347.5 265 347.5 265 333.5 277.75 c 128,-1,35
 319.5 290.5 319.5 290.5 319.5 309 c 128,-1,36
323.5 567 m 128,-1,44
 323.5 585.5 323.5 585.5 337.75 598.25 c 128,-1,45
 352 611 352 611 372 611 c 128,-1,46
 392 611 392 611 406 598.25 c 128,-1,47
 420 585.5 420 585.5 420 567 c 128,-1,48
 420 548.5 420 548.5 406 535.75 c 128,-1,49
 392 523 392 523 372 523 c 128,-1,50
 352 523 352 523 337.75 535.75 c 128,-1,43
 323.5 548.5 323.5 548.5 323.5 567 c 128,-1,44
EndSplineSet
EndChar

StartChar: u1C38D
Encoding: 115597 115597 17
Width: 715
VWidth: 1024
Flags: W
LayerCount: 2
Fore
SplineSet
153.5 -117 m 1,0,-1
 106.5 -88 l 1,1,-1
 299 167 l 1,2,-1
 106.5 437 l 2,3,4
 102.5 442.5 102.5 442.5 102.5 451.5 c 128,-1,5
 102.5 460.5 102.5 460.5 106.5 466 c 2,6,-1
 311.5 731 l 1,7,-1
 358.5 702.5 l 1,8,-1
 164 450.5 l 1,9,-1
 356.5 181 l 2,10,11
 365.5 166.5 365.5 166.5 356.5 152.5 c 2,12,-1
 153.5 -117 l 1,0,-1
406.5 -117 m 1,13,-1
 359.5 -88 l 1,14,-1
 552 167 l 1,15,-1
 359.5 437 l 2,16,17
 349.5 452.5 349.5 452.5 359.5 466 c 2,18,-1
 564 731 l 1,19,-1
 611.5 702.5 l 1,20,-1
 417 450.5 l 1,21,-1
 609.5 181 l 2,22,23
 613.5 175.5 613.5 175.5 613.5 167 c 0,24,25
 613.5 158 613.5 158 609.5 152.5 c 2,26,-1
 406.5 -117 l 1,13,-1
397.5 42 m 128,-1,28
 397.5 24 397.5 24 382.75 11 c 128,-1,29
 368 -2 368 -2 348 -2 c 128,-1,30
 328 -2 328 -2 313.5 10.75 c 128,-1,31
 299 23.5 299 23.5 299 42 c 128,-1,32
 299 60.5 299 60.5 313.5 73.25 c 128,-1,33
 328 86 328 86 348 86 c 128,-1,34
 368 86 368 86 382.75 73 c 128,-1,27
 397.5 60 397.5 60 397.5 42 c 128,-1,28
397.5 309 m 128,-1,36
 397.5 291 397.5 291 382.75 278 c 128,-1,37
 368 265 368 265 348 265 c 128,-1,38
 328 265 328 265 313.5 277.75 c 128,-1,39
 299 290.5 299 290.5 299 309 c 128,-1,40
 299 327.5 299 327.5 313.5 340.25 c 128,-1,41
 328 353 328 353 348 353 c 128,-1,42
 368 353 368 353 382.75 340 c 128,-1,35
 397.5 327 397.5 327 397.5 309 c 128,-1,36
393 567 m 128,-1,44
 393 548.5 393 548.5 378.5 535.75 c 128,-1,45
 364 523 364 523 344 523 c 128,-1,46
 324 523 324 523 309.5 535.75 c 128,-1,47
 295 548.5 295 548.5 295 567 c 128,-1,48
 295 585.5 295 585.5 309.5 598.25 c 128,-1,49
 324 611 324 611 344 611 c 128,-1,50
 364 611 364 611 378.5 598.25 c 128,-1,43
 393 585.5 393 585.5 393 567 c 128,-1,44
EndSplineSet
EndChar

StartChar: u1C38E
Encoding: 115598 115598 18
Width: 916
VWidth: 1024
Flags: W
LayerCount: 2
Fore
SplineSet
102.5 -102.5 m 128,-1,1
 102.5 -80 102.5 -80 119.5 -64 c 128,-1,2
 136.5 -48 136.5 -48 161 -48 c 2,3,-1
 166 -48 l 1,4,-1
 328.5 167 l 1,5,-1
 136 437 l 2,6,7
 126.5 451.5 126.5 451.5 136 465 c 2,8,-1
 251 627.5 l 2,9,10
 252 629.5 252 629.5 255 632.5 c 2,11,-1
 372.5 735 l 2,12,13
 381 742 381 742 392 742 c 0,14,15
 404.5 742 404.5 742 413.5 733 c 2,16,-1
 490.5 652 l 1,17,-1
 583.5 735 l 2,18,19
 591.5 742 591.5 742 603.5 742 c 0,20,21
 616 742 616 742 624.5 733 c 2,22,-1
 720 630.5 l 2,23,24
 726.5 623 726.5 623 726.5 614 c 0,25,26
 726.5 607 726.5 607 722 601 c 2,27,-1
 617.5 451.5 l 1,28,-1
 810 181 l 2,29,30
 814 174 814 174 814 166.5 c 0,31,32
 814 158.5 814 158.5 810 152.5 c 2,33,-1
 636 -78 l 1,34,35
 643 -90 643 -90 643 -102.5 c 0,36,37
 643 -125 643 -125 625.5 -141 c 128,-1,38
 608 -157 608 -157 583.5 -157 c 128,-1,39
 559 -157 559 -157 541.75 -141 c 128,-1,40
 524.5 -125 524.5 -125 524.5 -102.5 c 128,-1,41
 524.5 -80 524.5 -80 541.75 -64 c 128,-1,42
 559 -48 559 -48 583.5 -48 c 2,43,-1
 590 -48 l 1,44,-1
 752.5 167 l 1,45,-1
 560 437 l 2,46,47
 550.5 451.5 550.5 451.5 560 465 c 2,48,-1
 663.5 612.5 l 1,49,-1
 601 679 l 1,50,-1
 510 598 l 1,51,-1
 407.5 451.5 l 1,52,-1
 600 181 l 2,53,54
 604.5 174 604.5 174 604.5 165.75 c 128,-1,55
 604.5 157.5 604.5 157.5 600 152.5 c 2,56,-1
 427 -77 l 1,57,58
 434 -88 434 -88 434 -104.5 c 0,59,60
 434 -127 434 -127 417.25 -143 c 128,-1,61
 400.5 -159 400.5 -159 376 -159 c 128,-1,62
 351.5 -159 351.5 -159 334.5 -143 c 128,-1,63
 317.5 -127 317.5 -127 317.5 -104.5 c 128,-1,64
 317.5 -82 317.5 -82 334.5 -66.25 c 128,-1,65
 351.5 -50.5 351.5 -50.5 376 -50.5 c 2,66,-1
 379 -50.5 l 1,67,-1
 542.5 167 l 1,68,-1
 350 437 l 2,69,70
 340.5 450.5 340.5 450.5 350 465 c 2,71,-1
 453.5 612.5 l 1,72,-1
 390 680 l 1,73,-1
 296 598 l 1,74,-1
 193.5 451.5 l 1,75,-1
 386 181 l 2,76,77
 395 166.5 395 166.5 386 152.5 c 2,78,-1
 213 -77 l 1,79,80
 219 -87.5 219 -87.5 219 -102.5 c 0,81,82
 219 -125 219 -125 202.25 -141 c 128,-1,83
 185.5 -157 185.5 -157 161 -157 c 128,-1,84
 136.5 -157 136.5 -157 119.5 -141 c 128,-1,0
 102.5 -125 102.5 -125 102.5 -102.5 c 128,-1,1
EndSplineSet
EndChar

StartChar: u1C38F
Encoding: 115599 115599 19
Width: 875
VWidth: 1024
Flags: W
LayerCount: 2
Fore
SplineSet
565.5 -117 m 1,0,-1
 519 -88 l 1,1,-1
 711.5 167 l 1,2,-1
 518.5 437.5 l 2,3,4
 508.5 451.5 508.5 451.5 519.5 466 c 2,5,-1
 724 731.5 l 1,6,-1
 770 702 l 1,7,-1
 576.5 451 l 1,8,-1
 769 180.5 l 2,9,10
 779 166 779 166 768.5 152.5 c 2,11,-1
 565.5 -117 l 1,0,-1
359 -117 m 1,12,-1
 312.5 -88 l 1,13,-1
 504.5 167 l 1,14,-1
 312 437.5 l 2,15,16
 302 451.5 302 451.5 312.5 466 c 2,17,-1
 517.5 731.5 l 1,18,-1
 563.5 702 l 1,19,-1
 369.5 451 l 1,20,-1
 562 180.5 l 2,21,22
 572 166 572 166 561.5 152.5 c 2,23,-1
 359 -117 l 1,12,-1
153 -117 m 1,24,-1
 106.5 -88 l 1,25,-1
 298.5 167 l 1,26,-1
 106 437.5 l 2,27,28
 96 451.5 96 451.5 106.5 466 c 2,29,-1
 311.5 731.5 l 1,30,-1
 357.5 702 l 1,31,-1
 163.5 451 l 1,32,-1
 356 180.5 l 2,33,34
 366 166 366 166 355.5 152.5 c 2,35,-1
 153 -117 l 1,24,-1
EndSplineSet
EndChar

StartChar: u1C390
Encoding: 115600 115600 20
Width: 909
VWidth: 1024
Flags: W
LayerCount: 2
Fore
SplineSet
102.5 711.5 m 128,-1,1
 102.5 734 102.5 734 119.5 750 c 128,-1,2
 136.5 766 136.5 766 161 766 c 128,-1,3
 185.5 766 185.5 766 202.25 750 c 128,-1,4
 219 734 219 734 219 711.5 c 0,5,6
 219 700 219 700 215 692 c 1,7,-1
 390 466 l 2,8,9
 394 460.5 394 460.5 394 451.5 c 128,-1,10
 394 442.5 394 442.5 390 437 c 2,11,-1
 197.5 167 l 1,12,-1
 390 -88 l 1,13,-1
 343 -117 l 1,14,-1
 140.5 152.5 l 2,15,16
 136 158.5 136 158.5 136 167 c 0,17,18
 136 175 136 175 140.5 181 c 2,19,-1
 333 450.5 l 1,20,-1
 172 658.5 l 1,21,22
 168 657.5 168 657.5 161 657.5 c 0,23,24
 136.5 657.5 136.5 657.5 119.5 673.25 c 128,-1,0
 102.5 689 102.5 689 102.5 711.5 c 128,-1,1
311.5 712.5 m 128,-1,26
 311.5 735 311.5 735 328.25 751 c 128,-1,27
 345 767 345 767 369.5 767 c 128,-1,28
 394 767 394 767 411 751 c 128,-1,29
 428 735 428 735 428 712.5 c 0,30,31
 428 701.5 428 701.5 423 690 c 1,32,-1
 597 466 l 2,33,34
 601 460.5 601 460.5 601 451.5 c 128,-1,35
 601 442.5 601 442.5 597 437 c 2,36,-1
 404.5 167 l 1,37,-1
 597 -88 l 1,38,-1
 550 -117 l 1,39,-1
 347 152.5 l 2,40,41
 343 158 343 158 343 167 c 0,42,43
 343 175.5 343 175.5 347 181 c 2,44,-1
 539.5 450.5 l 1,45,-1
 379 659.5 l 2,46,47
 377.5 659.5 377.5 659.5 374.25 659 c 128,-1,48
 371 658.5 371 658.5 369.5 658.5 c 0,49,50
 345 658.5 345 658.5 328.25 674.25 c 128,-1,25
 311.5 690 311.5 690 311.5 712.5 c 128,-1,26
516 716.5 m 128,-1,52
 516 739 516 739 533 755 c 128,-1,53
 550 771 550 771 574.5 771 c 128,-1,54
 599 771 599 771 616 755 c 128,-1,55
 633 739 633 739 633 716.5 c 0,56,57
 633 702.5 633 702.5 627.5 693 c 1,58,-1
 803 466 l 2,59,60
 807 460.5 807 460.5 807 451.5 c 128,-1,61
 807 442.5 807 442.5 803 437 c 2,62,-1
 610.5 167 l 1,63,-1
 803 -88 l 1,64,-1
 755.5 -117 l 1,65,-1
 553 152.5 l 2,66,67
 549 158 549 158 549 167 c 0,68,69
 549 175.5 549 175.5 553 181 c 2,70,-1
 745.5 450.5 l 1,71,-1
 581.5 662.5 l 1,72,-1
 574.5 662.5 l 2,73,74
 550 662.5 550 662.5 533 678.25 c 128,-1,51
 516 694 516 694 516 716.5 c 128,-1,52
576.5 717.5 m 1,75,76
 576 718 576 718 575.5 719 c 0,77,78
 575.5 719.5 575.5 719.5 575.25 719.75 c 128,-1,79
 575 720 575 720 574.5 720 c 0,80,81
 571.5 720 571.5 720 571.5 716.5 c 1,82,-1
 572.5 715.5 l 1,83,-1
 576.5 717.5 l 1,75,76
EndSplineSet
EndChar

StartChar: u1C391
Encoding: 115601 115601 21
Width: 1043
VWidth: 1024
Flags: W
LayerCount: 2
Fore
SplineSet
221.5 547.5 m 1,0,-1
 169 559 l 1,1,-1
 181 519 l 1,2,-1
 221.5 547.5 l 1,0,-1
340 631.5 m 1,3,-1
 292 639 l 1,4,-1
 301 604 l 1,5,-1
 340 631.5 l 1,3,-1
424 691 m 1,6,-1
 445 706 l 1,7,-1
 417.5 714.5 l 1,8,-1
 424 691 l 1,6,-1
807.5 -1 m 1,9,-1
 872 51 l 1,10,-1
 697.5 200.5 l 2,11,12
 689.5 207 689.5 207 689.5 218.5 c 0,13,14
 689.5 230.5 689.5 230.5 698.5 239.5 c 2,15,-1
 810 342 l 1,16,-1
 452.5 649.5 l 1,17,-1
 428 632.5 l 1,18,19
 422 625.5 422 625.5 415.5 623.5 c 1,20,-1
 390 605.5 l 1,21,-1
 692.5 346.5 l 2,22,23
 700.5 340 700.5 340 700.5 328.5 c 0,24,25
 700.5 316.5 700.5 316.5 691.5 307.5 c 2,26,-1
 579.5 204 l 1,27,-1
 807.5 -1 l 1,9,-1
764 -36 m 1,28,-1
 522 181.5 l 2,29,30
 514.5 188 514.5 188 514.5 200 c 128,-1,31
 514.5 212 514.5 212 523.5 220.5 c 2,32,-1
 635 323.5 l 1,33,-1
 343.5 572.5 l 1,34,-1
 262 515 l 1,35,-1
 500 323.5 l 2,36,37
 508.5 317 508.5 317 508.5 305 c 0,38,39
 508.5 292 508.5 292 499.5 284 c 2,40,-1
 387.5 181 l 1,41,-1
 694.5 -91.5 l 1,42,-1
 764 -36 l 1,28,-1
499 682.5 m 1,43,-1
 867.5 365 l 2,44,45
 875.5 359 875.5 359 875.5 346 c 0,46,47
 875.5 334.5 875.5 334.5 866.5 326 c 2,48,-1
 755 223.5 l 1,49,-1
 931 72.5 l 1,50,-1
 934.5 69 l 2,51,52
 939.5 62.5 939.5 62.5 939.5 54.5 c 0,53,54
 939.5 41.5 939.5 41.5 928.5 32 c 2,55,-1
 707.5 -146 l 2,56,57
 699.5 -152.5 699.5 -152.5 689.5 -152.5 c 0,58,59
 680 -152.5 680 -152.5 673.5 -146.5 c 2,60,-1
 330 158.5 l 2,61,62
 322.5 165 322.5 165 322.5 177 c 128,-1,63
 322.5 189 322.5 189 331.5 197.5 c 2,64,-1
 442.5 299.5 l 1,65,-1
 215.5 482 l 1,66,-1
 179.5 456.5 l 2,67,68
 179 456.5 179 456.5 176.5 455 c 128,-1,69
 174 453.5 174 453.5 173 453 c 0,70,71
 168.5 451 168.5 451 163 451 c 0,72,73
 155.5 451 155.5 451 149 455.5 c 128,-1,74
 142.5 460 142.5 460 140.5 467.5 c 2,75,-1
 105 584.5 l 2,76,77
 104 587.5 104 587.5 104 592.5 c 0,78,79
 104 595 104 595 105 600 c 0,80,81
 107.5 609 107.5 609 115.5 614.75 c 128,-1,82
 123.5 620.5 123.5 620.5 132.5 620.5 c 0,83,84
 136 620.5 136 620.5 138 620 c 2,85,-1
 247.5 597 l 1,86,-1
 230 662.5 l 2,87,88
 228.5 669.5 228.5 669.5 230 675.5 c 0,89,90
 232 685 232 685 240.25 691.5 c 128,-1,91
 248.5 698 248.5 698 258.5 698 c 0,92,93
 259 698 259 698 260.25 697.75 c 128,-1,94
 261.5 697.5 261.5 697.5 262 697.5 c 2,95,-1
 371 680.5 l 1,96,-1
 352 746 l 2,97,98
 349.5 754 349.5 754 353 763 c 0,99,100
 356.5 771 356.5 771 364.25 776.25 c 128,-1,101
 372 781.5 372 781.5 380.5 781.5 c 0,102,103
 382.5 781.5 382.5 781.5 387.5 780.5 c 2,104,-1
 513 741 l 2,105,106
 521.5 738 521.5 738 525.5 732 c 0,107,108
 529.5 725.5 529.5 725.5 529.5 718.5 c 0,109,110
 529.5 703.5 529.5 703.5 517 695 c 2,111,-1
 499 682.5 l 1,43,-1
EndSplineSet
EndChar

StartChar: u1C392
Encoding: 115602 115602 22
Width: 875
VWidth: 1024
Flags: W
LayerCount: 2
Fore
SplineSet
356.5 -88 m 1,0,-1
 309 -117 l 1,1,-1
 106.5 152.5 l 2,2,3
 102.5 158 102.5 158 102.5 167 c 0,4,5
 102.5 175.5 102.5 175.5 106.5 181 c 2,6,-1
 299 450.5 l 1,7,-1
 104.5 702.5 l 1,8,-1
 151.5 731 l 1,9,-1
 356.5 466 l 2,10,11
 366.5 452.5 366.5 452.5 356.5 437 c 2,12,-1
 164 167 l 1,13,-1
 356.5 -88 l 1,0,-1
563 -88 m 1,14,-1
 516 -117 l 1,15,-1
 313.5 152.5 l 2,16,17
 309 158.5 309 158.5 309 167 c 0,18,19
 309 175 309 175 313.5 181 c 2,20,-1
 506 450.5 l 1,21,-1
 311 702.5 l 1,22,-1
 358.5 731 l 1,23,-1
 563 466 l 2,24,25
 573 452.5 573 452.5 563 437 c 2,26,-1
 370.5 167 l 1,27,-1
 563 -88 l 1,14,-1
769 -88 m 1,28,-1
 722 -117 l 1,29,-1
 519 152.5 l 2,30,31
 515 158 515 158 515 167 c 0,32,33
 515 175.5 515 175.5 519 181 c 2,34,-1
 711.5 450.5 l 1,35,-1
 517 702.5 l 1,36,-1
 564 731 l 1,37,-1
 769 466 l 2,38,39
 773 460.5 773 460.5 773 451.5 c 128,-1,40
 773 442.5 773 442.5 769 437 c 2,41,-1
 576.5 167 l 1,42,-1
 769 -88 l 1,28,-1
EndSplineSet
EndChar

StartChar: u1C393
Encoding: 115603 115603 23
Width: 1165
VWidth: 1024
Flags: W
LayerCount: 2
Fore
SplineSet
102.5 281.5 m 1,0,-1
 102.5 332.5 l 1,1,-1
 406.5 332.5 l 1,2,-1
 564 462.5 l 2,3,4
 572 469 572 469 583.5 469 c 0,5,6
 592.5 469 592.5 469 602 461.5 c 2,7,-1
 756.5 332.5 l 1,8,-1
 1061 332.5 l 1,9,-1
 1061 281.5 l 1,10,-1
 745.5 281.5 l 2,11,12
 735 281.5 735 281.5 726 288.5 c 2,13,-1
 583.5 408.5 l 1,14,-1
 436 287.5 l 2,15,16
 428.5 281.5 428.5 281.5 418 281.5 c 2,17,-1
 102.5 281.5 l 1,0,-1
104.5 459.5 m 1,18,-1
 104.5 511 l 1,19,-1
 409.5 511 l 1,20,-1
 567.5 641 l 2,21,22
 575 647 575 647 585.5 647 c 128,-1,23
 596 647 596 647 605 640 c 2,24,-1
 759 511 l 1,25,-1
 1063 511 l 1,26,-1
 1063 459.5 l 1,27,-1
 747.5 459.5 l 2,28,29
 738.5 459.5 738.5 459.5 729 467 c 2,30,-1
 585.5 586.5 l 1,31,-1
 439.5 466 l 2,32,33
 431.5 459.5 431.5 459.5 420 459.5 c 2,34,-1
 104.5 459.5 l 1,18,-1
104.5 107.5 m 1,35,-1
 104.5 158.5 l 1,36,-1
 409.5 158.5 l 1,37,-1
 567.5 288.5 l 2,38,39
 575.5 295 575.5 295 585.5 295 c 128,-1,40
 595.5 295 595.5 295 605 287.5 c 2,41,-1
 759 158.5 l 1,42,-1
 1063 158.5 l 1,43,-1
 1063 107.5 l 1,44,-1
 747.5 107.5 l 2,45,46
 738 107.5 738 107.5 729 114.5 c 2,47,-1
 585.5 234.5 l 1,48,-1
 439.5 113.5 l 2,49,50
 432 107.5 432 107.5 420 107.5 c 2,51,-1
 104.5 107.5 l 1,35,-1
EndSplineSet
EndChar

StartChar: u1C394
Encoding: 115604 115604 24
Width: 696
VWidth: 1024
Flags: W
LayerCount: 2
Fore
SplineSet
426 522 m 128,-1,1
 426 540.5 426 540.5 440.5 553.25 c 128,-1,2
 455 566 455 566 475 566 c 128,-1,3
 495 566 495 566 509.75 553 c 128,-1,4
 524.5 540 524.5 540 524.5 522 c 128,-1,5
 524.5 504 524.5 504 509.75 491 c 128,-1,6
 495 478 495 478 475 478 c 128,-1,7
 455 478 455 478 440.5 490.75 c 128,-1,0
 426 503.5 426 503.5 426 522 c 128,-1,1
397.5 307 m 128,-1,9
 397.5 325.5 397.5 325.5 412 338.25 c 128,-1,10
 426.5 351 426.5 351 446.5 351 c 128,-1,11
 466.5 351 466.5 351 481 338.25 c 128,-1,12
 495.5 325.5 495.5 325.5 495.5 307 c 128,-1,13
 495.5 288.5 495.5 288.5 481 275.75 c 128,-1,14
 466.5 263 466.5 263 446.5 263 c 128,-1,15
 426.5 263 426.5 263 412 275.75 c 128,-1,8
 397.5 288.5 397.5 288.5 397.5 307 c 128,-1,9
176 127 m 128,-1,17
 176 145 176 145 190.75 158 c 128,-1,18
 205.5 171 205.5 171 225.5 171 c 128,-1,19
 245.5 171 245.5 171 260 158.25 c 128,-1,20
 274.5 145.5 274.5 145.5 274.5 127 c 128,-1,21
 274.5 108.5 274.5 108.5 260 95.75 c 128,-1,22
 245.5 83 245.5 83 225.5 83 c 128,-1,23
 205.5 83 205.5 83 190.75 96 c 128,-1,16
 176 109 176 109 176 127 c 128,-1,17
157.5 25.5 m 1,24,-1
 286.5 25.5 l 1,25,-1
 286.5 215 l 2,26,27
 286.5 225.5 286.5 225.5 295 233 c 128,-1,28
 303.5 240.5 303.5 240.5 315.5 240.5 c 2,29,-1
 538.5 240.5 l 1,30,-1
 538.5 592 l 1,31,-1
 405.5 592 l 1,32,-1
 405.5 391 l 2,33,34
 405.5 380 405.5 380 397.5 372.75 c 128,-1,35
 389.5 365.5 389.5 365.5 378 365.5 c 2,36,-1
 157.5 365.5 l 1,37,-1
 157.5 25.5 l 1,24,-1
130 -25.5 m 2,38,39
 118.5 -25.5 118.5 -25.5 110.5 -18.25 c 128,-1,40
 102.5 -11 102.5 -11 102.5 0 c 2,41,-1
 102.5 391 l 2,42,43
 102.5 402 102.5 402 110.5 409.25 c 128,-1,44
 118.5 416.5 118.5 416.5 130 416.5 c 2,45,-1
 350 416.5 l 1,46,-1
 350 617.5 l 2,47,48
 350 628.5 350 628.5 358.25 635.75 c 128,-1,49
 366.5 643 366.5 643 378 643 c 2,50,-1
 566.5 643 l 2,51,52
 578 643 578 643 586 635.75 c 128,-1,53
 594 628.5 594 628.5 594 617.5 c 2,54,-1
 594 215 l 2,55,56
 594 204 594 204 586 196.75 c 128,-1,57
 578 189.5 578 189.5 566.5 189.5 c 2,58,-1
 344 189.5 l 1,59,-1
 344 0 l 2,60,61
 344 -11 344 -11 335.5 -18.25 c 128,-1,62
 327 -25.5 327 -25.5 315.5 -25.5 c 2,63,-1
 130 -25.5 l 2,38,39
EndSplineSet
EndChar

StartChar: u1C395
Encoding: 115605 115605 25
Width: 647
VWidth: 1024
Flags: W
LayerCount: 2
Fore
SplineSet
405.5 -18.5 m 2,0,1
 398.5 -25.5 398.5 -25.5 385 -25.5 c 0,2,3
 372.5 -25.5 372.5 -25.5 364.5 -17.5 c 2,4,-1
 176 174 l 1,5,6
 168 172 168 172 162 172 c 0,7,8
 137.5 172 137.5 172 120 188 c 128,-1,9
 102.5 204 102.5 204 102.5 226 c 0,10,11
 102.5 248.5 102.5 248.5 120 264.5 c 128,-1,12
 137.5 280.5 137.5 280.5 162 280.5 c 0,13,14
 167 280.5 167 280.5 177 278.5 c 1,15,-1
 270.5 370.5 l 1,16,-1
 175 476 l 1,17,18
 171 475 171 475 163 475 c 0,19,20
 138.5 475 138.5 475 121.5 491 c 128,-1,21
 104.5 507 104.5 507 104.5 529.5 c 128,-1,22
 104.5 552 104.5 552 121.5 567.75 c 128,-1,23
 138.5 583.5 138.5 583.5 163 583.5 c 0,24,25
 172 583.5 172 583.5 181 580.5 c 1,26,-1
 242.5 636 l 2,27,28
 251 643 251 643 262 643 c 0,29,30
 274.5 643 274.5 643 283.5 634 c 2,31,-1
 472 421 l 1,32,33
 476 422 476 422 485.5 422 c 0,34,35
 510 422 510 422 527.5 406 c 128,-1,36
 545 390 545 390 545 367.5 c 128,-1,37
 545 345 545 345 527.5 329 c 128,-1,38
 510 313 510 313 485.5 313 c 0,39,40
 478 313 478 313 472 314.5 c 1,41,-1
 387 227 l 1,42,-1
 469 143.5 l 1,43,44
 479 145.5 479 145.5 484.5 145.5 c 0,45,46
 509 145.5 509 145.5 525.75 129.5 c 128,-1,47
 542.5 113.5 542.5 113.5 542.5 91 c 128,-1,48
 542.5 68.5 542.5 68.5 525.75 52.75 c 128,-1,49
 509 37 509 37 484.5 37 c 0,50,51
 478 37 478 37 468 39 c 1,52,-1
 405.5 -18.5 l 2,0,1
217 509 m 1,53,-1
 328.5 386 l 2,54,55
 335 378 335 378 335 369.5 c 0,56,57
 335 359.5 335 359.5 327.5 352 c 2,58,-1
 218 243.5 l 1,59,60
 221 236 221 236 221 226 c 0,61,62
 221 217 221 217 218 208 c 1,63,-1
 386 38 l 1,64,-1
 428 76.5 l 1,65,66
 426 84.5 426 84.5 426 91 c 0,67,68
 426 100 426 100 429 107.5 c 1,69,-1
 328.5 210 l 2,70,71
 321.5 217 321.5 217 321.5 228.5 c 0,72,73
 321.5 238.5 321.5 238.5 327.5 244.5 c 2,74,-1
 429 349 l 1,75,76
 426 358 426 358 426 367.5 c 0,77,78
 426 379 426 379 430 387 c 1,79,-1
 260 579.5 l 1,80,-1
 219 543.5 l 1,81,82
 221 535.5 221 535.5 221 529.5 c 0,83,84
 221 517 221 517 217 509 c 1,53,-1
EndSplineSet
EndChar

StartChar: u1C396
Encoding: 115606 115606 26
Width: 937
VWidth: 1024
Flags: W
LayerCount: 2
Fore
SplineSet
780.5 25.5 m 1,0,-1
 780.5 159.5 l 1,1,-1
 591 159.5 l 2,2,3
 579.5 159.5 579.5 159.5 571.25 166.75 c 128,-1,4
 563 174 563 174 563 185 c 2,5,-1
 563 592 l 1,6,-1
 157.5 592 l 1,7,-1
 157.5 453.5 l 1,8,-1
 352.5 453.5 l 2,9,10
 364 453.5 364 453.5 372.5 446.25 c 128,-1,11
 381 439 381 439 381 428 c 2,12,-1
 381 25.5 l 1,13,-1
 780.5 25.5 l 1,0,-1
835.5 0 m 2,14,15
 835.5 -11 835.5 -11 827.5 -18.25 c 128,-1,16
 819.5 -25.5 819.5 -25.5 808 -25.5 c 2,17,-1
 352.5 -25.5 l 2,18,19
 340.5 -25.5 340.5 -25.5 332 -18 c 128,-1,20
 323.5 -10.5 323.5 -10.5 323.5 0 c 2,21,-1
 323.5 402.5 l 1,22,-1
 130 402.5 l 2,23,24
 118.5 402.5 118.5 402.5 110.5 409.75 c 128,-1,25
 102.5 417 102.5 417 102.5 428 c 2,26,-1
 102.5 617.5 l 2,27,28
 102.5 628.5 102.5 628.5 110.5 635.75 c 128,-1,29
 118.5 643 118.5 643 130 643 c 2,30,-1
 591 643 l 2,31,32
 602.5 643 602.5 643 610.5 635.75 c 128,-1,33
 618.5 628.5 618.5 628.5 618.5 617.5 c 2,34,-1
 618.5 211 l 1,35,-1
 808 211 l 2,36,37
 819.5 211 819.5 211 827.5 203.5 c 128,-1,38
 835.5 196 835.5 196 835.5 185 c 2,39,-1
 835.5 0 l 2,14,15
EndSplineSet
EndChar

StartChar: u1C397
Encoding: 115607 115607 27
Width: 840
VWidth: 1024
Flags: W
LayerCount: 2
Fore
SplineSet
620.5 617.5 m 0,0,1
 620.5 639.5 620.5 639.5 637.75 655.5 c 128,-1,2
 655 671.5 655 671.5 679.5 671.5 c 128,-1,3
 704 671.5 704 671.5 721.25 655.5 c 128,-1,4
 738.5 639.5 738.5 639.5 738.5 617.5 c 0,5,6
 738.5 595 738.5 595 721.25 579 c 128,-1,7
 704 563 704 563 679.5 563 c 0,8,9
 676.5 563 676.5 563 669.5 564 c 1,10,-1
 461.5 307.5 l 1,11,-1
 702 13.5 l 1,12,-1
 657 -17.5 l 1,13,-1
 448 238 l 1,14,-1
 447.5 -61.5 l 1,15,-1
 391 -61.5 l 1,16,-1
 391.5 237.5 l 1,17,-1
 183.5 -17.5 l 1,18,-1
 139 13.5 l 1,19,-1
 378.5 307.5 l 1,20,-1
 169.5 564 l 1,21,22
 163.5 563 163.5 563 160.5 563 c 0,23,24
 136 563 136 563 118.75 579 c 128,-1,25
 101.5 595 101.5 595 101.5 617.5 c 0,26,27
 101.5 639.5 101.5 639.5 118.75 655.5 c 128,-1,28
 136 671.5 136 671.5 160.5 671.5 c 128,-1,29
 185 671.5 185 671.5 202 655.75 c 128,-1,30
 219 640 219 640 219 617.5 c 0,31,32
 219 605.5 219 605.5 214 595.5 c 1,33,-1
 392 377 l 1,34,-1
 392 624.5 l 1,35,36
 362.5 640 362.5 640 362.5 671.5 c 0,37,38
 362.5 694 362.5 694 379.75 710 c 128,-1,39
 397 726 397 726 421.5 726 c 128,-1,40
 446 726 446 726 463.25 710 c 128,-1,41
 480.5 694 480.5 694 480.5 671.5 c 0,42,43
 480.5 656.5 480.5 656.5 471.75 643.5 c 128,-1,44
 463 630.5 463 630.5 448.5 623.5 c 1,45,-1
 448 377.5 l 1,46,-1
 625.5 596 l 1,47,48
 620.5 607 620.5 607 620.5 617.5 c 0,0,1
EndSplineSet
EndChar

StartChar: u1C398
Encoding: 115608 115608 28
Width: 840
VWidth: 1024
Flags: W
LayerCount: 2
Fore
SplineSet
392 673.5 m 1,0,-1
 448.5 673.5 l 1,1,-1
 448 380.5 l 1,2,-1
 625.5 596 l 1,3,4
 620.5 607 620.5 607 620.5 617.5 c 0,5,6
 620.5 639.5 620.5 639.5 637.75 655.5 c 128,-1,7
 655 671.5 655 671.5 679.5 671.5 c 128,-1,8
 704 671.5 704 671.5 721.25 655.5 c 128,-1,9
 738.5 639.5 738.5 639.5 738.5 617.5 c 0,10,11
 738.5 595 738.5 595 721.25 579 c 128,-1,12
 704 563 704 563 679.5 563 c 0,13,14
 676.5 563 676.5 563 669.5 564 c 1,15,-1
 460.5 307.5 l 1,16,-1
 669 52.5 l 1,17,18
 672.5 53 672.5 53 679.5 53 c 0,19,20
 704 53 704 53 721.25 37 c 128,-1,21
 738.5 21 738.5 21 738.5 -1 c 0,22,23
 738.5 -23.5 738.5 -23.5 721.25 -39.5 c 128,-1,24
 704 -55.5 704 -55.5 679.5 -55.5 c 128,-1,25
 655 -55.5 655 -55.5 637.75 -39.5 c 128,-1,26
 620.5 -23.5 620.5 -23.5 620.5 -1 c 0,27,28
 620.5 9 620.5 9 625.5 20 c 1,29,-1
 448 239 l 1,30,-1
 447.5 -7 l 1,31,32
 462.5 -14 462.5 -14 471.5 -27 c 128,-1,33
 480.5 -40 480.5 -40 480.5 -55.5 c 0,34,35
 480.5 -77.5 480.5 -77.5 463.25 -93.5 c 128,-1,36
 446 -109.5 446 -109.5 421.5 -109.5 c 128,-1,37
 397 -109.5 397 -109.5 379.75 -93.5 c 128,-1,38
 362.5 -77.5 362.5 -77.5 362.5 -55.5 c 0,39,40
 362.5 -24 362.5 -24 391 -8.5 c 1,41,42
 391 31.5 391 31.5 391.25 115 c 128,-1,43
 391.5 198.5 391.5 198.5 391.5 238.5 c 1,44,-1
 214.5 19.5 l 1,45,46
 219 10 219 10 219 -1 c 0,47,48
 219 -23.5 219 -23.5 202 -39.5 c 128,-1,49
 185 -55.5 185 -55.5 160.5 -55.5 c 128,-1,50
 136 -55.5 136 -55.5 118.75 -39.5 c 128,-1,51
 101.5 -23.5 101.5 -23.5 101.5 -1 c 0,52,53
 101.5 21 101.5 21 118.75 37 c 128,-1,54
 136 53 136 53 160.5 53 c 0,55,56
 164.5 53 164.5 53 171.5 52 c 1,57,-1
 380.5 307.5 l 1,58,-1
 169.5 564 l 1,59,60
 163.5 563 163.5 563 160.5 563 c 0,61,62
 136 563 136 563 118.75 579 c 128,-1,63
 101.5 595 101.5 595 101.5 617.5 c 0,64,65
 101.5 639.5 101.5 639.5 118.75 655.5 c 128,-1,66
 136 671.5 136 671.5 160.5 671.5 c 128,-1,67
 185 671.5 185 671.5 202 655.75 c 128,-1,68
 219 640 219 640 219 617.5 c 0,69,70
 219 605.5 219 605.5 214 595.5 c 1,71,-1
 392 380 l 1,72,-1
 392 673.5 l 1,0,-1
EndSplineSet
EndChar

StartChar: u1C399
Encoding: 115609 115609 29
Width: 841
VWidth: 1024
Flags: W
LayerCount: 2
Fore
SplineSet
393 -59.5 m 1,0,-1
 448.5 -59.5 l 1,1,-1
 448.5 233.5 l 1,2,-1
 625.5 18.5 l 1,3,4
 620.5 8.5 620.5 8.5 620.5 -3 c 0,5,6
 620.5 -25.5 620.5 -25.5 638 -41.5 c 128,-1,7
 655.5 -57.5 655.5 -57.5 680 -57.5 c 128,-1,8
 704.5 -57.5 704.5 -57.5 722 -41.5 c 128,-1,9
 739.5 -25.5 739.5 -25.5 739.5 -3 c 0,10,11
 739.5 19 739.5 19 722 35 c 128,-1,12
 704.5 51 704.5 51 680 51 c 0,13,14
 672.5 51 672.5 51 669.5 50 c 1,15,-1
 461 307 l 1,16,-1
 669.5 562 l 1,17,18
 672.5 561 672.5 561 680 561 c 0,19,20
 704.5 561 704.5 561 722 577 c 128,-1,21
 739.5 593 739.5 593 739.5 615.5 c 0,22,23
 739.5 637.5 739.5 637.5 722 653.5 c 128,-1,24
 704.5 669.5 704.5 669.5 680 669.5 c 128,-1,25
 655.5 669.5 655.5 669.5 638 653.5 c 128,-1,26
 620.5 637.5 620.5 637.5 620.5 615.5 c 0,27,28
 620.5 604 620.5 604 625.5 594 c 1,29,-1
 448.5 375.5 l 1,30,-1
 448.5 620.5 l 1,31,32
 463 627.5 463 627.5 472.25 640.75 c 128,-1,33
 481.5 654 481.5 654 481.5 669.5 c 0,34,35
 481.5 692 481.5 692 464 708 c 128,-1,36
 446.5 724 446.5 724 422 724 c 128,-1,37
 397.5 724 397.5 724 380 708 c 128,-1,38
 362.5 692 362.5 692 362.5 669.5 c 0,39,40
 362.5 655 362.5 655 370.75 642.25 c 128,-1,41
 379 629.5 379 629.5 392 622.5 c 1,42,-1
 392 375.5 l 1,43,-1
 215 595 l 1,44,45
 219 603 219 603 219 615.5 c 0,46,47
 219 638 219 638 202.25 653.75 c 128,-1,48
 185.5 669.5 185.5 669.5 161 669.5 c 128,-1,49
 136.5 669.5 136.5 669.5 119.5 653.75 c 128,-1,50
 102.5 638 102.5 638 102.5 615.5 c 128,-1,51
 102.5 593 102.5 593 119.5 577 c 128,-1,52
 136.5 561 136.5 561 161 561 c 0,53,54
 169 561 169 561 172 562 c 1,55,-1
 381 307 l 1,56,-1
 170 50 l 2,57,58
 168.5 50 168.5 50 165.5 50.5 c 128,-1,59
 162.5 51 162.5 51 161 51 c 0,60,61
 136.5 51 136.5 51 119.5 35.25 c 128,-1,62
 102.5 19.5 102.5 19.5 102.5 -3 c 128,-1,63
 102.5 -25.5 102.5 -25.5 119.5 -41.5 c 128,-1,64
 136.5 -57.5 136.5 -57.5 161 -57.5 c 128,-1,65
 185.5 -57.5 185.5 -57.5 202.25 -41.5 c 128,-1,66
 219 -25.5 219 -25.5 219 -3 c 0,67,68
 219 10 219 10 215 19.5 c 1,69,-1
 392 234.5 l 1,70,-1
 393 -59.5 l 1,0,-1
EndSplineSet
EndChar

StartChar: u1C39A
Encoding: 115610 115610 30
Width: 995
VWidth: 1024
Flags: W
LayerCount: 2
Fore
SplineSet
705.5 617.5 m 0,0,1
 705.5 639.5 705.5 639.5 722.75 655.5 c 128,-1,2
 740 671.5 740 671.5 764.5 671.5 c 128,-1,3
 789 671.5 789 671.5 806.25 655.5 c 128,-1,4
 823.5 639.5 823.5 639.5 823.5 617.5 c 0,5,6
 823.5 595 823.5 595 806.25 579 c 128,-1,7
 789 563 789 563 764.5 563 c 0,8,9
 761.5 563 761.5 563 754.5 564 c 1,10,-1
 559 332.5 l 1,11,-1
 782 332.5 l 1,12,13
 799 361.5 799 361.5 834 361.5 c 0,14,15
 858.5 361.5 858.5 361.5 875.75 345.5 c 128,-1,16
 893 329.5 893 329.5 893 307 c 0,17,18
 893 285 893 285 875.75 269 c 128,-1,19
 858.5 253 858.5 253 834 253 c 0,20,21
 799 253 799 253 782 281.5 c 1,22,-1
 560 281.5 l 1,23,-1
 754 52.5 l 1,24,25
 757.5 53 757.5 53 764.5 53 c 0,26,27
 789 53 789 53 806.25 37 c 128,-1,28
 823.5 21 823.5 21 823.5 -1 c 0,29,30
 823.5 -23.5 823.5 -23.5 806.25 -39.5 c 128,-1,31
 789 -55.5 789 -55.5 764.5 -55.5 c 128,-1,32
 740 -55.5 740 -55.5 722.75 -39.5 c 128,-1,33
 705.5 -23.5 705.5 -23.5 705.5 -1 c 0,34,35
 705.5 9 705.5 9 710.5 20 c 1,36,-1
 533 234 l 1,37,-1
 532.5 -7 l 1,38,39
 547.5 -14 547.5 -14 556.25 -27 c 128,-1,40
 565 -40 565 -40 565 -55.5 c 0,41,42
 565 -78 565 -78 548 -93.75 c 128,-1,43
 531 -109.5 531 -109.5 506.5 -109.5 c 128,-1,44
 482 -109.5 482 -109.5 464.75 -93.5 c 128,-1,45
 447.5 -77.5 447.5 -77.5 447.5 -55.5 c 0,46,47
 447.5 -24 447.5 -24 476 -8.5 c 1,48,49
 476 31.5 476 31.5 476.25 112.5 c 128,-1,50
 476.5 193.5 476.5 193.5 476.5 233.5 c 1,51,-1
 299.5 19.5 l 1,52,53
 304 10 304 10 304 -1 c 0,54,55
 304 -23.5 304 -23.5 286.75 -39.5 c 128,-1,56
 269.5 -55.5 269.5 -55.5 245 -55.5 c 128,-1,57
 220.5 -55.5 220.5 -55.5 203.5 -39.5 c 128,-1,58
 186.5 -23.5 186.5 -23.5 186.5 -1 c 128,-1,59
 186.5 21.5 186.5 21.5 203.5 37.25 c 128,-1,60
 220.5 53 220.5 53 245 53 c 0,61,62
 249.5 53 249.5 53 256.5 52 c 1,63,-1
 450 281.5 l 1,64,-1
 212 281.5 l 1,65,66
 195 253 195 253 160.5 253 c 0,67,68
 136 253 136 253 118.75 269 c 128,-1,69
 101.5 285 101.5 285 101.5 307 c 0,70,71
 101.5 329.5 101.5 329.5 118.75 345.5 c 128,-1,72
 136 361.5 136 361.5 160.5 361.5 c 0,73,74
 195 361.5 195 361.5 212 332.5 c 1,75,-1
 450.5 332.5 l 1,76,-1
 254.5 564 l 1,77,78
 248.5 563 248.5 563 245 563 c 0,79,80
 220.5 563 220.5 563 203.5 579 c 128,-1,81
 186.5 595 186.5 595 186.5 617.5 c 128,-1,82
 186.5 640 186.5 640 203.5 655.75 c 128,-1,83
 220.5 671.5 220.5 671.5 245 671.5 c 128,-1,84
 269.5 671.5 269.5 671.5 286.75 655.5 c 128,-1,85
 304 639.5 304 639.5 304 617.5 c 0,86,87
 304 605.5 304 605.5 299 595.5 c 1,88,-1
 477 381 l 1,89,-1
 477 624.5 l 1,90,91
 462.5 631.5 462.5 631.5 454 644.25 c 128,-1,92
 445.5 657 445.5 657 445.5 672.5 c 0,93,94
 445.5 695 445.5 695 462.75 711 c 128,-1,95
 480 727 480 727 504.5 727 c 128,-1,96
 529 727 529 727 546 711 c 128,-1,97
 563 695 563 695 563 672.5 c 0,98,99
 563 641 563 641 533.5 625.5 c 1,100,-1
 533 381.5 l 1,101,-1
 710.5 596 l 1,102,103
 705.5 607 705.5 607 705.5 617.5 c 0,0,1
EndSplineSet
EndChar

StartChar: u1C39B
Encoding: 115611 115611 31
Width: 841
VWidth: 1024
Flags: W
LayerCount: 2
Fore
SplineSet
159.5 618.5 m 1,0,-1
 181.5 633.5 l 1,1,-1
 420.5 349 l 1,2,-1
 658 633.5 l 1,3,-1
 680 618.5 l 1,4,-1
 702 603.5 l 1,5,-1
 455 307.5 l 1,6,-1
 702 13 l 2,7,8
 709 4.5 709 4.5 707 -6.5 c 128,-1,9
 705 -17.5 705 -17.5 695 -23 c 0,10,11
 688 -27 688 -27 680 -27 c 2,12,-1
 162 -27 l 2,13,14
 150 -27 150 -27 141.75 -19 c 128,-1,15
 133.5 -11 133.5 -11 134.5 0 c 0,16,17
 135 7 135 7 140 13 c 2,18,-1
 386 307.5 l 1,19,-1
 138 603 l 1,20,-1
 159.5 618.5 l 1,0,-1
420.5 266 m 1,21,-1
 217 23 l 1,22,-1
 624.5 23 l 1,23,-1
 420.5 266 l 1,21,-1
158 266 m 1,24,-1
 158 291 l 1,25,-1
 679.5 291 l 1,26,-1
 679.5 266 l 1,27,-1
 679.5 241 l 1,28,-1
 158 241 l 1,29,-1
 158 266 l 1,24,-1
159.5 352 m 1,30,-1
 159.5 377 l 1,31,-1
 681 377 l 1,32,-1
 681 352 l 1,33,-1
 681 327 l 1,34,-1
 159.5 327 l 1,35,-1
 159.5 352 l 1,30,-1
421 673.5 m 1,36,-1
 448.5 673.5 l 1,37,-1
 447.5 307 l 1,38,-1
 420 307 l 1,39,-1
 392.5 307 l 1,40,-1
 393.5 674 l 1,41,-1
 421 673.5 l 1,36,-1
EndSplineSet
EndChar

StartChar: u1C39C
Encoding: 115612 115612 32
Width: 764
VWidth: 1024
Flags: W
LayerCount: 2
Fore
SplineSet
410 -104.5 m 1,0,-1
 354 -104.5 l 1,1,-1
 354 281.5 l 1,2,-1
 213 281.5 l 1,3,4
 205.5 268 205.5 268 191.75 260 c 128,-1,5
 178 252 178 252 160.5 252 c 0,6,7
 136 252 136 252 118.75 268 c 128,-1,8
 101.5 284 101.5 284 101.5 306 c 0,9,10
 101.5 328.5 101.5 328.5 118.75 344.5 c 128,-1,11
 136 360.5 136 360.5 160.5 360.5 c 0,12,13
 195 360.5 195 360.5 211.5 333 c 1,14,-1
 354 333 l 1,15,-1
 354 460 l 1,16,17
 339.5 467 339.5 467 331 479.75 c 128,-1,18
 322.5 492.5 322.5 492.5 322.5 508 c 0,19,20
 322.5 530 322.5 530 339.75 546 c 128,-1,21
 357 562 357 562 381.5 562 c 128,-1,22
 406 562 406 562 423.25 546 c 128,-1,23
 440.5 530 440.5 530 440.5 508 c 0,24,25
 440.5 493.5 440.5 493.5 432.25 480.75 c 128,-1,26
 424 468 424 468 410 460.5 c 1,27,-1
 410 333 l 1,28,-1
 552.5 333 l 1,29,30
 569 360.5 569 360.5 603.5 360.5 c 0,31,32
 628 360.5 628 360.5 645.25 344.5 c 128,-1,33
 662.5 328.5 662.5 328.5 662.5 306 c 0,34,35
 662.5 284 662.5 284 645.25 268 c 128,-1,36
 628 252 628 252 603.5 252 c 0,37,38
 586 252 586 252 572.25 260 c 128,-1,39
 558.5 268 558.5 268 551 281.5 c 1,40,-1
 410 281.5 l 1,41,-1
 410 -104.5 l 1,0,-1
EndSplineSet
EndChar

StartChar: u1C39D
Encoding: 115613 115613 33
Width: 701
VWidth: 1024
Flags: W
LayerCount: 2
Fore
SplineSet
598.5 332.5 m 1,0,-1
 598.5 282.5 l 1,1,-1
 387 282.5 l 1,2,-1
 387 135 l 1,3,4
 401 127.5 401 127.5 408.75 114.25 c 128,-1,5
 416.5 101 416.5 101 416.5 86 c 0,6,7
 416.5 64.5 416.5 64.5 401 47.25 c 128,-1,8
 385.5 30 385.5 30 360.5 30 c 128,-1,9
 335.5 30 335.5 30 320 47.25 c 128,-1,10
 304.5 64.5 304.5 64.5 304.5 86 c 0,11,12
 304.5 100 304.5 100 311.75 113.25 c 128,-1,13
 319 126.5 319 126.5 332 134 c 1,14,-1
 332 282.5 l 1,15,-1
 208.5 282.5 l 1,16,17
 193.5 252.5 193.5 252.5 159 252.5 c 0,18,19
 134 252.5 134 252.5 118.25 269.25 c 128,-1,20
 102.5 286 102.5 286 102.5 308 c 128,-1,21
 102.5 330 102.5 330 118.25 347 c 128,-1,22
 134 364 134 364 159 364 c 0,23,24
 194 364 194 364 209.5 332.5 c 1,25,-1
 332 332.5 l 1,26,-1
 332 481 l 1,27,28
 319 488.5 319 488.5 311.75 502 c 128,-1,29
 304.5 515.5 304.5 515.5 304.5 529.5 c 0,30,31
 304.5 551 304.5 551 320 568 c 128,-1,32
 335.5 585 335.5 585 360.5 585 c 128,-1,33
 385.5 585 385.5 585 401 568 c 128,-1,34
 416.5 551 416.5 551 416.5 529.5 c 0,35,36
 416.5 514.5 416.5 514.5 408.75 501 c 128,-1,37
 401 487.5 401 487.5 387 480 c 1,38,-1
 387 332.5 l 1,39,-1
 598.5 332.5 l 1,0,-1
EndSplineSet
EndChar

StartChar: u1C39E
Encoding: 115614 115614 34
Width: 764
VWidth: 1024
Flags: W
LayerCount: 2
Fore
SplineSet
323.5 508 m 0,0,1
 323.5 530 323.5 530 340.75 545.75 c 128,-1,2
 358 561.5 358 561.5 382 561.5 c 128,-1,3
 406 561.5 406 561.5 423 545.75 c 128,-1,4
 440 530 440 530 440 508 c 0,5,6
 440 476.5 440 476.5 410 460.5 c 1,7,-1
 410 332 l 1,8,-1
 553.5 332 l 1,9,10
 570 359.5 570 359.5 604 359.5 c 0,11,12
 628 359.5 628 359.5 645.25 343.75 c 128,-1,13
 662.5 328 662.5 328 662.5 306 c 128,-1,14
 662.5 284 662.5 284 645.25 268.25 c 128,-1,15
 628 252.5 628 252.5 604 252.5 c 0,16,17
 587 252.5 587 252.5 573.25 260.5 c 128,-1,18
 559.5 268.5 559.5 268.5 552 282 c 1,19,-1
 410 282 l 1,20,-1
 410 158 l 1,21,22
 424 151 424 151 432.25 138.25 c 128,-1,23
 440.5 125.5 440.5 125.5 440.5 110.5 c 0,24,25
 440.5 88.5 440.5 88.5 423.5 72.75 c 128,-1,26
 406.5 57 406.5 57 382.5 57 c 128,-1,27
 358.5 57 358.5 57 341.5 72.75 c 128,-1,28
 324.5 88.5 324.5 88.5 324.5 110.5 c 0,29,30
 324.5 125.5 324.5 125.5 332.75 138.25 c 128,-1,31
 341 151 341 151 355 158 c 1,32,-1
 355 282 l 1,33,-1
 213 282 l 1,34,35
 205.5 268.5 205.5 268.5 191.75 260.5 c 128,-1,36
 178 252.5 178 252.5 161 252.5 c 0,37,38
 137 252.5 137 252.5 119.75 268.25 c 128,-1,39
 102.5 284 102.5 284 102.5 306 c 128,-1,40
 102.5 328 102.5 328 119.75 343.75 c 128,-1,41
 137 359.5 137 359.5 161 359.5 c 0,42,43
 195 359.5 195 359.5 211.5 332 c 1,44,-1
 355 332 l 1,45,-1
 355 460 l 1,46,47
 340.5 467 340.5 467 332 479.75 c 128,-1,48
 323.5 492.5 323.5 492.5 323.5 508 c 0,0,1
EndSplineSet
EndChar

StartChar: u1C39F
Encoding: 115615 115615 35
Width: 623
VWidth: 1024
Flags: W
LayerCount: 2
Fore
SplineSet
520.5 332.5 m 1,0,-1
 520.5 282.5 l 1,1,-1
 330.5 282.5 l 1,2,-1
 330.5 86.5 l 1,3,-1
 275.5 86.5 l 1,4,-1
 275.5 282.5 l 1,5,-1
 102.5 282.5 l 1,6,-1
 102.5 332.5 l 1,7,-1
 275.5 332.5 l 1,8,-1
 275.5 529 l 1,9,-1
 330.5 529 l 1,10,-1
 330.5 332.5 l 1,11,-1
 520.5 332.5 l 1,0,-1
EndSplineSet
EndChar

StartChar: u1C3A0
Encoding: 115616 115616 36
Width: 764
VWidth: 1024
Flags: W
LayerCount: 2
Fore
SplineSet
410 102 m 1,0,-1
 355 102 l 1,1,-1
 355 282 l 1,2,-1
 213 282 l 1,3,4
 205.5 268.5 205.5 268.5 191.75 260.5 c 128,-1,5
 178 252.5 178 252.5 161 252.5 c 0,6,7
 137 252.5 137 252.5 119.75 268.25 c 128,-1,8
 102.5 284 102.5 284 102.5 306 c 128,-1,9
 102.5 328 102.5 328 119.75 343.75 c 128,-1,10
 137 359.5 137 359.5 161 359.5 c 0,11,12
 172 359.5 172 359.5 181.75 356 c 128,-1,13
 191.5 352.5 191.5 352.5 199 346.25 c 128,-1,14
 206.5 340 206.5 340 211.5 332 c 1,15,-1
 355 332 l 1,16,-1
 355 460 l 1,17,18
 345.5 464.5 345.5 464.5 338.5 471.75 c 128,-1,19
 331.5 479 331.5 479 327.5 488.5 c 128,-1,20
 323.5 498 323.5 498 323.5 508 c 0,21,22
 323.5 530 323.5 530 340.75 545.75 c 128,-1,23
 358 561.5 358 561.5 382 561.5 c 128,-1,24
 406 561.5 406 561.5 423 545.75 c 128,-1,25
 440 530 440 530 440 508 c 0,26,27
 440 493.5 440 493.5 432 480.5 c 128,-1,28
 424 467.5 424 467.5 410 460.5 c 1,29,-1
 410 332 l 1,30,-1
 553.5 332 l 1,31,32
 561 344.5 561 344.5 574.5 352 c 128,-1,33
 588 359.5 588 359.5 604 359.5 c 0,34,35
 628 359.5 628 359.5 645.25 343.75 c 128,-1,36
 662.5 328 662.5 328 662.5 306 c 128,-1,37
 662.5 284 662.5 284 645.25 268.25 c 128,-1,38
 628 252.5 628 252.5 604 252.5 c 0,39,40
 587 252.5 587 252.5 573.25 260.5 c 128,-1,41
 559.5 268.5 559.5 268.5 552 282 c 1,42,-1
 410 282 l 1,43,-1
 410 102 l 1,0,-1
EndSplineSet
EndChar

StartChar: u1C3A1
Encoding: 115617 115617 37
Width: 847
VWidth: 1024
Flags: W
LayerCount: 2
Fore
SplineSet
130 643 m 2,0,-1
 718 643 l 2,1,2
 729.5 643 729.5 643 737.5 635.75 c 128,-1,3
 745.5 628.5 745.5 628.5 745.5 617.5 c 2,4,-1
 745.5 0 l 2,5,6
 745.5 -11 745.5 -11 737.5 -18.25 c 128,-1,7
 729.5 -25.5 729.5 -25.5 718 -25.5 c 2,8,-1
 130 -25.5 l 2,9,10
 118.5 -25.5 118.5 -25.5 110.5 -18.25 c 128,-1,11
 102.5 -11 102.5 -11 102.5 0 c 2,12,-1
 102.5 617.5 l 2,13,14
 102.5 628.5 102.5 628.5 110.5 635.75 c 128,-1,15
 118.5 643 118.5 643 130 643 c 2,0,-1
157.5 592 m 1,16,-1
 157.5 25.5 l 1,17,-1
 690 25.5 l 1,18,-1
 690 592 l 1,19,-1
 157.5 592 l 1,16,-1
569.5 499.5 m 1,20,-1
 612.5 467 l 1,21,-1
 470 307 l 1,22,-1
 609.5 150.5 l 1,23,-1
 566.5 117.5 l 1,24,-1
 434 266 l 1,25,-1
 302 117.5 l 1,26,-1
 259 150.5 l 1,27,-1
 398.5 307 l 1,28,-1
 256 467 l 1,29,-1
 299 499.5 l 1,30,-1
 434 348 l 1,31,-1
 569.5 499.5 l 1,20,-1
EndSplineSet
EndChar

StartChar: u1C3A2
Encoding: 115618 115618 38
Width: 764
VWidth: 1024
Flags: W
LayerCount: 2
Fore
SplineSet
323.5 616 m 0,0,1
 323.5 638 323.5 638 340.5 653.75 c 128,-1,2
 357.5 669.5 357.5 669.5 382 669.5 c 128,-1,3
 406.5 669.5 406.5 669.5 423.25 653.75 c 128,-1,4
 440 638 440 638 440 616 c 0,5,6
 440 601 440 601 431.75 588.25 c 128,-1,7
 423.5 575.5 423.5 575.5 410 568.5 c 1,8,-1
 410 446.5 l 1,9,-1
 553.5 446.5 l 1,10,11
 570 474 570 474 604 474 c 0,12,13
 628.5 474 628.5 474 645.5 458.25 c 128,-1,14
 662.5 442.5 662.5 442.5 662.5 420.5 c 128,-1,15
 662.5 398.5 662.5 398.5 645.5 382.75 c 128,-1,16
 628.5 367 628.5 367 604 367 c 0,17,18
 587 367 587 367 573.25 375 c 128,-1,19
 559.5 383 559.5 383 552 396.5 c 1,20,-1
 410 396.5 l 1,21,-1
 410 233.5 l 1,22,-1
 552 233.5 l 1,23,24
 559.5 247 559.5 247 573.25 255 c 128,-1,25
 587 263 587 263 604 263 c 0,26,27
 628.5 263 628.5 263 645.5 247.25 c 128,-1,28
 662.5 231.5 662.5 231.5 662.5 209.5 c 128,-1,29
 662.5 187.5 662.5 187.5 645.5 171.75 c 128,-1,30
 628.5 156 628.5 156 604 156 c 0,31,32
 570 156 570 156 553.5 183.5 c 1,33,-1
 410 183.5 l 1,34,-1
 410 49.5 l 1,35,36
 423.5 42.5 423.5 42.5 431.75 29.75 c 128,-1,37
 440 17 440 17 440 2 c 0,38,39
 440 -20 440 -20 423.25 -35.75 c 128,-1,40
 406.5 -51.5 406.5 -51.5 382 -51.5 c 128,-1,41
 357.5 -51.5 357.5 -51.5 340.5 -35.75 c 128,-1,42
 323.5 -20 323.5 -20 323.5 2 c 0,43,44
 323.5 17 323.5 17 332.25 30 c 128,-1,45
 341 43 341 43 355 50 c 1,46,-1
 355 183.5 l 1,47,-1
 211.5 183.5 l 1,48,49
 195 156 195 156 161 156 c 0,50,51
 136.5 156 136.5 156 119.5 171.75 c 128,-1,52
 102.5 187.5 102.5 187.5 102.5 209.5 c 128,-1,53
 102.5 231.5 102.5 231.5 119.5 247.25 c 128,-1,54
 136.5 263 136.5 263 161 263 c 0,55,56
 178 263 178 263 191.75 255 c 128,-1,57
 205.5 247 205.5 247 213 233.5 c 1,58,-1
 355 233.5 l 1,59,-1
 355 396.5 l 1,60,-1
 213 396.5 l 1,61,62
 205.5 383 205.5 383 191.75 375 c 128,-1,63
 178 367 178 367 161 367 c 0,64,65
 136.5 367 136.5 367 119.5 382.75 c 128,-1,66
 102.5 398.5 102.5 398.5 102.5 420.5 c 128,-1,67
 102.5 442.5 102.5 442.5 119.5 458.25 c 128,-1,68
 136.5 474 136.5 474 161 474 c 0,69,70
 195 474 195 474 211.5 446.5 c 1,71,-1
 355 446.5 l 1,72,-1
 355 568 l 1,73,74
 341 575 341 575 332.25 588 c 128,-1,75
 323.5 601 323.5 601 323.5 616 c 0,0,1
EndSplineSet
EndChar

StartChar: u1C3A3
Encoding: 115619 115619 39
Width: 764
VWidth: 1024
Flags: W
LayerCount: 2
Fore
SplineSet
323.5 616 m 0,0,1
 323.5 638 323.5 638 340.5 653.75 c 128,-1,2
 357.5 669.5 357.5 669.5 382 669.5 c 128,-1,3
 406.5 669.5 406.5 669.5 423.25 653.75 c 128,-1,4
 440 638 440 638 440 616 c 0,5,6
 440 601 440 601 431.75 588.25 c 128,-1,7
 423.5 575.5 423.5 575.5 410 568.5 c 1,8,-1
 410 446.5 l 1,9,-1
 553.5 446.5 l 1,10,11
 570 474 570 474 604 474 c 0,12,13
 628.5 474 628.5 474 645.5 458.25 c 128,-1,14
 662.5 442.5 662.5 442.5 662.5 420.5 c 128,-1,15
 662.5 398.5 662.5 398.5 645.5 382.75 c 128,-1,16
 628.5 367 628.5 367 604 367 c 0,17,18
 587 367 587 367 573.25 375 c 128,-1,19
 559.5 383 559.5 383 552 396.5 c 1,20,-1
 410 396.5 l 1,21,-1
 410 233.5 l 1,22,-1
 552 233.5 l 1,23,24
 559.5 247 559.5 247 573.25 255 c 128,-1,25
 587 263 587 263 604 263 c 0,26,27
 628.5 263 628.5 263 645.5 247.25 c 128,-1,28
 662.5 231.5 662.5 231.5 662.5 209.5 c 128,-1,29
 662.5 187.5 662.5 187.5 645.5 171.75 c 128,-1,30
 628.5 156 628.5 156 604 156 c 0,31,32
 570 156 570 156 553.5 183.5 c 1,33,-1
 410 183.5 l 1,34,-1
 410 49.5 l 1,35,36
 423.5 42.5 423.5 42.5 431.75 29.75 c 128,-1,37
 440 17 440 17 440 2 c 0,38,39
 440 -20 440 -20 423.25 -35.75 c 128,-1,40
 406.5 -51.5 406.5 -51.5 382 -51.5 c 128,-1,41
 357.5 -51.5 357.5 -51.5 340.5 -35.75 c 128,-1,42
 323.5 -20 323.5 -20 323.5 2 c 0,43,44
 323.5 17 323.5 17 332.25 30 c 128,-1,45
 341 43 341 43 355 50 c 1,46,-1
 355 183.5 l 1,47,-1
 211.5 183.5 l 1,48,49
 195 156 195 156 161 156 c 0,50,51
 136.5 156 136.5 156 119.5 171.75 c 128,-1,52
 102.5 187.5 102.5 187.5 102.5 209.5 c 128,-1,53
 102.5 231.5 102.5 231.5 119.5 247.25 c 128,-1,54
 136.5 263 136.5 263 161 263 c 0,55,56
 178 263 178 263 191.75 255 c 128,-1,57
 205.5 247 205.5 247 213 233.5 c 1,58,-1
 355 233.5 l 1,59,-1
 355 396.5 l 1,60,-1
 213 396.5 l 1,61,62
 205.5 383 205.5 383 191.75 375 c 128,-1,63
 178 367 178 367 161 367 c 0,64,65
 136.5 367 136.5 367 119.5 382.75 c 128,-1,66
 102.5 398.5 102.5 398.5 102.5 420.5 c 128,-1,67
 102.5 442.5 102.5 442.5 119.5 458.25 c 128,-1,68
 136.5 474 136.5 474 161 474 c 0,69,70
 195 474 195 474 211.5 446.5 c 1,71,-1
 355 446.5 l 1,72,-1
 355 568 l 1,73,74
 341 575 341 575 332.25 588 c 128,-1,75
 323.5 601 323.5 601 323.5 616 c 0,0,1
EndSplineSet
EndChar

StartChar: u1C3A4
Encoding: 115620 115620 40
Width: 880
VWidth: 1024
Flags: W
LayerCount: 2
Fore
SplineSet
726 124 m 1,0,-1
 689 85 l 1,1,-1
 491.5 234.5 l 1,2,-1
 454.5 187.5 l 1,3,-1
 679 19.5 l 1,4,-1
 644 -19.5 l 1,5,-1
 422 145.5 l 1,6,-1
 298 -12.5 l 1,7,-1
 253 18.5 l 1,8,-1
 378 178 l 1,9,-1
 324.5 217 l 1,10,-1
 191.5 48 l 1,11,-1
 146.5 76.5 l 1,12,-1
 280.5 250 l 1,13,-1
 103.5 383 l 1,14,-1
 138 422 l 1,15,-1
 313.5 291.5 l 1,16,-1
 351 340 l 1,17,-1
 161 484.5 l 1,18,-1
 197.5 523 l 1,19,-1
 384 382 l 1,20,-1
 426 435 l 1,21,-1
 215 598 l 1,22,-1
 252 637 l 1,23,-1
 459 477 l 1,24,-1
 568.5 616.5 l 1,25,-1
 613.5 587.5 l 1,26,-1
 502 443.5 l 1,27,-1
 554 403.5 l 1,28,-1
 676 558 l 1,29,-1
 721 527.5 l 1,30,-1
 598 369.5 l 1,31,-1
 778 230.5 l 1,32,-1
 741.5 191.5 l 1,33,-1
 564 327.5 l 1,34,-1
 524.5 276.5 l 1,35,-1
 726 124 l 1,0,-1
469 402.5 m 1,36,-1
 428 349 l 1,37,-1
 480.5 309 l 1,38,-1
 521 361.5 l 1,39,-1
 469 402.5 l 1,36,-1
357.5 259 m 1,40,-1
 410.5 220 l 1,41,-1
 447.5 267 l 1,42,-1
 395.5 307 l 1,43,-1
 357.5 259 l 1,40,-1
EndSplineSet
EndChar

StartChar: u1C3A5
Encoding: 115621 115621 41
Width: 834
VWidth: 1024
Flags: W
LayerCount: 2
Fore
SplineSet
292.5 122 m 1,0,-1
 236 122 l 1,1,-1
 236 509 l 1,2,-1
 292.5 509 l 1,3,-1
 292.5 122 l 1,0,-1
732 174 m 1,4,-1
 732 123 l 1,5,-1
 405.5 123 l 1,6,-1
 405.5 174 l 1,7,-1
 732 174 l 1,4,-1
433 332.5 m 1,8,-1
 433 281.5 l 1,9,-1
 102.5 281.5 l 1,10,-1
 102.5 332.5 l 1,11,-1
 433 332.5 l 1,8,-1
405.5 497.5 m 1,12,-1
 732 497.5 l 1,13,-1
 732 446.5 l 1,14,-1
 405.5 446.5 l 1,15,16
 405.5 446.5 405.5 446.5 405.5 497.5 c 1,12,-1
405.5 497.5 m 1,17,-1
 732 497.5 l 1,18,-1
 732 446.5 l 1,19,-1
 405.5 446.5 l 1,20,21
 405.5 446.5 405.5 446.5 405.5 497.5 c 1,17,-1
597.5 0 m 1,22,-1
 541 0 l 1,23,-1
 541 617.5 l 1,24,-1
 597.5 617.5 l 1,25,-1
 597.5 0 l 1,22,-1
EndSplineSet
EndChar

StartChar: u1C3A6
Encoding: 115622 115622 42
Width: 878
VWidth: 1024
Flags: W
LayerCount: 2
Fore
SplineSet
190.5 85 m 1,0,-1
 153.5 124 l 1,1,-1
 355.5 276.5 l 1,2,-1
 316.5 326.5 l 1,3,-1
 139.5 188.5 l 1,4,-1
 102.5 227 l 1,5,-1
 283.5 368.5 l 1,6,-1
 158.5 527.5 l 1,7,-1
 204 558 l 1,8,-1
 326.5 401.5 l 1,9,-1
 379 442.5 l 1,10,-1
 266 587.5 l 1,11,-1
 311.5 616.5 l 1,12,-1
 422 476 l 1,13,-1
 627.5 637 l 1,14,-1
 664.5 598 l 1,15,-1
 454.5 434 l 1,16,-1
 495.5 382 l 1,17,-1
 682 523 l 1,18,-1
 719 484.5 l 1,19,-1
 528.5 340 l 1,20,-1
 566.5 291.5 l 1,21,-1
 741.5 422 l 1,22,-1
 776 383 l 1,23,-1
 599 250 l 1,24,-1
 733 76.5 l 1,25,-1
 688 48 l 1,26,-1
 555 217 l 1,27,-1
 502 178 l 1,28,-1
 626.5 18.5 l 1,29,-1
 581.5 -12.5 l 1,30,-1
 457.5 145.5 l 1,31,-1
 235.5 -19.5 l 1,32,-1
 200.5 19.5 l 1,33,-1
 425 187.5 l 1,34,-1
 388 234.5 l 1,35,-1
 190.5 85 l 1,0,-1
411.5 400.5 m 1,36,-1
 359.5 359.5 l 1,37,-1
 399.5 309 l 1,38,-1
 451.5 349 l 1,39,-1
 411.5 400.5 l 1,36,-1
522 259 m 1,40,-1
 484.5 307 l 1,41,-1
 432 267 l 1,42,-1
 469 220 l 1,43,-1
 522 259 l 1,40,-1
EndSplineSet
EndChar

StartChar: u1C3A7
Encoding: 115623 115623 43
Width: 822
VWidth: 1024
Flags: W
LayerCount: 2
Fore
SplineSet
441.5 0 m 1,0,-1
 384 0 l 1,1,-1
 384 117.5 l 1,2,-1
 271.5 117.5 l 1,3,-1
 271.5 0 l 1,4,-1
 214 0 l 1,5,-1
 214 117.5 l 1,6,-1
 102.5 117.5 l 1,7,-1
 102.5 169 l 1,8,-1
 214 169 l 1,9,-1
 214 281.5 l 1,10,-1
 102.5 281.5 l 1,11,-1
 102.5 332.5 l 1,12,-1
 214 332.5 l 1,13,-1
 214 451.5 l 1,14,-1
 102.5 451.5 l 1,15,-1
 102.5 502.5 l 1,16,-1
 214 502.5 l 1,17,-1
 214 617.5 l 1,18,-1
 271.5 617.5 l 1,19,-1
 271.5 502.5 l 1,20,-1
 384 502.5 l 1,21,-1
 384 617.5 l 1,22,-1
 441.5 617.5 l 1,23,-1
 441.5 502.5 l 1,24,-1
 548 502.5 l 1,25,-1
 548 617.5 l 1,26,-1
 605 617.5 l 1,27,-1
 605 502.5 l 1,28,-1
 720 502.5 l 1,29,-1
 720 451.5 l 1,30,-1
 605 451.5 l 1,31,-1
 605 332.5 l 1,32,-1
 720 332.5 l 1,33,-1
 720 281.5 l 1,34,-1
 605 281.5 l 1,35,-1
 605 169 l 1,36,-1
 720 169 l 1,37,-1
 720 117.5 l 1,38,-1
 605 117.5 l 1,39,-1
 605 0 l 1,40,-1
 548 0 l 1,41,-1
 548 117.5 l 1,42,-1
 441.5 117.5 l 1,43,-1
 441.5 0 l 1,0,-1
548 451.5 m 1,44,-1
 441.5 451.5 l 1,45,-1
 441.5 332.5 l 1,46,-1
 548 332.5 l 1,47,-1
 548 451.5 l 1,44,-1
384 451.5 m 1,48,-1
 271.5 451.5 l 1,49,-1
 271.5 332.5 l 1,50,-1
 384 332.5 l 1,51,-1
 384 451.5 l 1,48,-1
548 281.5 m 1,52,-1
 441.5 281.5 l 1,53,-1
 441.5 169 l 1,54,-1
 548 169 l 1,55,-1
 548 281.5 l 1,52,-1
384 281.5 m 1,56,-1
 271.5 281.5 l 1,57,-1
 271.5 169 l 1,58,-1
 384 169 l 1,59,-1
 384 281.5 l 1,56,-1
EndSplineSet
EndChar

StartChar: u1C3A8
Encoding: 115624 115624 44
Width: 799
VWidth: 1024
Flags: W
LayerCount: 2
Fore
SplineSet
141.5 136 m 1,0,-1
 141.5 187.5 l 1,1,-1
 262 188.5 l 1,2,-1
 261 326.5 l 1,3,-1
 317.5 326.5 l 1,4,-1
 318.5 188.5 l 1,5,-1
 524.5 188.5 l 1,6,-1
 523.5 326.5 l 1,7,8
 531.5 327.5 531.5 327.5 540.5 327.5 c 2,9,10
 540.5 327.5 540.5 327.5 579.5 326.5 c 1,11,-1
 580.5 188.5 l 1,12,-1
 697.5 189.5 l 1,13,-1
 697.5 138 l 1,14,-1
 580.5 137 l 1,15,-1
 580.5 0 l 1,16,-1
 524.5 0 l 1,17,-1
 524.5 137 l 1,18,-1
 318.5 137 l 1,19,-1
 318.5 0 l 1,20,-1
 262 0 l 1,21,-1
 262 137 l 1,22,-1
 141.5 136 l 1,0,-1
316.5 401.5 m 1,23,-1
 259 401.5 l 1,24,-1
 259 544.5 l 1,25,-1
 102.5 544.5 l 1,26,-1
 102.5 596 l 1,27,-1
 259 596 l 1,28,-1
 259 732 l 1,29,-1
 315.5 732 l 1,30,-1
 315.5 596 l 1,31,32
 315.5 596 315.5 596 489.5 596 c 1,33,-1
 489.5 544.5 l 1,34,-1
 315.5 544.5 l 1,35,-1
 316.5 401.5 l 1,23,-1
EndSplineSet
EndChar

StartChar: u1C3A9
Encoding: 115625 115625 45
Width: 1129
VWidth: 1024
Flags: W
LayerCount: 2
Fore
SplineSet
105.5 531.5 m 2,0,-1
 173 635 l 2,1,2
 180.5 647 180.5 647 197.5 647 c 0,3,4
 208.5 647 208.5 647 214 643 c 2,5,-1
 475 481 l 1,6,-1
 475 677 l 2,7,8
 475 688 475 688 483.25 695.25 c 128,-1,9
 491.5 702.5 491.5 702.5 503 702.5 c 2,10,-1
 625.5 702.5 l 2,11,12
 638 702.5 638 702.5 646.25 694.5 c 128,-1,13
 654.5 686.5 654.5 686.5 654.5 677 c 2,14,-1
 654.5 481 l 1,15,-1
 915.5 643 l 2,16,17
 922 647 922 647 931 647 c 0,18,19
 949.5 647 949.5 647 956.5 635 c 2,20,-1
 1023 531.5 l 2,21,22
 1027 526 1027 526 1027 519 c 0,23,24
 1027 504 1027 504 1016 497.5 c 2,25,-1
 701.5 309 l 1,26,-1
 1016 122 l 2,27,28
 1027 115 1027 115 1027 100.5 c 0,29,30
 1027 93.5 1027 93.5 1023 88 c 2,31,-1
 956.5 -15.5 l 2,32,33
 949 -27.5 949 -27.5 932 -27.5 c 0,34,35
 921 -27.5 921 -27.5 915.5 -23.5 c 2,36,-1
 654.5 142 l 1,37,-1
 654.5 -68.5 l 2,38,39
 654.5 -79 654.5 -79 645.5 -86.75 c 128,-1,40
 636.5 -94.5 636.5 -94.5 625.5 -94.5 c 2,41,-1
 503 -94.5 l 2,42,43
 491.5 -94.5 491.5 -94.5 483.25 -87 c 128,-1,44
 475 -79.5 475 -79.5 475 -68.5 c 2,45,-1
 475 150.5 l 1,46,-1
 214 -23.5 l 2,47,48
 207.5 -27.5 207.5 -27.5 197.5 -27.5 c 0,49,50
 180 -27.5 180 -27.5 173 -15.5 c 2,51,-1
 105.5 88 l 2,52,53
 102.5 92 102.5 92 102.5 100.5 c 0,54,55
 102.5 115.5 102.5 115.5 113.5 122 c 2,56,-1
 427 309 l 1,57,-1
 113.5 497.5 l 2,58,59
 102.5 504.5 102.5 504.5 102.5 519 c 0,60,61
 102.5 527.5 102.5 527.5 105.5 531.5 c 2,0,-1
475 341 m 1,62,-1
 475 356.5 l 1,63,-1
 475 417.5 l 1,64,-1
 206 584.5 l 1,65,-1
 168 526 l 1,66,-1
 475 341 l 1,62,-1
564 423 m 1,67,68
 570 426.5 570 426.5 581.25 433.75 c 128,-1,69
 592.5 441 592.5 441 598 444.5 c 1,70,-1
 598 651 l 1,71,-1
 531.5 651 l 1,72,-1
 531.5 444.5 l 1,73,-1
 564 423 l 1,67,68
652.5 278.5 m 1,74,-1
 654.5 263 l 1,75,-1
 654.5 205.5 l 1,76,-1
 923.5 34.5 l 1,77,-1
 961.5 93 l 1,78,-1
 652.5 278.5 l 1,74,-1
564 198.5 m 1,79,-1
 531.5 177 l 1,80,-1
 531.5 -43 l 1,81,-1
 598 -43 l 1,82,-1
 598 177 l 1,83,-1
 564 198.5 l 1,79,-1
564 250 m 1,84,-1
 598 268 l 1,85,-1
 598 353 l 1,86,-1
 564 374.5 l 1,87,-1
 531.5 353 l 1,88,-1
 531.5 268 l 1,89,-1
 564 250 l 1,84,-1
652.5 341 m 1,90,-1
 961.5 526 l 1,91,-1
 923.5 584.5 l 1,92,-1
 654.5 417.5 l 1,93,-1
 654.5 356.5 l 1,94,-1
 652.5 341 l 1,90,-1
475 278.5 m 1,95,-1
 168 93 l 1,96,-1
 206 34.5 l 1,97,-1
 475 214 l 1,98,-1
 475 263 l 1,99,-1
 475 278.5 l 1,95,-1
EndSplineSet
EndChar

StartChar: u1C3AA
Encoding: 115626 115626 46
Width: 1077
VWidth: 1024
Flags: W
LayerCount: 2
Fore
SplineSet
265 -18.5 m 2,0,1
 259 -24.5 259 -24.5 247 -24.5 c 0,2,3
 233 -24.5 233 -24.5 224.5 -14.5 c 2,4,-1
 145.5 77.5 l 2,5,6
 140.5 82.5 140.5 82.5 140.5 93 c 0,7,8
 140.5 105 140.5 105 149.5 112.5 c 2,9,-1
 299 224 l 1,10,-1
 131 224 l 2,11,12
 118.5 224 118.5 224 110.5 232.25 c 128,-1,13
 102.5 240.5 102.5 240.5 102.5 250 c 2,14,-1
 102.5 364.5 l 2,15,16
 102.5 375 102.5 375 111.25 382.5 c 128,-1,17
 120 390 120 390 131 390 c 2,18,-1
 284.5 391 l 1,19,20
 260.5 410 260.5 410 210.75 444.75 c 128,-1,21
 161 479.5 161 479.5 140.5 495.5 c 0,22,23
 131 503.5 131 503.5 131 515 c 0,24,25
 131 524 131 524 135 529.5 c 2,26,-1
 212 631.5 l 2,27,28
 220 643 220 643 235.5 643 c 0,29,30
 246.5 643 246.5 643 254 637 c 2,31,-1
 529.5 412.5 l 1,32,-1
 804 637 l 2,33,34
 811.5 643 811.5 643 822.5 643 c 0,35,36
 836 643 836 643 845 632.5 c 2,37,-1
 918.5 539.5 l 2,38,39
 923.5 533 923.5 533 923.5 524 c 0,40,41
 923.5 512 923.5 512 914.5 504.5 c 2,42,-1
 774 393 l 1,43,-1
 946 394 l 2,44,45
 958 394 958 394 966.5 385.75 c 128,-1,46
 975 377.5 975 377.5 975 368.5 c 2,47,-1
 975 252 l 2,48,49
 975 241.5 975 241.5 966 233.75 c 128,-1,50
 957 226 957 226 946 226 c 2,51,-1
 755.5 226 l 1,52,-1
 904 118.5 l 2,53,54
 913.5 112 913.5 112 913.5 99 c 0,55,56
 913.5 91.5 913.5 91.5 909.5 86 c 2,57,-1
 841.5 -13.5 l 2,58,59
 834 -25.5 834 -25.5 818 -25.5 c 0,60,61
 809.5 -25.5 809.5 -25.5 801 -20.5 c 0,62,63
 800.5 -20 800.5 -20 765.25 8.5 c 128,-1,64
 730 37 730 37 661.75 91.25 c 128,-1,65
 593.5 145.5 593.5 145.5 527.5 197.5 c 1,66,-1
 265 -18.5 l 2,0,1
240.5 579.5 m 1,67,-1
 196.5 519 l 1,68,69
 221.5 499.5 221.5 499.5 281.25 456.75 c 128,-1,70
 341 414 341 414 370.5 391 c 1,71,-1
 476 392 l 1,72,-1
 240.5 579.5 l 1,67,-1
159.5 339 m 1,73,-1
 159.5 275.5 l 1,74,-1
 369.5 276.5 l 1,75,-1
 403.5 303 l 1,76,77
 396 309 396 309 380.25 321.25 c 128,-1,78
 364.5 333.5 364.5 333.5 356.5 340 c 1,79,80
 326 340 326 340 258 339.5 c 128,-1,81
 190 339 190 339 159.5 339 c 1,73,-1
660.5 306 m 1,82,-1
 697.5 276.5 l 1,83,-1
 917.5 277.5 l 1,84,-1
 917.5 343 l 1,85,-1
 703.5 342 l 1,86,-1
 660.5 306 l 1,82,-1
594 306 m 1,87,-1
 550 341 l 1,88,-1
 505 341 l 1,89,-1
 457.5 303 l 1,90,91
 463 298.5 463 298.5 475 289.75 c 128,-1,92
 487 281 487 281 492.5 276.5 c 1,93,-1
 556 276.5 l 1,94,-1
 594 306 l 1,87,-1
572.5 225 m 1,95,96
 627 182.5 627 182.5 709.25 118.75 c 128,-1,97
 791.5 55 791.5 55 812 39 c 1,98,-1
 849 94 l 1,99,-1
 669.5 225 l 1,100,-1
 572.5 225 l 1,95,96
482.5 225 m 1,101,-1
 384 225 l 1,102,-1
 207 90 l 1,103,-1
 251 38 l 1,104,-1
 482.5 225 l 1,101,-1
688 393 m 1,105,-1
 858 528.5 l 1,106,-1
 817 579.5 l 1,107,-1
 583.5 392 l 1,108,-1
 688 393 l 1,105,-1
EndSplineSet
EndChar

StartChar: u1C3AB
Encoding: 115627 115627 47
Width: 1037
VWidth: 1024
Flags: W
LayerCount: 2
Fore
SplineSet
674 466 m 1,0,-1
 362.5 470 l 1,1,-1
 363.5 152.5 l 1,2,-1
 675 152.5 l 1,3,-1
 674 466 l 1,0,-1
733 -9.5 m 1,4,-1
 844 101.5 l 1,5,-1
 732 102.5 l 1,6,-1
 733 -9.5 l 1,4,-1
727 -92.5 m 2,7,8
 718 -101.5 718 -101.5 705.5 -101.5 c 0,9,10
 694 -101.5 694 -101.5 686 -94.25 c 128,-1,11
 678 -87 678 -87 678 -76 c 2,12,-1
 676 101.5 l 1,13,-1
 364.5 101.5 l 1,14,-1
 362.5 -75 l 2,15,16
 362.5 -86 362.5 -86 353.5 -93.5 c 0,17,18
 345 -100.5 345 -100.5 335 -100.5 c 0,19,20
 322.5 -100.5 322.5 -100.5 314.5 -92.5 c 2,21,-1
 111.5 108.5 l 2,22,23
 104.5 115.5 104.5 115.5 104.5 126 c 128,-1,24
 104.5 136.5 104.5 136.5 112.5 144 c 128,-1,25
 120.5 151.5 120.5 151.5 132 151.5 c 2,26,-1
 307 153.5 l 1,27,28
 307 206 307 206 306.5 311.5 c 128,-1,29
 306 417 306 417 306 470 c 1,30,-1
 130 471 l 2,31,32
 118.5 471 118.5 471 110.5 478.25 c 128,-1,33
 102.5 485.5 102.5 485.5 102.5 496.5 c 0,34,35
 102.5 507 102.5 507 109.5 514 c 2,36,-1
 309 715.5 l 2,37,38
 317.5 724 317.5 724 331 724 c 0,39,40
 341 724 341 724 349 717.5 c 0,41,42
 358.5 709.5 358.5 709.5 358.5 699.5 c 2,43,-1
 361.5 521 l 1,44,-1
 675 517 l 1,45,-1
 676 696 l 2,46,47
 676 707 676 707 684.5 714.5 c 128,-1,48
 693 722 693 722 704.5 722 c 0,49,50
 716.5 722 716.5 722 725 713.5 c 2,51,-1
 926.5 513 l 2,52,53
 935 504.5 935 504.5 935 495.5 c 0,54,55
 935 485 935 485 925.5 477 c 0,56,57
 917 470 917 470 907.5 470 c 2,58,-1
 730 467 l 1,59,-1
 731 153.5 l 1,60,-1
 906 152.5 l 2,61,62
 916 152.5 916 152.5 924.5 145.5 c 0,63,64
 934 137.5 934 137.5 934 127 c 0,65,66
 934 117 934 117 926.5 109.5 c 2,67,-1
 727 -92.5 l 2,7,8
195.5 101.5 m 1,68,-1
 307 -9.5 l 1,69,-1
 308 102.5 l 1,70,-1
 195.5 101.5 l 1,68,-1
732 630.5 m 1,71,-1
 731 518 l 1,72,-1
 844 520 l 1,73,-1
 732 630.5 l 1,71,-1
303 632.5 m 1,74,-1
 193.5 522 l 1,75,-1
 305 521 l 1,76,-1
 303 632.5 l 1,74,-1
EndSplineSet
EndChar

StartChar: u1C3AC
Encoding: 115628 115628 48
Width: 1036
VWidth: 1024
Flags: W
LayerCount: 2
Fore
SplineSet
703.5 127.5 m 1024,0,-1
674.5 467 m 1,1,-1
 361.5 470.5 l 1,2,-1
 362.5 152 l 1,3,-1
 676 152.5 l 1,4,-1
 674.5 467 l 1,1,-1
191.5 521.5 m 1,5,-1
 306 521 l 1,6,-1
 304 635 l 1,7,-1
 211 540.5 l 1,8,-1
 191.5 521.5 l 1,5,-1
732.5 -11 m 1,9,-1
 845 102 l 1,10,-1
 731 103 l 1,11,-1
 732.5 -11 l 1,9,-1
726 -92 m 2,12,13
 719 -99.5 719 -99.5 708 -100.5 c 0,14,15
 696.5 -101.5 696.5 -101.5 687.5 -94 c 128,-1,16
 678.5 -86.5 678.5 -86.5 678 -76 c 2,17,-1
 676 102.5 l 1,18,-1
 363.5 102 l 1,19,-1
 362 -75 l 2,20,21
 362 -84.5 362 -84.5 354.5 -91.5 c 0,22,23
 349.5 -97 349.5 -97 342 -98.75 c 128,-1,24
 334.5 -100.5 334.5 -100.5 327 -98.5 c 128,-1,25
 319.5 -96.5 319.5 -96.5 314.5 -91.5 c 2,26,-1
 112 109 l 2,27,28
 106 115 106 115 105 123.5 c 0,29,30
 104 134 104 134 112 142.25 c 128,-1,31
 120 150.5 120 150.5 132 151 c 2,32,-1
 307.5 153 l 1,33,-1
 306.5 471 l 1,34,-1
 130 471.5 l 2,35,36
 118 471.5 118 471.5 109.75 479.75 c 128,-1,37
 101.5 488 101.5 488 102.5 498.5 c 0,38,39
 103.5 507 103.5 507 109.5 513 c 2,40,-1
 310 715.5 l 2,41,42
 318 723.5 318 723.5 330.25 723.5 c 128,-1,43
 342.5 723.5 342.5 723.5 350.5 716 c 0,44,45
 358 709 358 709 358 699 c 2,46,-1
 361 520.5 l 1,47,-1
 675 517 l 1,48,-1
 676.5 696 l 1,49,-1
 704 696 l 1,50,-1
 731.5 696 l 1,51,-1
 730 492 l 1,52,-1
 729.5 492 l 1,53,-1
 729.5 491.5 l 1,54,-1
 731 153 l 1,55,-1
 906.5 151.5 l 2,56,57
 915.5 151.5 915.5 151.5 923 146.5 c 0,58,59
 932.5 140 932.5 140 933.5 129 c 128,-1,60
 934.5 118 934.5 118 926.5 110 c 2,61,-1
 726 -92 l 2,12,13
194 101.5 m 1,62,-1
 307.5 -11 l 1,63,-1
 308.5 103 l 1,64,-1
 194 101.5 l 1,62,-1
455 306.75 m 128,-1,66
 455 331.5 455 331.5 472.5 350.75 c 128,-1,67
 490 370 490 370 517.75 370 c 128,-1,68
 545.5 370 545.5 370 563 350.75 c 128,-1,69
 580.5 331.5 580.5 331.5 580.5 306.75 c 128,-1,70
 580.5 282 580.5 282 563 263 c 128,-1,71
 545.5 244 545.5 244 517.75 244 c 128,-1,72
 490 244 490 244 472.5 263 c 128,-1,65
 455 282 455 282 455 306.75 c 128,-1,66
EndSplineSet
EndChar

StartChar: u1C3AD
Encoding: 115629 115629 49
Width: 625
VWidth: 1024
Flags: W
LayerCount: 2
Fore
SplineSet
479 550.5 m 1,0,-1
 523 520 l 1,1,-1
 346 307 l 1,2,-1
 512.5 96.5 l 1,3,-1
 467.5 67.5 l 1,4,-1
 311 265 l 1,5,-1
 146.5 67 l 1,6,-1
 102.5 97 l 1,7,-1
 277.5 307.5 l 1,8,-1
 108 521.5 l 1,9,10
 112 524 112 524 119.5 528.75 c 128,-1,11
 127 533.5 127 533.5 130.5 536 c 2,12,-1
 153 551 l 1,13,-1
 312.5 349.5 l 1,14,-1
 479 550.5 l 1,0,-1
EndSplineSet
EndChar

StartChar: u1C3AE
Encoding: 115630 115630 50
Width: 830
VWidth: 1024
Flags: W
LayerCount: 2
Fore
SplineSet
379 617.5 m 1,0,-1
 434 617.5 l 1,1,-1
 434 355 l 1,2,3
 464 339.5 464 339.5 464 307.5 c 0,4,5
 464 303 464 303 463.5 301 c 2,6,-1
 727.5 81.5 l 1,7,-1
 690.5 44.5 l 1,8,-1
 433.5 258 l 1,9,-1
 433.5 0 l 1,10,-1
 378.5 0 l 1,11,-1
 378.5 260 l 1,12,13
 364.5 267 364.5 267 356 279.75 c 128,-1,14
 347.5 292.5 347.5 292.5 347.5 307.5 c 0,15,16
 347.5 312 347.5 312 348 314.5 c 1,17,-1
 102.5 518.5 l 1,18,-1
 121 537 l 1,19,20
 121 537 121 537 139.5 555.5 c 1,21,-1
 379 356.5 l 1,22,-1
 379 617.5 l 1,0,-1
EndSplineSet
EndChar

StartChar: u1C3AF
Encoding: 115631 115631 51
Width: 751
VWidth: 1024
Flags: W
LayerCount: 2
Fore
SplineSet
198.5 292.5 m 1,0,1
 195 288.5 195 288.5 185.5 274 c 1,2,-1
 189.5 270 l 1,3,-1
 224 307.5 l 1,4,-1
 215 317 l 1,5,6
 207.5 305 207.5 305 198.5 293 c 1,7,-1
 198.5 292.5 l 1,0,1
153.5 321.5 m 0,8,9
 197 379.5 197 379.5 197 435.5 c 0,10,11
 197 511 197 511 117 602 c 0,12,13
 111 609 111 609 111 617.5 c 0,14,15
 111 627.5 111 627.5 119.25 635 c 128,-1,16
 127.5 642.5 127.5 642.5 138.5 642.5 c 2,17,-1
 615 643.5 l 2,18,19
 624 643.5 624 643.5 632 638 c 0,20,21
 642.5 630 642.5 630 642.5 618 c 0,22,23
 642.5 610 642.5 610 636.5 603 c 0,24,25
 555 510.5 555 510.5 555 433.5 c 0,26,27
 555 377.5 555 377.5 597.5 321.5 c 0,28,29
 649 254 649 254 649 190 c 0,30,31
 649 150.5 649 150.5 631 115.25 c 128,-1,32
 613 80 613 80 583.75 55 c 128,-1,33
 554.5 30 554.5 30 518.25 11.5 c 128,-1,34
 482 -7 482 -7 445.25 -16 c 128,-1,35
 408.5 -25 408.5 -25 376 -25 c 0,36,37
 334.5 -25 334.5 -25 289.25 -11 c 128,-1,38
 244 3 244 3 204.5 28 c 0,39,40
 158.5 57 158.5 57 130.5 99.5 c 128,-1,41
 102.5 142 102.5 142 102.5 191.5 c 0,42,43
 102.5 256.5 102.5 256.5 153.5 321.5 c 0,8,9
552.5 293 m 1,44,45
 541 309 541 309 533.5 321.5 c 1,46,-1
 520.5 307.5 l 1,47,-1
 555 269.5 l 1,48,-1
 563 278.5 l 1,49,50
 559.5 284 559.5 284 552.5 292.5 c 1,51,-1
 552.5 293 l 1,44,45
543 91 m 1,52,-1
 496 141.5 l 1,53,-1
 464.5 107 l 1,54,-1
 504.5 63 l 1,55,56
 525.5 75 525.5 75 543 91 c 1,52,-1
249 407 m 1,57,58
 245 381 245 381 236 358 c 1,59,-1
 253 339 l 1,60,-1
 282 371 l 1,61,-1
 249 407 l 1,57,58
571.5 123 m 1,62,63
 586.5 144.5 586.5 144.5 591.5 166.5 c 1,64,-1
 555 206 l 1,65,-1
 525 173 l 1,66,-1
 571.5 123 l 1,62,63
203 592.5 m 1,67,-1
 192.5 592.5 l 1,68,69
 236.5 532 236.5 532 247 472.5 c 1,70,-1
 280 508 l 1,71,-1
 203 592.5 l 1,67,-1
585 237 m 1,72,-1
 585 237.5 l 2,73,74
 584.5 238 584.5 238 584.5 238.5 c 1,75,-1
 584 238 l 1,76,-1
 585 237 l 1,72,-1
260.5 593 m 1,77,-1
 309 540 l 1,78,-1
 343.5 578 l 1,79,-1
 330 593 l 1,80,-1
 260.5 593 l 1,77,-1
504 401.5 m 1,81,-1
 497.5 408.5 l 1,82,-1
 462.5 371.5 l 1,83,-1
 491.5 339 l 1,84,-1
 513.5 363 l 1,85,86
 507 381.5 507 381.5 504 401.5 c 1,81,-1
464.5 43.5 m 1,87,-1
 435.5 75 l 1,88,-1
 401 37 l 1,89,-1
 409.5 28 l 1,90,91
 438 32.5 438 32.5 464.5 43.5 c 1,87,-1
219.5 173 m 1,92,-1
 189 206.5 l 1,93,-1
 158 172 l 1,94,95
 161.5 148 161.5 148 175.5 126.5 c 1,96,-1
 219.5 173 l 1,92,-1
248.5 204.5 m 1,97,-1
 283.5 242 l 1,98,-1
 253 275.5 l 1,99,-1
 218 238 l 1,100,-1
 248.5 204.5 l 1,97,-1
313 273.5 m 1,101,-1
 343 306 l 1,102,-1
 311.5 340 l 1,103,-1
 282 307.5 l 1,104,-1
 313 273.5 l 1,101,-1
498 472 m 1,105,-1
 507 482 l 1,106,107
 519.5 536 519.5 536 561 593.5 c 1,108,-1
 544 593.5 l 1,109,-1
 465.5 507.5 l 1,110,-1
 498 472 l 1,105,-1
468.5 440.5 m 1,111,-1
 436 476 l 1,112,-1
 401.5 438 l 1,113,-1
 433.5 403 l 1,114,-1
 468.5 440.5 l 1,111,-1
404.5 371.5 m 1,115,-1
 372.5 406.5 l 1,116,-1
 340.5 371.5 l 1,117,-1
 372 337.5 l 1,118,-1
 404.5 371.5 l 1,115,-1
248 141.5 m 1,119,-1
 203.5 94 l 1,120,121
 219.5 79.5 219.5 79.5 236.5 69 c 0,122,123
 237.5 68.5 237.5 68.5 239.25 67.25 c 128,-1,124
 241 66 241 66 242 65.5 c 2,125,-1
 279.5 107 l 1,126,-1
 248 141.5 l 1,119,-1
277.5 173 m 1,127,-1
 308.5 138.5 l 1,128,129
 314 145 314 145 325.75 157.5 c 128,-1,130
 337.5 170 337.5 170 343 176.5 c 1,131,-1
 312.5 210.5 l 1,132,-1
 277.5 173 l 1,127,-1
341.5 242 m 1,133,-1
 372 208.5 l 1,134,-1
 402.5 242 l 1,135,-1
 372 274.5 l 1,136,-1
 341.5 242 l 1,133,-1
433 340 m 1,137,-1
 401.5 306 l 1,138,-1
 431.5 273.5 l 1,139,-1
 462.5 307.5 l 1,140,-1
 433 340 l 1,137,-1
436.5 539.5 m 1,141,-1
 485.5 593 l 1,142,-1
 415 593 l 1,143,-1
 401.5 578 l 1,144,-1
 436.5 539.5 l 1,141,-1
407.5 507.5 m 1,145,-1
 372.5 546 l 1,146,-1
 337.5 508 l 1,147,-1
 372.5 470 l 1,148,-1
 407.5 507.5 l 1,145,-1
343.5 438 m 1,149,-1
 308.5 476.5 l 1,150,-1
 276 440.5 l 1,151,-1
 311 403 l 1,152,-1
 343.5 438 l 1,149,-1
308.5 75 m 1,153,-1
 281.5 45.5 l 1,154,155
 307.5 34.5 307.5 34.5 336 29 c 1,156,-1
 343 37 l 1,157,-1
 308.5 75 l 1,153,-1
337.5 107 m 1,158,-1
 372 69 l 1,159,-1
 406.5 107 l 1,160,-1
 372 145 l 1,161,-1
 337.5 107 l 1,158,-1
401 176.5 m 1,162,-1
 435.5 138.5 l 1,163,-1
 467 173 l 1,164,-1
 432 210.5 l 1,165,-1
 401 176.5 l 1,162,-1
491.5 275.5 m 1,166,-1
 461 242 l 1,167,-1
 495.5 204.5 l 1,168,-1
 526 238 l 1,169,-1
 491.5 275.5 l 1,166,-1
EndSplineSet
EndChar

StartChar: u1C3B0
Encoding: 115632 115632 52
Width: 775
VWidth: 1024
Flags: W
LayerCount: 2
Fore
SplineSet
106 294 m 0,0,1
 166 384 166 384 202 440 c 1,2,-1
 127 608 l 2,3,4
 125 612 125 612 125 617.5 c 0,5,6
 125 634 125 634 142 640.5 c 0,7,8
 149 642.5 149 642.5 152.5 642.5 c 2,9,-1
 629 643.5 l 2,10,11
 640 643.5 640 643.5 648.25 636 c 128,-1,12
 656.5 628.5 656.5 628.5 656.5 618.5 c 0,13,14
 656.5 613.5 656.5 613.5 654 608.5 c 2,15,-1
 573.5 441.5 l 1,16,-1
 669 292.5 l 2,17,18
 673 286 673 286 673 280 c 0,19,20
 673 271.5 673 271.5 666.5 264 c 2,21,-1
 411 -16 l 2,22,23
 403 -24.5 403 -24.5 391 -24.5 c 0,24,25
 376.5 -24.5 376.5 -24.5 369 -16 c 2,26,-1
 108.5 265 l 2,27,28
 102.5 271 102.5 271 102.5 281 c 0,29,30
 102.5 289 102.5 289 106 294 c 0,0,1
258 433.5 m 1,31,32
 253 417.5 253 417.5 230 381 c 1,33,-1
 245.5 363.5 l 1,34,-1
 284 405.5 l 1,35,-1
 258 433.5 l 1,31,32
507 167.5 m 1,36,-1
 453.5 225 l 1,37,-1
 412.5 180.5 l 1,38,-1
 466 122 l 1,39,-1
 507 167.5 l 1,36,-1
536 199.5 m 1,40,-1
 577.5 244.5 l 1,41,-1
 524.5 303 l 1,42,-1
 482 257 l 1,43,-1
 536 199.5 l 1,40,-1
217 539.5 m 1,44,-1
 240 515 l 1,45,-1
 285.5 565 l 1,46,-1
 260 592.5 l 1,47,-1
 193.5 592.5 l 1,48,-1
 217 539.5 l 1,44,-1
606.5 276.5 m 1,49,-1
 612 282.5 l 1,50,-1
 568 351 l 1,51,-1
 553.5 334.5 l 1,52,-1
 606.5 276.5 l 1,49,-1
406 593 m 1,53,-1
 368.5 593 l 1,54,-1
 343 565 l 1,55,-1
 386.5 517.5 l 1,56,-1
 430.5 565.5 l 1,57,-1
 406 593 l 1,53,-1
205.5 344.5 m 1,58,59
 197.5 332.5 197.5 332.5 182.75 311.75 c 128,-1,60
 168 291 168 291 163 283.5 c 1,61,-1
 168 278.5 l 1,62,-1
 216.5 332 l 1,63,-1
 205.5 344.5 l 1,58,59
437 90.5 m 1,64,-1
 383.5 149 l 1,65,-1
 336 97 l 1,66,-1
 390 39 l 1,67,-1
 437 90.5 l 1,64,-1
285.5 256 m 1,68,-1
 245.5 300 l 1,69,-1
 197 247 l 1,70,-1
 237 204 l 1,71,-1
 285.5 256 l 1,68,-1
315 287.5 m 1,72,-1
 355 330 l 1,73,-1
 313.5 374 l 1,74,-1
 274.5 332 l 1,75,76
 281.5 324.5 281.5 324.5 295 309.75 c 128,-1,77
 308.5 295 308.5 295 315 287.5 c 1,72,-1
531.5 518 m 1,78,-1
 570 559 l 1,79,-1
 587 593.5 l 1,80,-1
 514 593.5 l 1,81,-1
 488.5 565.5 l 1,82,-1
 531.5 518 l 1,78,-1
502 486.5 m 1,83,-1
 459.5 533.5 l 1,84,-1
 415.5 485.5 l 1,85,-1
 458 439.5 l 1,86,-1
 502 486.5 l 1,83,-1
428.5 408 m 1,87,-1
 386.5 454 l 1,88,-1
 342.5 406 l 1,89,-1
 384.5 361 l 1,90,-1
 428.5 408 l 1,87,-1
314.5 224.5 m 1,91,-1
 266 172.5 l 1,92,-1
 307 128.5 l 1,93,-1
 354.5 180.5 l 1,94,-1
 314.5 224.5 l 1,91,-1
344 256 m 1,95,-1
 383.5 212.5 l 1,96,-1
 424 256.5 l 1,97,-1
 384.5 298.5 l 1,98,-1
 344 256 l 1,95,-1
486.5 407.5 m 1,99,-1
 524.5 366.5 l 1,100,-1
 544 388 l 1,101,-1
 519 427.5 l 2,102,103
 515.5 432.5 515.5 432.5 515 438 c 1,104,-1
 486.5 407.5 l 1,99,-1
457 376.5 m 1,105,-1
 413.5 330 l 1,106,-1
 453 288 l 1,107,-1
 495.5 334.5 l 1,108,-1
 457 376.5 l 1,105,-1
357.5 485.5 m 1,109,-1
 314.5 533 l 1,110,-1
 269.5 483.5 l 1,111,-1
 313 437 l 1,112,-1
 357.5 485.5 l 1,109,-1
EndSplineSet
EndChar

StartChar: u1C3B1
Encoding: 115633 115633 53
Width: 714
VWidth: 1024
Flags: W
LayerCount: 2
Fore
SplineSet
559 627.5 m 1,0,-1
 610.5 607 l 1,1,2
 572.5 524.5 572.5 524.5 555.5 469.5 c 128,-1,3
 538.5 414.5 538.5 414.5 538.5 363.5 c 0,4,5
 538.5 314 538.5 314 555.75 258.25 c 128,-1,6
 573 202.5 573 202.5 610.5 124 c 0,7,8
 612.5 121 612.5 121 612.5 113.5 c 0,9,10
 612.5 103.5 612.5 103.5 605 96 c 2,11,-1
 378 -120 l 2,12,13
 370 -128 370 -128 358.5 -128 c 0,14,15
 345 -128 345 -128 337 -120 c 2,16,-1
 109.5 96 l 2,17,18
 102.5 101.5 102.5 101.5 102.5 113.5 c 0,19,20
 102.5 118 102.5 118 104.5 124 c 0,21,22
 142 202 142 202 159 257.75 c 128,-1,23
 176 313.5 176 313.5 176 363.5 c 0,24,25
 176 414.5 176 414.5 159 469.75 c 128,-1,26
 142 525 142 525 104.5 607 c 1,27,-1
 155.5 627.5 l 1,28,29
 173 591.5 173 591.5 187.5 554 c 1,30,-1
 381 636 l 1,31,-1
 401.5 599 l 1,32,-1
 244.5 532.5 l 1,33,-1
 505 491.5 l 1,34,35
 523.5 551.5 523.5 551.5 559 627.5 c 1,0,-1
208 496.5 m 1,36,37
 229.5 427 229.5 427 229.5 362.5 c 2,38,-1
 229.5 346 l 1,39,-1
 457.5 456.5 l 1,40,-1
 208 496.5 l 1,36,37
221 279.5 m 1,41,42
 216 255 216 255 198.5 203.5 c 1,43,-1
 361.5 107.5 l 1,44,-1
 499.5 180 l 1,45,-1
 221 279.5 l 1,41,42
241.5 44 m 1,46,-1
 317.5 84 l 1,47,-1
 183.5 163.5 l 1,48,49
 180 155 180 155 172.25 138.5 c 128,-1,50
 164.5 122 164.5 122 163 118.5 c 1,51,-1
 241.5 44 l 1,46,-1
274.5 13 m 1,52,-1
 357.5 -65.5 l 1,53,-1
 439.5 12 l 1,54,-1
 360.5 59.5 l 1,55,-1
 274.5 13 l 1,52,-1
536.5 152.5 m 1,56,-1
 404.5 82 l 1,57,-1
 471 43 l 1,58,-1
 552 118.5 l 1,59,60
 549.5 124.5 549.5 124.5 544.25 135.5 c 128,-1,61
 539 146.5 539 146.5 536.5 152.5 c 1,56,-1
510 221 m 1,62,63
 485.5 296.5 485.5 296.5 485.5 362.5 c 0,64,65
 485.5 399 485.5 399 490.5 426 c 1,66,-1
 255 311 l 1,67,-1
 510 221 l 1,62,63
EndSplineSet
EndChar

StartChar: u1C3B2
Encoding: 115634 115634 54
Width: 751
VWidth: 1024
Flags: W
LayerCount: 2
Fore
SplineSet
405 452.5 m 0,0,1
 405 468 405 468 416.75 480 c 128,-1,2
 428.5 492 428.5 492 447 492 c 128,-1,3
 465.5 492 465.5 492 477.25 480 c 128,-1,4
 489 468 489 468 489 452.5 c 0,5,6
 489 438.5 489 438.5 479 427 c 128,-1,7
 469 415.5 469 415.5 453.5 413.5 c 1,8,-1
 398.5 306 l 1,9,-1
 451.5 195 l 1,10,11
 467 192.5 467 192.5 476.5 181 c 128,-1,12
 486 169.5 486 169.5 486 156 c 0,13,14
 486 140.5 486 140.5 474.25 128.5 c 128,-1,15
 462.5 116.5 462.5 116.5 444 116.5 c 128,-1,16
 425.5 116.5 425.5 116.5 413.75 128.5 c 128,-1,17
 402 140.5 402 140.5 402 156 c 0,18,19
 402 168 402 168 410 179 c 1,20,-1
 373.5 256.5 l 1,21,-1
 334 179.5 l 1,22,23
 339.5 170 339.5 170 339.5 160 c 0,24,25
 339.5 144.5 339.5 144.5 327.75 132.5 c 128,-1,26
 316 120.5 316 120.5 297.5 120.5 c 128,-1,27
 279 120.5 279 120.5 267.25 132.5 c 128,-1,28
 255.5 144.5 255.5 144.5 255.5 160 c 0,29,30
 255.5 175 255.5 175 266.5 186.75 c 128,-1,31
 277.5 198.5 277.5 198.5 294.5 199.5 c 1,32,-1
 349.5 306.5 l 1,33,-1
 297.5 416.5 l 1,34,35
 282 419 282 419 272.25 430.5 c 128,-1,36
 262.5 442 262.5 442 262.5 455.5 c 0,37,38
 262.5 471 262.5 471 274.25 483 c 128,-1,39
 286 495 286 495 304.5 495 c 128,-1,40
 323 495 323 495 334.75 483 c 128,-1,41
 346.5 471 346.5 471 346.5 455.5 c 0,42,43
 346.5 443 346.5 443 338.5 432.5 c 1,44,-1
 375 356.5 l 1,45,-1
 412.5 430 l 1,46,47
 405 439.5 405 439.5 405 452.5 c 0,0,1
176 307 m 1,48,-1
 198.5 292.5 l 1,49,50
 156.5 238.5 156.5 238.5 156.5 189.5 c 0,51,52
 156.5 120.5 156.5 120.5 236.5 69 c 0,53,54
 268.5 48.5 268.5 48.5 306.5 36.75 c 128,-1,55
 344.5 25 344.5 25 376 25 c 0,56,57
 409.5 25 409.5 25 447.5 37.75 c 128,-1,58
 485.5 50.5 485.5 50.5 518.25 71.75 c 128,-1,59
 551 93 551 93 572.5 124.75 c 128,-1,60
 594 156.5 594 156.5 594 190.5 c 0,61,62
 594 239.5 594 239.5 552.5 292.5 c 1,63,64
 556.5 295 556.5 295 564 299.75 c 128,-1,65
 571.5 304.5 571.5 304.5 575 307 c 1,66,-1
 552.5 293 l 1,67,68
 501 361 501 361 501 433 c 0,69,70
 501 511 501 511 560 592.5 c 1,71,-1
 375 593 l 1,72,-1
 192.5 592.5 l 1,73,74
 250.5 512 250.5 512 250.5 435 c 0,75,76
 250.5 362.5 250.5 362.5 198.5 293 c 1,77,-1
 176 307 l 1,48,-1
153.5 321.5 m 0,78,79
 196.5 378 196.5 378 196.5 435 c 0,80,81
 196.5 511.5 196.5 511.5 117 601.5 c 0,82,83
 111 608.5 111 608.5 111 617.5 c 0,84,85
 111 627.5 111 627.5 119.25 635 c 128,-1,86
 127.5 642.5 127.5 642.5 138.5 642.5 c 2,87,-1
 375 643 l 1,88,-1
 614 642.5 l 2,89,90
 623 642.5 623 642.5 631 637 c 0,91,92
 641.5 629 641.5 629 641.5 617 c 0,93,94
 641.5 608 641.5 608 635.5 601.5 c 0,95,96
 555 510.5 555 510.5 555 434 c 0,97,98
 555 377.5 555 377.5 597.5 321.5 c 0,99,100
 649 255.5 649 255.5 649 190.5 c 0,101,102
 649 151 649 151 631 115.75 c 128,-1,103
 613 80.5 613 80.5 583.75 55.25 c 128,-1,104
 554.5 30 554.5 30 518.25 11.5 c 128,-1,105
 482 -7 482 -7 445.25 -16 c 128,-1,106
 408.5 -25 408.5 -25 376 -25 c 0,107,108
 334.5 -25 334.5 -25 289.25 -11 c 128,-1,109
 244 3 244 3 204.5 28 c 0,110,111
 158.5 57 158.5 57 130.5 99.5 c 128,-1,112
 102.5 142 102.5 142 102.5 191.5 c 0,113,114
 102.5 256.5 102.5 256.5 153.5 321.5 c 0,78,79
EndSplineSet
EndChar

StartChar: u1C3B3
Encoding: 115635 115635 55
Width: 751
VWidth: 1024
Flags: W
LayerCount: 2
Fore
SplineSet
153.5 321.5 m 0,0,1
 197 379.5 197 379.5 197 435.5 c 0,2,3
 197 511 197 511 117 602 c 0,4,5
 111 609 111 609 111 617 c 0,6,7
 111 629 111 629 121.5 637 c 0,8,9
 129.5 642.5 129.5 642.5 138.5 642.5 c 2,10,-1
 165 642.5 l 1,11,-1
 165 716.5 l 1,12,-1
 210 716.5 l 1,13,-1
 210 642.5 l 1,14,-1
 295 643 l 1,15,-1
 295 716.5 l 1,16,-1
 340 716.5 l 1,17,-1
 340 643 l 1,18,-1
 375 643 l 1,19,-1
 419.5 643 l 1,20,-1
 419.5 716 l 1,21,-1
 464.5 716 l 1,22,-1
 464.5 643 l 1,23,-1
 534 642.5 l 1,24,-1
 534 716.5 l 1,25,-1
 579 716.5 l 1,26,-1
 579 642.5 l 1,27,-1
 614 642.5 l 2,28,29
 625 642.5 625 642.5 633.25 635 c 128,-1,30
 641.5 627.5 641.5 627.5 641.5 617.5 c 0,31,32
 641.5 609 641.5 609 635.5 602 c 0,33,34
 555 510.5 555 510.5 555 434 c 0,35,36
 555 378.5 555 378.5 597.5 321.5 c 0,37,38
 649 254 649 254 649 190 c 0,39,40
 649 150.5 649 150.5 631 115.25 c 128,-1,41
 613 80 613 80 583.75 55 c 128,-1,42
 554.5 30 554.5 30 518.25 11.5 c 128,-1,43
 482 -7 482 -7 445.25 -16 c 128,-1,44
 408.5 -25 408.5 -25 376 -25 c 0,45,46
 334.5 -25 334.5 -25 289.5 -11.25 c 128,-1,47
 244.5 2.5 244.5 2.5 205 28 c 0,48,49
 159 57.5 159 57.5 130.75 99.75 c 128,-1,50
 102.5 142 102.5 142 102.5 191.5 c 0,51,52
 102.5 256.5 102.5 256.5 153.5 321.5 c 0,0,1
198.5 292.5 m 0,53,54
 156.5 238.5 156.5 238.5 156.5 189.5 c 0,55,56
 156.5 120.5 156.5 120.5 236.5 69 c 0,57,58
 268.5 48.5 268.5 48.5 306.5 36.75 c 128,-1,59
 344.5 25 344.5 25 376 25 c 0,60,61
 409.5 25 409.5 25 447.5 37.75 c 128,-1,62
 485.5 50.5 485.5 50.5 518.25 71.75 c 128,-1,63
 551 93 551 93 572.5 124.75 c 128,-1,64
 594 156.5 594 156.5 594 190.5 c 0,65,66
 594 239.5 594 239.5 552.5 292.5 c 0,67,68
 501 361 501 361 501 433 c 0,69,70
 501 511 501 511 560 592.5 c 1,71,-1
 375 593 l 1,72,-1
 192.5 592.5 l 1,73,74
 250.5 512 250.5 512 250.5 434.5 c 0,75,76
 250.5 361 250.5 361 198.5 292.5 c 0,53,54
410.5 452.5 m 0,77,78
 410.5 468 410.5 468 422.25 480 c 128,-1,79
 434 492 434 492 452.5 492 c 128,-1,80
 471 492 471 492 482.75 480 c 128,-1,81
 494.5 468 494.5 468 494.5 452.5 c 0,82,83
 494.5 438.5 494.5 438.5 484.5 427 c 128,-1,84
 474.5 415.5 474.5 415.5 459 413.5 c 1,85,-1
 404 306 l 1,86,-1
 457 195 l 1,87,88
 472.5 192.5 472.5 192.5 482 181 c 128,-1,89
 491.5 169.5 491.5 169.5 491.5 156 c 0,90,91
 491.5 140.5 491.5 140.5 479.75 128.5 c 128,-1,92
 468 116.5 468 116.5 449.5 116.5 c 128,-1,93
 431 116.5 431 116.5 419.25 128.5 c 128,-1,94
 407.5 140.5 407.5 140.5 407.5 156 c 0,95,96
 407.5 168 407.5 168 415.5 179 c 1,97,-1
 379 256.5 l 1,98,-1
 339.5 179.5 l 1,99,100
 345 170 345 170 345 160 c 0,101,102
 345 144.5 345 144.5 333.25 132.5 c 128,-1,103
 321.5 120.5 321.5 120.5 303 120.5 c 128,-1,104
 284.5 120.5 284.5 120.5 272.75 132.5 c 128,-1,105
 261 144.5 261 144.5 261 160 c 0,106,107
 261 175 261 175 272 186.75 c 128,-1,108
 283 198.5 283 198.5 300 199.5 c 1,109,-1
 355 306.5 l 1,110,-1
 303 416.5 l 1,111,112
 287.5 419 287.5 419 277.75 430.5 c 128,-1,113
 268 442 268 442 268 455.5 c 0,114,115
 268 471 268 471 279.75 483 c 128,-1,116
 291.5 495 291.5 495 310 495 c 128,-1,117
 328.5 495 328.5 495 340.25 483 c 128,-1,118
 352 471 352 471 352 455.5 c 0,119,120
 352 443 352 443 344 432.5 c 1,121,-1
 380.5 356.5 l 1,122,-1
 418 430 l 1,123,124
 410.5 439.5 410.5 439.5 410.5 452.5 c 0,77,78
EndSplineSet
EndChar

StartChar: u1C3B4
Encoding: 115636 115636 56
Width: 864
VWidth: 1024
Flags: W
LayerCount: 2
Fore
SplineSet
113 655 m 128,-1,1
 113 679.5 113 679.5 130.75 698.75 c 128,-1,2
 148.5 718 148.5 718 176 718 c 0,3,4
 196.5 718 196.5 718 211.75 707 c 128,-1,5
 227 696 227 696 234 679 c 1,6,-1
 258.5 679 l 1,7,-1
 258.5 763.5 l 1,8,-1
 303.5 763.5 l 1,9,-1
 303.5 679 l 1,10,-1
 324.5 679 l 1,11,-1
 324.5 766.5 l 1,12,-1
 369.5 766.5 l 1,13,-1
 369.5 679 l 1,14,-1
 398 679 l 1,15,-1
 398 769.5 l 1,16,-1
 443 769.5 l 1,17,-1
 443 679 l 1,18,-1
 471.5 679 l 1,19,-1
 471.5 768 l 1,20,-1
 516.5 768 l 1,21,-1
 516.5 679 l 1,22,-1
 541.5 679 l 1,23,-1
 541.5 767 l 1,24,-1
 586.5 767 l 1,25,-1
 586.5 679 l 1,26,-1
 604.5 679 l 1,27,28
 611.5 695.5 611.5 695.5 626.75 706.25 c 128,-1,29
 642 717 642 717 662 717 c 0,30,31
 689.5 717 689.5 717 707.25 698 c 128,-1,32
 725 679 725 679 725 654.5 c 128,-1,33
 725 630 725 630 707.25 610.75 c 128,-1,34
 689.5 591.5 689.5 591.5 662 591.5 c 0,35,36
 651.5 591.5 651.5 591.5 642.5 594.5 c 1,37,-1
 565.5 513 l 1,38,-1
 754.5 324 l 2,39,40
 761.5 317 761.5 317 761.5 307 c 0,41,42
 761.5 297.5 761.5 297.5 754.5 290.5 c 2,43,-1
 691.5 226.5 l 1,44,45
 695 217.5 695 217.5 695 206 c 0,46,47
 695 181.5 695 181.5 677.25 162.25 c 128,-1,48
 659.5 143 659.5 143 632 143 c 0,49,50
 621 143 621 143 612 146 c 1,51,-1
 451.5 -16.5 l 2,52,53
 443.5 -24.5 443.5 -24.5 430 -24.5 c 0,54,55
 418.5 -24.5 418.5 -24.5 410.5 -16.5 c 2,56,-1
 256 141 l 1,57,58
 245 137 245 137 233 137 c 0,59,60
 205.5 137 205.5 137 187.75 156.25 c 128,-1,61
 170 175.5 170 175.5 170 200 c 0,62,63
 170 211 170 211 175 223.5 c 1,64,-1
 109.5 290.5 l 2,65,66
 102.5 297.5 102.5 297.5 102.5 307.5 c 0,67,68
 102.5 317 102.5 317 109 323.5 c 2,69,-1
 287 509.5 l 1,70,-1
 198.5 596 l 1,71,72
 187.5 592 187.5 592 176 592 c 0,73,74
 148.5 592 148.5 592 130.75 611.25 c 128,-1,0
 113 630.5 113 630.5 113 655 c 128,-1,1
529.5 474.5 m 1,75,-1
 487 429 l 1,76,77
 491 419 491 419 491 406.5 c 0,78,79
 491 396 491 396 488 386.5 c 1,80,-1
 611.5 265.5 l 1,81,82
 622 269 622 269 632 269 c 0,83,84
 642.5 269 642.5 269 655 264.5 c 1,85,-1
 697 307 l 1,86,-1
 529.5 474.5 l 1,75,-1
324.5 473 m 1,87,-1
 166.5 307 l 1,88,-1
 213 259.5 l 1,89,90
 223.5 263 223.5 263 233 263 c 0,91,92
 244 263 244 263 254.5 259 c 1,93,-1
 370.5 382.5 l 1,94,95
 365.5 395 365.5 395 365.5 406.5 c 0,96,97
 365.5 417.5 365.5 417.5 369.5 428.5 c 1,98,-1
 324.5 473 l 1,87,-1
409 346.5 m 1,99,-1
 292 222 l 1,100,101
 296 211 296 211 296 200 c 0,102,103
 296 189.5 296 189.5 292 179 c 1,104,-1
 431 37.5 l 1,105,-1
 574 182 l 1,106,107
 569 194.5 569 194.5 569 206 c 0,108,109
 569 218 569 218 573.5 229 c 1,110,-1
 452.5 348 l 1,111,112
 442 343.5 442 343.5 428.5 343.5 c 0,113,114
 418 343.5 418 343.5 409 346.5 c 1,99,-1
449 466 m 1,115,-1
 603 629 l 1,116,-1
 239.5 629 l 1,117,-1
 407 465.5 l 1,118,119
 416 469 416 469 428.5 469 c 0,120,121
 439 469 439 469 449 466 c 1,115,-1
EndSplineSet
EndChar

StartChar: u1C3B5
Encoding: 115637 115637 57
Width: 924
VWidth: 1024
Flags: W
LayerCount: 2
Fore
SplineSet
223 -15.5 m 1,0,-1
 178 15.5 l 1,1,-1
 424 305 l 1,2,-1
 205 557 l 1,3,-1
 155.5 303 l 1,4,-1
 100.5 311 l 1,5,-1
 161 621.5 l 2,6,7
 162.5 631 162.5 631 170.5 637 c 128,-1,8
 178.5 643 178.5 643 188.5 643 c 2,9,-1
 193.5 643 l 2,10,11
 203.5 641.5 203.5 641.5 211 634 c 2,12,-1
 460 347 l 1,13,-1
 706.5 638 l 2,14,15
 715 648 715 648 729 648 c 0,16,17
 738 648 738 648 746.5 643 c 0,18,19
 754 638 754 638 756.5 627.5 c 2,20,-1
 821 312 l 1,21,-1
 766 302 l 1,22,-1
 712.5 561 l 1,23,-1
 495.5 306 l 1,24,-1
 748.5 16.5 l 1,25,-1
 703.5 -16.5 l 1,26,-1
 461 264 l 1,27,-1
 223 -15.5 l 1,0,-1
EndSplineSet
EndChar

StartChar: u1C3B6
Encoding: 115638 115638 58
Width: 737
VWidth: 1024
Flags: W
LayerCount: 2
Fore
SplineSet
485 588.5 m 1,0,-1
 579.5 588.5 l 1,1,-1
 580 662 l 1,2,-1
 485 588.5 l 1,0,-1
341.5 175.5 m 1,3,-1
 341.5 205.5 l 1,4,-1
 391 205.5 l 1,5,6
 391 205.5 391 205.5 391 190.5 c 2,7,8
 391 190.5 391 190.5 391 175.5 c 1,9,-1
 341.5 175.5 l 1,3,-1
415 252.5 m 2,10,11
 415 252.5 415 252.5 415 267.5 c 1,12,-1
 462 267.5 l 1,13,14
 462 267.5 462 267.5 462 252.5 c 2,15,16
 462 252.5 462 252.5 462 237.5 c 1,17,-1
 415 237.5 l 1,18,19
 415 237.5 415 237.5 415 252.5 c 2,10,11
269.5 240 m 1,20,-1
 269.5 270 l 1,21,-1
 317 270.5 l 1,22,-1
 317 240.5 l 1,23,-1
 269.5 240 l 1,20,-1
487 343.5 m 2,24,25
 487 343.5 487 343.5 487 358.5 c 1,26,-1
 536.5 358.5 l 1,27,28
 536.5 358.5 536.5 358.5 536.5 343.5 c 2,29,30
 536.5 343.5 536.5 343.5 536.5 328.5 c 1,31,-1
 487 328.5 l 1,32,33
 487 328.5 487 328.5 487 343.5 c 2,24,25
491.5 426.5 m 2,34,35
 491.5 426.5 491.5 426.5 491.5 441.5 c 1,36,-1
 538.5 441.5 l 1,37,38
 538.5 441.5 538.5 441.5 538.5 426.5 c 2,39,40
 538.5 426.5 538.5 426.5 538.5 411.5 c 1,41,-1
 491.5 411.5 l 1,42,43
 491.5 411.5 491.5 411.5 491.5 426.5 c 2,34,35
493 505.5 m 2,44,45
 493 505.5 493 505.5 493 520.5 c 1,46,-1
 540.5 521 l 1,47,48
 540.5 521 540.5 521 540.5 506 c 2,49,50
 540.5 506 540.5 506 540.5 491 c 1,51,-1
 493 490.5 l 1,52,53
 493 490.5 493 490.5 493 505.5 c 2,44,45
340 328.5 m 1,54,-1
 340 358.5 l 1,55,-1
 389.5 358.5 l 1,56,57
 389.5 358.5 389.5 358.5 389.5 343.5 c 2,58,59
 389.5 343.5 389.5 343.5 389.5 328.5 c 1,60,-1
 340 328.5 l 1,54,-1
344.5 411.5 m 1,61,-1
 344.5 441.5 l 1,62,-1
 391.5 441.5 l 1,63,64
 391.5 441.5 391.5 441.5 391.5 426.5 c 2,65,66
 391.5 426.5 391.5 426.5 391.5 411.5 c 1,67,-1
 344.5 411.5 l 1,61,-1
346 490.5 m 1,68,-1
 346 520.5 l 1,69,-1
 393.5 521 l 1,70,71
 393.5 521 393.5 521 393.5 506 c 2,72,73
 393.5 506 393.5 506 393.5 491 c 1,74,-1
 346 490.5 l 1,68,-1
191.5 328.5 m 1,75,-1
 191.5 358.5 l 1,76,-1
 241 358.5 l 1,77,-1
 241 328.5 l 1,78,-1
 191.5 328.5 l 1,75,-1
196 411.5 m 1,79,-1
 196 441.5 l 1,80,-1
 243 441.5 l 1,81,-1
 243 411.5 l 1,82,-1
 196 411.5 l 1,79,-1
197.5 490.5 m 1,83,-1
 197.5 520.5 l 1,84,-1
 245 520.5 l 1,85,-1
 245 490.5 l 1,86,-1
 197.5 490.5 l 1,83,-1
250 588.5 m 1,87,-1
 157.5 662 l 1,88,-1
 157.5 588.5 l 1,89,-1
 250 588.5 l 1,87,-1
394 -14.5 m 2,90,91
 389 -20 389 -20 387.5 -20.5 c 0,92,93
 381 -25 381 -25 372 -25 c 0,94,95
 356.5 -25 356.5 -25 349 -14.5 c 2,96,-1
 107.5 292 l 2,97,98
 102.5 298 102.5 298 102.5 306.5 c 2,99,-1
 102.5 563.5 l 1,100,-1
 102.5 716.5 l 2,101,102
 102.5 726.5 102.5 726.5 110.75 734 c 128,-1,103
 119 741.5 119 741.5 130 741.5 c 0,104,105
 140.5 741.5 140.5 741.5 148 735.5 c 2,106,-1
 333.5 589 l 1,107,-1
 401.5 589 l 1,108,-1
 589.5 735.5 l 2,109,110
 597 741.5 597 741.5 607.5 741.5 c 0,111,112
 618.5 741.5 618.5 741.5 626.75 734 c 128,-1,113
 635 726.5 635 726.5 635 716.5 c 2,114,-1
 634.5 563.5 l 1,115,-1
 634.5 307 l 2,116,117
 634.5 299.5 634.5 299.5 629.5 293 c 2,118,-1
 394 -14.5 l 2,90,91
371 43 m 1,119,-1
 579.5 315 l 1,120,-1
 579.5 538.5 l 1,121,-1
 157.5 538.5 l 1,122,-1
 157.5 314.5 l 1,123,-1
 371 43 l 1,119,-1
EndSplineSet
EndChar

StartChar: u1C3B7
Encoding: 115639 115639 59
Width: 748
VWidth: 1024
Flags: W
LayerCount: 2
Fore
SplineSet
376 28.5 m 1,0,1
 400.5 42 400.5 42 424 58 c 128,-1,2
 447.5 74 447.5 74 475.25 99.75 c 128,-1,3
 503 125.5 503 125.5 524.75 154.75 c 128,-1,4
 546.5 184 546.5 184 564.5 224.25 c 128,-1,5
 582.5 264.5 582.5 264.5 590 309 c 1,6,-1
 590 538.5 l 1,7,-1
 157.5 538.5 l 1,8,-1
 157.5 308.5 l 1,9,10
 166 265.5 166 265.5 185 225.25 c 128,-1,11
 204 185 204 185 226.75 155 c 128,-1,12
 249.5 125 249.5 125 277 99.25 c 128,-1,13
 304.5 73.5 304.5 73.5 328.5 56.75 c 128,-1,14
 352.5 40 352.5 40 376 28.5 c 1,0,1
390 -22 m 0,15,16
 385 -25 385 -25 376.5 -25 c 0,17,18
 370.5 -25 370.5 -25 364.5 -22.5 c 0,19,20
 337.5 -10.5 337.5 -10.5 309 7.5 c 128,-1,21
 280.5 25.5 280.5 25.5 247.25 55 c 128,-1,22
 214 84.5 214 84.5 186.5 119.25 c 128,-1,23
 159 154 159 154 136 202 c 128,-1,24
 113 250 113 250 103 302 c 0,25,26
 103 302.5 103 302.5 102.75 304 c 128,-1,27
 102.5 305.5 102.5 305.5 102.5 306.5 c 2,28,-1
 102.5 563.5 l 1,29,-1
 102.5 716.5 l 2,30,31
 102.5 726.5 102.5 726.5 110.75 734 c 128,-1,32
 119 741.5 119 741.5 130 741.5 c 0,33,34
 143 741.5 143 741.5 151 732.5 c 2,35,-1
 265 607 l 1,36,-1
 353 730 l 2,37,38
 360.5 741.5 360.5 741.5 376.5 741.5 c 0,39,40
 384 741.5 384 741.5 391 737.5 c 0,41,42
 394 735.5 394 735.5 399 730.5 c 2,43,-1
 489 607 l 1,44,-1
 596.5 732 l 2,45,46
 604.5 741.5 604.5 741.5 618 741.5 c 0,47,48
 629 741.5 629 741.5 637.25 734 c 128,-1,49
 645.5 726.5 645.5 726.5 645.5 716.5 c 2,50,-1
 645 563.5 l 1,51,-1
 645 307 l 2,52,53
 645 306.5 645 306.5 644.75 305.25 c 128,-1,54
 644.5 304 644.5 304 644.5 303.5 c 0,55,56
 636 250 636 250 613.5 201.5 c 128,-1,57
 591 153 591 153 564.5 119.25 c 128,-1,58
 538 85.5 538 85.5 504.25 55.75 c 128,-1,59
 470.5 26 470.5 26 444 9 c 128,-1,60
 417.5 -8 417.5 -8 390 -22 c 0,15,16
210.5 588.5 m 1,61,-1
 157.5 647 l 1,62,-1
 157.5 588.5 l 1,63,-1
 210.5 588.5 l 1,61,-1
212.5 480 m 1,64,-1
 247.5 480 l 1,65,-1
 247.5 421.5 l 1,66,-1
 212.5 421.5 l 1,67,-1
 212.5 480 l 1,64,-1
301 396 m 1,68,-1
 336 396 l 1,69,-1
 336 337.5 l 1,70,-1
 301 337.5 l 1,71,-1
 301 396 l 1,68,-1
404.5 472.5 m 1,72,-1
 439.5 472.5 l 1,73,-1
 439.5 414 l 1,74,-1
 404.5 414 l 1,75,-1
 404.5 472.5 l 1,72,-1
493 388.5 m 1,76,-1
 528 388.5 l 1,77,-1
 528 330 l 1,78,-1
 493 330 l 1,79,-1
 493 388.5 l 1,76,-1
260.5 246 m 1,80,-1
 295.5 246 l 1,81,-1
 295.5 187.5 l 1,82,-1
 260.5 187.5 l 1,83,-1
 260.5 246 l 1,80,-1
433 255 m 1,84,-1
 468 255 l 1,85,-1
 468 196.5 l 1,86,-1
 433 196.5 l 1,87,-1
 433 255 l 1,84,-1
355 154.5 m 1,88,-1
 390 154.5 l 1,89,-1
 390 96 l 1,90,-1
 355 96 l 1,91,-1
 355 154.5 l 1,88,-1
543 588.5 m 1,92,-1
 590 588.5 l 1,93,-1
 590.5 643.5 l 1,94,-1
 543 588.5 l 1,92,-1
317.5 589 m 1,95,-1
 436 589 l 1,96,-1
 376 671 l 1,97,-1
 317.5 589 l 1,95,-1
EndSplineSet
EndChar

StartChar: u1C3B8
Encoding: 115640 115640 60
Width: 690
VWidth: 1024
Flags: W
LayerCount: 2
Fore
SplineSet
347.5 659 m 1,0,1
 347.5 659 347.5 659 339 659 c 0,2,3
 301.5 659 301.5 659 273.75 645.5 c 128,-1,4
 246 632 246 632 235.5 618 c 1,5,6
 236.5 602.5 236.5 602.5 350 590.5 c 1,7,8
 393.5 595 393.5 595 430.75 604 c 128,-1,9
 468 613 468 613 477.5 620.5 c 1,10,11
 473.5 631 473.5 631 440 645.25 c 128,-1,12
 406.5 659.5 406.5 659.5 363.5 659.5 c 0,13,14
 361.5 659.5 361.5 659.5 357.25 659.25 c 128,-1,15
 353 659 353 659 351 659 c 2,16,-1
 347.5 659 l 1,0,1
349 709 m 2,17,18
 354.5 709.5 354.5 709.5 365 709.5 c 0,19,20
 405 709.5 405 709.5 441.5 700 c 128,-1,21
 478 690.5 478 690.5 504 670.5 c 128,-1,22
 530 650.5 530 650.5 532.5 624.5 c 1,23,24
 572 556 572 556 586.5 303 c 0,25,26
 588 285.5 588 285.5 588 268 c 0,27,28
 588 226 588 226 579.75 186.75 c 128,-1,29
 571.5 147.5 571.5 147.5 553.75 111.25 c 128,-1,30
 536 75 536 75 510 47.5 c 128,-1,31
 484 20 484 20 445.75 2 c 128,-1,32
 407.5 -16 407.5 -16 361.5 -19 c 1,33,-1
 358.5 -19 l 1,34,35
 280 -15.5 280 -15.5 221 27.25 c 128,-1,36
 162 70 162 70 132 138.75 c 128,-1,37
 102 207.5 102 207.5 102 292.5 c 0,38,39
 102 295 102 295 102.25 300.25 c 128,-1,40
 102.5 305.5 102.5 305.5 102.5 308 c 2,41,-1
 102.5 309.5 l 1,42,43
 119.5 455.5 119.5 455.5 179.5 618.5 c 1,44,-1
 179.5 622.5 l 2,45,46
 179.5 647 179.5 647 210 669 c 128,-1,47
 240.5 691 240.5 691 281 702 c 0,48,49
 307.5 709 307.5 709 338.5 709 c 2,50,-1
 349 709 l 2,17,18
297.5 225.5 m 128,-1,52
 297.5 244 297.5 244 312 257.75 c 128,-1,53
 326.5 271.5 326.5 271.5 347.5 271.5 c 128,-1,54
 368.5 271.5 368.5 271.5 383 258 c 128,-1,55
 397.5 244.5 397.5 244.5 397.5 225.5 c 128,-1,56
 397.5 206.5 397.5 206.5 383 193.25 c 128,-1,57
 368.5 180 368.5 180 347.5 180 c 128,-1,58
 326.5 180 326.5 180 312 193.5 c 128,-1,51
 297.5 207 297.5 207 297.5 225.5 c 128,-1,52
218 563 m 1,59,60
 171 422 171 422 157.5 305.5 c 0,61,62
 157.5 303 157.5 303 157.25 298 c 128,-1,63
 157 293 157 293 157 290.5 c 0,64,65
 157 177 157 177 213 106.25 c 128,-1,66
 269 35.5 269 35.5 359 31 c 1,67,68
 441 37.5 441 37.5 487 103.75 c 128,-1,69
 533 170 533 170 533 266 c 0,70,71
 533 283 533 283 531.5 300 c 0,72,73
 521 482 521 482 495.5 569 c 1,74,75
 457 550 457 550 353 540.5 c 1,76,-1
 346.5 540.5 l 2,77,78
 339 541.5 339 541.5 317.75 543.25 c 128,-1,79
 296.5 545 296.5 545 282.5 546.5 c 128,-1,80
 268.5 548 268.5 548 249.75 552.25 c 128,-1,81
 231 556.5 231 556.5 218 563 c 1,59,60
344.5 339 m 128,-1,83
 323.5 339 323.5 339 309.25 352.5 c 128,-1,84
 295 366 295 366 295 384.5 c 128,-1,85
 295 403 295 403 309.25 416.75 c 128,-1,86
 323.5 430.5 323.5 430.5 344.5 430.5 c 128,-1,87
 365.5 430.5 365.5 430.5 380 417 c 128,-1,88
 394.5 403.5 394.5 403.5 394.5 384.5 c 128,-1,89
 394.5 365.5 394.5 365.5 380 352.25 c 128,-1,82
 365.5 339 365.5 339 344.5 339 c 128,-1,83
EndSplineSet
EndChar

StartChar: u1C3B9
Encoding: 115641 115641 61
Width: 730
VWidth: 1024
Flags: W
LayerCount: 2
Fore
SplineSet
310.5 616 m 0,0,1
 310.5 630 310.5 630 318.25 642.5 c 128,-1,2
 326 655 326 655 339.5 662.25 c 128,-1,3
 353 669.5 353 669.5 369 669.5 c 128,-1,4
 385 669.5 385 669.5 398.5 662.25 c 128,-1,5
 412 655 412 655 419.5 642.5 c 128,-1,6
 427 630 427 630 427 616 c 0,7,8
 427 601 427 601 418.75 588.25 c 128,-1,9
 410.5 575.5 410.5 575.5 397 568.5 c 1,10,-1
 397 448 l 1,11,-1
 500.5 528 l 2,12,13
 511 535 511 535 523 533.25 c 128,-1,14
 535 531.5 535 531.5 541 523.5 c 2,15,-1
 632.5 405 l 1,16,-1
 610 390.5 l 1,17,-1
 587.5 376 l 1,18,-1
 513.5 472 l 1,19,-1
 412.5 394.5 l 1,20,-1
 569.5 274 l 1,21,-1
 551.5 255 l 1,22,-1
 533.5 236 l 1,23,-1
 397 341 l 1,24,-1
 397 49.5 l 1,25,26
 410.5 42.5 410.5 42.5 418.75 29.75 c 128,-1,27
 427 17 427 17 427 2 c 0,28,29
 427 -20 427 -20 410.25 -35.75 c 128,-1,30
 393.5 -51.5 393.5 -51.5 369 -51.5 c 0,31,32
 353 -51.5 353 -51.5 339.5 -44.25 c 128,-1,33
 326 -37 326 -37 318.25 -24.5 c 128,-1,34
 310.5 -12 310.5 -12 310.5 2 c 0,35,36
 310.5 17.5 310.5 17.5 319.25 30.25 c 128,-1,37
 328 43 328 43 342 50 c 1,38,-1
 342 340.5 l 1,39,-1
 206.5 236 l 1,40,-1
 188.5 255 l 1,41,-1
 170.5 274 l 1,42,-1
 327.5 394.5 l 1,43,-1
 226.5 472 l 1,44,-1
 152.5 376 l 1,45,-1
 130 390.5 l 1,46,-1
 107.5 405 l 1,47,-1
 199 523.5 l 2,48,49
 205 531.5 205 531.5 217 533.25 c 128,-1,50
 229 535 229 535 239.5 528 c 2,51,-1
 342 449 l 1,52,-1
 342 568 l 1,53,54
 328 575 328 575 319.25 587.75 c 128,-1,55
 310.5 600.5 310.5 600.5 310.5 616 c 0,0,1
371.5 614 m 2,56,57
 372 615 372 615 372 616 c 0,58,59
 372 619.5 372 619.5 368.75 619.5 c 128,-1,60
 365.5 619.5 365.5 619.5 365.5 616 c 0,61,62
 365.5 615.5 365.5 615.5 365.75 615 c 128,-1,63
 366 614.5 366 614.5 366 614 c 1,64,-1
 369.5 614 l 1,65,-1
 371.5 614 l 2,56,57
372 2 m 1,66,-1
 369.5 2 l 1,67,-1
 365.5 2 l 1,68,69
 366 -1.5 366 -1.5 369 -1.5 c 128,-1,70
 372 -1.5 372 -1.5 372 2 c 1,66,-1
EndSplineSet
EndChar

StartChar: u1C3BA
Encoding: 115642 115642 62
Width: 924
VWidth: 1024
Flags: W
LayerCount: 2
Fore
SplineSet
794.5 718.5 m 0,0,1
 806 718.5 806 718.5 814.25 710.75 c 128,-1,2
 822.5 703 822.5 703 822.5 693 c 2,3,-1
 822.5 307 l 2,4,5
 822.5 296 822.5 296 814.25 288.75 c 128,-1,6
 806 281.5 806 281.5 794.5 281.5 c 2,7,-1
 519 281.5 l 1,8,-1
 748.5 15.5 l 2,9,10
 754.5 9.5 754.5 9.5 754.5 0 c 0,11,12
 754.5 -10.5 754.5 -10.5 746.25 -18 c 128,-1,13
 738 -25.5 738 -25.5 727 -25.5 c 2,14,-1
 200.5 -25.5 l 2,15,16
 189 -25.5 189 -25.5 181 -18.25 c 128,-1,17
 173 -11 173 -11 173 0 c 0,18,19
 173 9.5 173 9.5 179 15.5 c 2,20,-1
 406.5 281.5 l 1,21,-1
 129 281.5 l 2,22,23
 117.5 281.5 117.5 281.5 109 288.75 c 128,-1,24
 100.5 296 100.5 296 100.5 307 c 2,25,-1
 100.5 693 l 2,26,27
 100.5 704 100.5 704 109 711.25 c 128,-1,28
 117.5 718.5 117.5 718.5 129 718.5 c 0,29,30
 142.5 718.5 142.5 718.5 150.5 708.5 c 2,31,-1
 463 347 l 1,32,-1
 772 708.5 l 2,33,34
 780.5 718.5 780.5 718.5 794.5 718.5 c 0,0,1
521 332.5 m 1,35,-1
 766 332.5 l 1,36,-1
 766 618.5 l 1,37,-1
 521 332.5 l 1,35,-1
403.5 332.5 m 1,38,-1
 156.5 619.5 l 1,39,-1
 156.5 332.5 l 1,40,-1
 403.5 332.5 l 1,38,-1
463 264 m 1,41,-1
 259 25.5 l 1,42,-1
 668.5 25.5 l 1,43,-1
 463 264 l 1,41,-1
EndSplineSet
EndChar

StartChar: u1C3BB
Encoding: 115643 115643 63
Width: 1130
VWidth: 1024
Flags: W
LayerCount: 2
Fore
SplineSet
551 347 m 1,0,-1
 820 651 l 2,1,2
 829.5 660.5 829.5 660.5 841.5 660.5 c 128,-1,3
 853.5 660.5 853.5 660.5 862 652 c 2,4,-1
 1021 492.5 l 2,5,6
 1028 485.5 1028 485.5 1028 475 c 0,7,8
 1028 463 1028 463 1019 455.5 c 0,9,10
 1011.5 449.5 1011.5 449.5 1000.5 449.5 c 2,11,-1
 713.5 449.5 l 1,12,-1
 585.5 305 l 1,13,-1
 828.5 15.5 l 2,14,15
 834.5 8 834.5 8 834.5 0 c 0,16,17
 834.5 -12.5 834.5 -12.5 823.5 -20.5 c 0,18,19
 815 -25.5 815 -25.5 806 -25.5 c 2,20,-1
 280.5 -25.5 l 2,21,22
 269 -25.5 269 -25.5 260.5 -18.25 c 128,-1,23
 252 -11 252 -11 252 0 c 0,24,25
 252 7 252 7 259 16.5 c 2,26,-1
 515 306 l 1,27,-1
 394 449.5 l 1,28,-1
 130 449.5 l 2,29,30
 118.5 449.5 118.5 449.5 110.5 456.75 c 128,-1,31
 102.5 464 102.5 464 102.5 475 c 0,32,33
 102.5 485.5 102.5 485.5 108.5 491.5 c 2,34,-1
 253 651 l 2,35,36
 261 660.5 261 660.5 274.5 660.5 c 0,37,38
 289.5 660.5 289.5 660.5 297 650 c 2,39,-1
 551 347 l 1,0,-1
351 500.5 m 1,40,-1
 273.5 594 l 1,41,-1
 189.5 500.5 l 1,42,-1
 351 500.5 l 1,40,-1
550 264 m 1,43,-1
 339 25.5 l 1,44,-1
 749.5 25.5 l 1,45,-1
 550 264 l 1,43,-1
759 500.5 m 1,46,-1
 937 500.5 l 1,47,-1
 843 595 l 1,48,-1
 759 500.5 l 1,46,-1
EndSplineSet
EndChar

StartChar: u1C3BC
Encoding: 115644 115644 64
Width: 865
VWidth: 1024
Flags: W
LayerCount: 2
Fore
SplineSet
168 307 m 1,0,-1
 432 39 l 1,1,-1
 697.5 307 l 1,2,-1
 424 579.5 l 1,3,-1
 168 307 l 1,0,-1
109.5 289.5 m 2,4,5
 102.5 298 102.5 298 102.5 307 c 0,6,7
 102.5 318 102.5 318 109.5 323.5 c 2,8,-1
 402.5 635 l 2,9,10
 409.5 644 409.5 644 425 644 c 0,11,12
 436.5 644 436.5 644 444.5 636 c 2,13,-1
 755.5 324.5 l 2,14,15
 763 317 763 317 763 307 c 128,-1,16
 763 297 763 297 755.5 289.5 c 2,17,-1
 452.5 -17.5 l 2,18,19
 445.5 -24.5 445.5 -24.5 431 -24.5 c 0,20,21
 419 -24.5 419 -24.5 410.5 -17.5 c 2,22,-1
 109.5 289.5 l 2,4,5
EndSplineSet
EndChar

StartChar: u1C3BD
Encoding: 115645 115645 65
Width: 754
VWidth: 1024
Flags: W
LayerCount: 2
Fore
SplineSet
109.5 228.5 m 2,0,1
 102.5 235.5 102.5 235.5 102.5 245 c 0,2,3
 102.5 254 102.5 254 109.5 262 c 2,4,-1
 333 493.5 l 1,5,-1
 171 641 l 1,6,-1
 210 676 l 1,7,-1
 369.5 531 l 1,8,-1
 504 673.5 l 1,9,-1
 546 640.5 l 1,10,-1
 407.5 494 l 1,11,-1
 644.5 262.5 l 2,12,13
 652 255 652 255 652 245 c 0,14,15
 652 235.5 652 235.5 645 228.5 c 2,16,-1
 397 -17 l 2,17,18
 389.5 -24.5 389.5 -24.5 376 -24.5 c 0,19,20
 363.5 -24.5 363.5 -24.5 356 -17 c 2,21,-1
 109.5 228.5 l 2,0,1
220.5 192.5 m 1,22,-1
 268 240.5 l 1,23,-1
 214 294.5 l 1,24,-1
 167 246 l 1,25,-1
 220.5 192.5 l 1,22,-1
428.5 400 m 1,26,-1
 370.5 456.5 l 1,27,-1
 323 407.5 l 1,28,-1
 379.5 351.5 l 1,29,-1
 428.5 400 l 1,26,-1
250.5 162.5 m 1,30,-1
 301 112.5 l 1,31,-1
 349 160 l 1,32,-1
 298.5 210.5 l 1,33,-1
 250.5 162.5 l 1,30,-1
459 370.5 m 1,34,-1
 409.5 321 l 1,35,-1
 460 271 l 1,36,-1
 510 320.5 l 1,37,-1
 459 370.5 l 1,34,-1
331 82 m 1,38,-1
 376.5 37 l 1,39,-1
 424.5 84.5 l 1,40,-1
 379 130 l 1,41,-1
 331 82 l 1,38,-1
540.5 291 m 1,42,-1
 490.5 241 l 1,43,-1
 536 195 l 1,44,-1
 587 245.5 l 1,45,-1
 540.5 291 l 1,42,-1
409 160 m 1,46,-1
 455 114.5 l 1,47,-1
 506 165 l 1,48,-1
 460 211 l 1,49,-1
 409 160 l 1,46,-1
379 190 m 1,50,-1
 430 241 l 1,51,-1
 379.5 291 l 1,52,-1
 328.5 240.5 l 1,53,-1
 379 190 l 1,50,-1
298.5 270.5 m 1,54,-1
 349.5 321 l 1,55,-1
 293.5 377 l 1,56,-1
 243.5 325 l 1,57,-1
 298.5 270.5 l 1,54,-1
EndSplineSet
EndChar

StartChar: u1C3BE
Encoding: 115646 115646 66
Width: 754
VWidth: 1024
Flags: W
LayerCount: 2
Fore
SplineSet
109.5 289 m 2,0,1
 102.5 296 102.5 296 102.5 305.5 c 0,2,3
 102.5 314.5 102.5 314.5 109.5 322.5 c 2,4,-1
 333 554 l 1,5,-1
 171 701.5 l 1,6,-1
 210 736.5 l 1,7,-1
 369.5 591.5 l 1,8,-1
 504 734 l 1,9,-1
 546 701 l 1,10,-1
 407.5 554.5 l 1,11,-1
 644.5 323 l 2,12,13
 652 315.5 652 315.5 652 305.5 c 0,14,15
 652 296 652 296 645 289 c 2,16,-1
 413.5 60 l 1,17,-1
 561.5 -86.5 l 1,18,-1
 520.5 -120 l 1,19,-1
 376.5 23 l 1,20,-1
 226.5 -122 l 1,21,-1
 186.5 -87.5 l 1,22,-1
 339 60 l 1,23,-1
 109.5 289 l 2,0,1
220 254 m 1,24,-1
 268.5 302 l 1,25,-1
 214.5 355.5 l 1,26,-1
 167 306.5 l 1,27,-1
 220 254 l 1,24,-1
428 461 m 1,28,-1
 370.5 517 l 1,29,-1
 323.5 468.5 l 1,30,-1
 379.5 413 l 1,31,-1
 428 461 l 1,28,-1
250 223.5 m 1,32,-1
 300.5 173.5 l 1,33,-1
 349 221.5 l 1,34,-1
 298.5 272 l 1,35,-1
 250 223.5 l 1,32,-1
458.5 431.5 m 1,36,-1
 409.5 383 l 1,37,-1
 460 332.5 l 1,38,-1
 509.5 381.5 l 1,39,-1
 458.5 431.5 l 1,36,-1
330.5 143.5 m 1,40,-1
 376.5 97.5 l 1,41,-1
 425 145.5 l 1,42,-1
 379 191.5 l 1,43,-1
 330.5 143.5 l 1,40,-1
540 351.5 m 1,44,-1
 490.5 302.5 l 1,45,-1
 536.5 256 l 1,46,-1
 587 306 l 1,47,-1
 540 351.5 l 1,44,-1
409 221.5 m 1,48,-1
 455.5 175.5 l 1,49,-1
 506.5 226 l 1,50,-1
 460 272 l 1,51,-1
 409 221.5 l 1,48,-1
379 251.5 m 1,52,-1
 430 302.5 l 1,53,-1
 379.5 352.5 l 1,54,-1
 328.5 302 l 1,55,-1
 379 251.5 l 1,52,-1
298.5 332 m 1,56,-1
 349.5 383 l 1,57,-1
 294 438 l 1,58,-1
 244 386.5 l 1,59,-1
 298.5 332 l 1,56,-1
EndSplineSet
EndChar

StartChar: u1C3BF
Encoding: 115647 115647 67
Width: 738
VWidth: 1024
Flags: W
LayerCount: 2
Fore
SplineSet
368.5 619.5 m 1,0,-1
 396 619.5 l 1,1,-1
 395.5 516.5 l 1,2,-1
 517 635 l 1,3,-1
 557 600.5 l 1,4,-1
 412 459 l 1,5,-1
 629 248.5 l 2,6,7
 636.5 241 636.5 241 636.5 231.5 c 128,-1,8
 636.5 222 636.5 222 629 214.5 c 2,9,-1
 388 -16 l 2,10,11
 379.5 -23.5 379.5 -23.5 367 -23.5 c 0,12,13
 355.5 -23.5 355.5 -23.5 348 -16 c 2,14,-1
 110 214.5 l 2,15,16
 103 220.5 103 220.5 103 231.5 c 0,17,18
 103 242 103 242 110 248.5 c 2,19,-1
 323 458 l 1,20,-1
 167.5 600 l 1,21,-1
 206.5 635.5 l 1,22,-1
 340.5 513 l 1,23,-1
 341 619.5 l 1,24,-1
 368.5 619.5 l 1,0,-1
367.5 428 m 1,25,-1
 335.5 396.5 l 1,26,-1
 335.5 341 l 1,27,-1
 402.5 341 l 1,28,-1
 402.5 395.5 l 1,29,-1
 369 428 l 1,30,-1
 367.5 428 l 1,25,-1
282.5 120.5 m 1,31,-1
 290.5 112.5 l 1,32,-1
 290.5 120.5 l 1,33,-1
 282.5 120.5 l 1,31,-1
454.5 120 m 1,34,-1
 447.5 120 l 1,35,-1
 447.5 113.5 l 1,36,-1
 454.5 120 l 1,34,-1
241 160.5 m 1,37,-1
 290.5 160.5 l 1,38,-1
 290.5 210 l 1,39,-1
 190 209.5 l 1,40,-1
 241 160.5 l 1,37,-1
496.5 160 m 1,41,-1
 549.5 211 l 1,42,-1
 447.5 210.5 l 1,43,-1
 447.5 160 l 1,44,-1
 496.5 160 l 1,41,-1
551.5 251 m 1,45,-1
 499.5 301 l 1,46,-1
 447.5 301 l 1,47,-1
 447.5 250.5 l 1,48,-1
 551.5 251 l 1,45,-1
186 249.5 m 1,49,-1
 290.5 250 l 1,50,-1
 290.5 301 l 1,51,-1
 238 301 l 1,52,-1
 186 249.5 l 1,49,-1
458.5 341 m 1,53,-1
 447.5 351.5 l 1,54,-1
 447.5 341 l 1,55,-1
 458.5 341 l 1,53,-1
279 341 m 1,56,-1
 290.5 341 l 1,57,-1
 290.5 352.5 l 1,58,-1
 279 341 l 1,56,-1
335.5 301 m 1,59,-1
 335.5 250 l 1,60,-1
 402.5 250.5 l 1,61,-1
 402.5 301 l 1,62,-1
 335.5 301 l 1,59,-1
335.5 210 m 1,63,-1
 335.5 160.5 l 1,64,-1
 402.5 160 l 1,65,-1
 402.5 210.5 l 1,66,-1
 335.5 210 l 1,63,-1
335.5 120.5 m 1,67,-1
 335.5 69 l 1,68,-1
 368 37.5 l 1,69,-1
 402.5 70.5 l 1,70,-1
 402.5 120 l 1,71,-1
 335.5 120.5 l 1,67,-1
EndSplineSet
EndChar

StartChar: u1C3C0
Encoding: 115648 115648 68
Width: 754
VWidth: 1024
Flags: W
LayerCount: 2
Fore
SplineSet
109.5 289 m 2,0,1
 102.5 296 102.5 296 102.5 305.5 c 0,2,3
 102.5 314.5 102.5 314.5 109.5 322.5 c 2,4,-1
 333 554 l 1,5,-1
 209.5 666.5 l 1,6,7
 200.5 663 200.5 663 188 663 c 0,8,9
 164 663 164 663 147 678.75 c 128,-1,10
 130 694.5 130 694.5 130 716.5 c 0,11,12
 130 739 130 739 146.75 754.75 c 128,-1,13
 163.5 770.5 163.5 770.5 188 770.5 c 128,-1,14
 212.5 770.5 212.5 770.5 229.25 754.5 c 128,-1,15
 246 738.5 246 738.5 246 716.5 c 0,16,17
 246 708.5 246 708.5 245 705 c 1,18,-1
 369.5 591.5 l 1,19,-1
 467 694.5 l 1,20,21
 462 704.5 462 704.5 462 717 c 0,22,23
 462 739.5 462 739.5 478.75 755.25 c 128,-1,24
 495.5 771 495.5 771 520 771 c 128,-1,25
 544.5 771 544.5 771 561.25 755 c 128,-1,26
 578 739 578 739 578 717 c 128,-1,27
 578 695 578 695 561 679.25 c 128,-1,28
 544 663.5 544 663.5 520 663.5 c 0,29,30
 513.5 663.5 513.5 663.5 510.5 664 c 1,31,-1
 407.5 554.5 l 1,32,-1
 644.5 323 l 2,33,34
 652 315.5 652 315.5 652 305.5 c 0,35,36
 652 296 652 296 645 289 c 2,37,-1
 413.5 60 l 1,38,-1
 561.5 -86.5 l 1,39,-1
 520.5 -120 l 1,40,-1
 376.5 23 l 1,41,-1
 226.5 -122 l 1,42,-1
 186.5 -87.5 l 1,43,-1
 339.5 60.5 l 1,44,-1
 109.5 289 l 2,0,1
522.5 719.5 m 1,45,46
 521.5 720.5 521.5 720.5 521 720.5 c 1,47,-1
 522.5 719.5 l 1,45,46
190.5 719 m 2,48,49
 190 720.5 190 720.5 188 720.5 c 0,50,51
 185 720.5 185 720.5 185 716.5 c 0,52,53
 185 715 185 715 185.5 714.5 c 2,54,-1
 190.5 719 l 2,48,49
220 253.5 m 1,55,-1
 268 302 l 1,56,-1
 214.5 355.5 l 1,57,-1
 167 306.5 l 1,58,-1
 220 253.5 l 1,55,-1
428 461 m 1,59,-1
 370.5 517 l 1,60,-1
 323.5 468.5 l 1,61,-1
 379.5 413 l 1,62,-1
 428 461 l 1,59,-1
250 223.5 m 1,63,-1
 300.5 173.5 l 1,64,-1
 349 221.5 l 1,65,-1
 298.5 272 l 1,66,-1
 250 223.5 l 1,63,-1
458.5 431.5 m 1,67,-1
 409.5 382.5 l 1,68,-1
 460 332.5 l 1,69,-1
 509.5 381.5 l 1,70,-1
 458.5 431.5 l 1,67,-1
330.5 143 m 1,71,-1
 376.5 97.5 l 1,72,-1
 425 145.5 l 1,73,-1
 379 191.5 l 1,74,-1
 330.5 143 l 1,71,-1
540 352 m 1,75,-1
 490.5 302.5 l 1,76,-1
 537 256 l 1,77,-1
 587 306 l 1,78,-1
 540 352 l 1,75,-1
409 221.5 m 1,79,-1
 455.5 175.5 l 1,80,-1
 506.5 226 l 1,81,-1
 460 272.5 l 1,82,-1
 409 221.5 l 1,79,-1
379 251.5 m 1,83,-1
 430 302.5 l 1,84,-1
 379.5 352.5 l 1,85,-1
 328.5 302 l 1,86,-1
 379 251.5 l 1,83,-1
298.5 332 m 1,87,-1
 349.5 382.5 l 1,88,-1
 294 438 l 1,89,-1
 244 386 l 1,90,-1
 298.5 332 l 1,87,-1
EndSplineSet
EndChar

StartChar: u1C3C1
Encoding: 115649 115649 69
Width: 847
VWidth: 1024
Flags: W
LayerCount: 2
Fore
SplineSet
102.5 290.5 m 2,0,1
 95.5 297.5 95.5 297.5 95.5 306.75 c 128,-1,2
 95.5 316 95.5 316 102 323 c 2,3,-1
 380 618.5 l 1,4,-1
 269.5 733 l 1,5,-1
 217 617 l 1,6,-1
 191.5 626.5 l 1,7,-1
 166 636 l 1,8,-1
 235.5 789.5 l 2,9,10
 240 799.5 240 799.5 251.5 803.25 c 128,-1,11
 263 807 263 807 273.5 802.5 c 0,12,13
 275.5 801 275.5 801 277.75 799.5 c 128,-1,14
 280 798 280 798 281.5 796.5 c 2,15,-1
 437 635 l 1,16,-1
 437 634.5 l 1,17,-1
 747.5 324 l 2,18,19
 754 317 754 317 754.25 307.5 c 128,-1,20
 754.5 298 754.5 298 747.5 290.5 c 2,21,-1
 444.5 -16.5 l 2,22,23
 437 -24.5 437 -24.5 424.75 -24.75 c 128,-1,24
 412.5 -25 412.5 -25 403.5 -16.5 c 2,25,-1
 102.5 290.5 l 2,0,1
423 173.5 m 1,26,-1
 357 106 l 1,27,-1
 424 37.5 l 1,28,-1
 490.5 104.5 l 1,29,-1
 423 173.5 l 1,26,-1
393 204 m 1,30,-1
 324 275 l 1,31,-1
 258 207 l 1,32,-1
 327 136.5 l 1,33,-1
 393 204 l 1,30,-1
294.5 305.5 m 1,34,-1
 225 377 l 1,35,-1
 159.5 307.5 l 1,36,-1
 228 237.5 l 1,37,-1
 294.5 305.5 l 1,34,-1
452.5 204 m 1,38,-1
 520 135 l 1,39,-1
 590 206 l 1,40,-1
 522 275.5 l 1,41,-1
 452.5 204 l 1,38,-1
423 235 m 1,42,-1
 492.5 306 l 1,43,-1
 423.5 377 l 1,44,-1
 354 305.5 l 1,45,-1
 423 235 l 1,42,-1
324 336 m 1,46,-1
 393.5 407.5 l 1,47,-1
 322.5 480.5 l 1,48,-1
 254 408 l 1,49,-1
 324 336 l 1,46,-1
552 306 m 1,50,-1
 620 236 l 1,51,-1
 690 307 l 1,52,-1
 620.5 376.5 l 1,53,-1
 552 306 l 1,50,-1
522 336.5 m 1,54,-1
 590.5 406.5 l 1,55,-1
 520.5 476.5 l 1,56,-1
 453 407.5 l 1,57,-1
 522 336.5 l 1,54,-1
423.5 438 m 1,58,-1
 490.5 507 l 1,59,-1
 416.5 580.5 l 1,60,-1
 351.5 511.5 l 1,61,-1
 423.5 438 l 1,58,-1
EndSplineSet
EndChar

StartChar: u1C3C2
Encoding: 115650 115650 70
Width: 878
VWidth: 1024
Flags: W
LayerCount: 2
Fore
SplineSet
109.5 290 m 2,0,1
 102.5 297 102.5 297 102.5 307 c 0,2,3
 102.5 316.5 102.5 316.5 109.5 323.5 c 2,4,-1
 416.5 635 l 2,5,6
 424.5 643 424.5 643 438 643 c 0,7,8
 450 643 450 643 457.5 635.5 c 2,9,-1
 768.5 324 l 2,10,11
 775.5 317 775.5 317 775.5 307 c 128,-1,12
 775.5 297 775.5 297 768 290 c 2,13,-1
 457.5 -17 l 2,14,15
 450 -24.5 450 -24.5 437 -24.5 c 0,16,17
 424.5 -24.5 424.5 -24.5 417 -17 c 2,18,-1
 109.5 290 l 2,0,1
465 64 m 1,19,-1
 711 307 l 1,20,-1
 465 553.5 l 1,21,-1
 465 64 l 1,19,-1
410 64.5 m 1,22,-1
 410 553.5 l 1,23,-1
 167 307 l 1,24,-1
 410 64.5 l 1,22,-1
EndSplineSet
EndChar

StartChar: u1C3C3
Encoding: 115651 115651 71
Width: 877
VWidth: 1024
Flags: W
LayerCount: 2
Fore
SplineSet
109.5 290 m 2,0,1
 102.5 297 102.5 297 102.5 307 c 0,2,3
 102.5 316.5 102.5 316.5 109.5 323.5 c 2,4,-1
 416.5 635 l 2,5,6
 423.5 643 423.5 643 438.5 643 c 0,7,8
 450 643 450 643 457.5 635.5 c 2,9,-1
 768.5 324 l 2,10,11
 775 317.5 775 317.5 775 307.5 c 0,12,13
 775 297 775 297 768 290 c 2,14,-1
 457.5 -17 l 2,15,16
 450 -24.5 450 -24.5 437 -24.5 c 0,17,18
 424.5 -24.5 424.5 -24.5 417 -17 c 2,19,-1
 109.5 290 l 2,0,1
192 282 m 1,20,-1
 437.5 37 l 1,21,-1
 685.5 282 l 1,22,-1
 192 282 l 1,20,-1
686 332 m 1,23,-1
 437 581 l 1,24,-1
 191.5 332 l 1,25,-1
 686 332 l 1,23,-1
EndSplineSet
EndChar

StartChar: u1C3C4
Encoding: 115652 115652 72
Width: 915
VWidth: 1024
Flags: W
LayerCount: 2
Fore
SplineSet
109.5 290 m 2,0,1
 102.5 297 102.5 297 102.5 307 c 0,2,3
 102.5 316.5 102.5 316.5 109.5 323.5 c 2,4,-1
 416.5 635 l 2,5,6
 423.5 643 423.5 643 438.5 643 c 0,7,8
 450 643 450 643 457.5 635.5 c 2,9,-1
 726.5 365.5 l 1,10,11
 739 370 739 370 749.5 370 c 0,12,13
 777 370 777 370 794.75 350.75 c 128,-1,14
 812.5 331.5 812.5 331.5 812.5 307 c 128,-1,15
 812.5 282.5 812.5 282.5 794.75 263.25 c 128,-1,16
 777 244 777 244 749.5 244 c 0,17,18
 736.5 244 736.5 244 726 248.5 c 1,19,-1
 495.5 20.5 l 1,20,21
 499 11.5 499 11.5 499 0 c 0,22,23
 499 -24.5 499 -24.5 481.25 -43.75 c 128,-1,24
 463.5 -63 463.5 -63 436 -63 c 128,-1,25
 408.5 -63 408.5 -63 390.75 -43.75 c 128,-1,26
 373 -24.5 373 -24.5 373 0 c 0,27,28
 373 11 373 11 377.5 22.5 c 1,29,-1
 109.5 290 l 2,0,1
459.5 58.5 m 1,30,-1
 685.5 282 l 1,31,-1
 192 282 l 1,32,-1
 415 59.5 l 1,33,34
 426.5 63 426.5 63 436 63 c 0,35,36
 447 63 447 63 459.5 58.5 c 1,30,-1
686 332 m 1,37,-1
 437 581 l 1,38,-1
 191.5 332 l 1,39,-1
 686 332 l 1,37,-1
EndSplineSet
EndChar

StartChar: u1C3C5
Encoding: 115653 115653 73
Width: 804
VWidth: 1024
Flags: W
LayerCount: 2
Fore
SplineSet
549.5 0 m 128,-1,1
 546 -2.5 546 -2.5 539.25 -8.25 c 128,-1,2
 532.5 -14 532.5 -14 529 -17 c 1,3,-1
 401 111 l 1,4,-1
 277.5 -13.5 l 1,5,-1
 236.5 19.5 l 1,6,-1
 364 148.5 l 1,7,-1
 186 323 l 1,8,9
 174.5 319.5 174.5 319.5 165 319.5 c 0,10,11
 137.5 319.5 137.5 319.5 120 338.75 c 128,-1,12
 102.5 358 102.5 358 102.5 382.5 c 128,-1,13
 102.5 407 102.5 407 120 426.25 c 128,-1,14
 137.5 445.5 137.5 445.5 165 445.5 c 0,15,16
 177.5 445.5 177.5 445.5 186.5 442 c 1,17,-1
 381 630 l 2,18,19
 389 637.5 389 637.5 401 637.5 c 0,20,21
 413.5 637.5 413.5 637.5 421 630 c 2,22,-1
 616.5 443 l 1,23,24
 627.5 447 627.5 447 639 447 c 0,25,26
 666.5 447 666.5 447 684.25 427.75 c 128,-1,27
 702 408.5 702 408.5 702 384 c 128,-1,28
 702 359.5 702 359.5 684.25 340.25 c 128,-1,29
 666.5 321 666.5 321 639 321 c 0,30,31
 628.5 321 628.5 321 619.5 324 c 1,32,-1
 438.5 148.5 l 1,33,-1
 570 17 l 1,34,35
 566.5 14 566.5 14 559.75 8.25 c 128,-1,0
 553 2.5 553 2.5 549.5 0 c 128,-1,1
226 357.5 m 1,36,-1
 401 185 l 1,37,-1
 578.5 357.5 l 1,38,-1
 226 357.5 l 1,36,-1
578 407.5 m 1,39,-1
 401 576.5 l 1,40,-1
 226.5 407.5 l 1,41,-1
 578 407.5 l 1,39,-1
EndSplineSet
EndChar

StartChar: u1C3C6
Encoding: 115654 115654 74
Width: 938
VWidth: 1024
Flags: W
LayerCount: 2
Fore
SplineSet
623.5 0 m 128,-1,1
 620 -2.5 620 -2.5 613.25 -8.25 c 128,-1,2
 606.5 -14 606.5 -14 603 -17 c 1,3,-1
 475 111 l 1,4,-1
 351.5 -13.5 l 1,5,-1
 310.5 19.5 l 1,6,-1
 438 148.5 l 1,7,-1
 225 357.5 l 1,8,-1
 102.5 357.5 l 1,9,-1
 102.5 407.5 l 1,10,-1
 225 407.5 l 1,11,-1
 455 630 l 2,12,13
 463 637.5 463 637.5 475 637.5 c 0,14,15
 487.5 637.5 487.5 637.5 495 630 c 2,16,-1
 728 407.5 l 1,17,-1
 835.5 407.5 l 1,18,-1
 835.5 357.5 l 1,19,-1
 728 357.5 l 1,20,-1
 512.5 148.5 l 1,21,-1
 644 17 l 1,22,23
 640.5 14 640.5 14 633.75 8.25 c 128,-1,0
 627 2.5 627 2.5 623.5 0 c 128,-1,1
300 357.5 m 1,24,-1
 475 185 l 1,25,-1
 652.5 357.5 l 1,26,-1
 300 357.5 l 1,24,-1
652 407.5 m 1,27,-1
 475 576.5 l 1,28,-1
 300.5 407.5 l 1,29,-1
 652 407.5 l 1,27,-1
EndSplineSet
EndChar

StartChar: u1C3C7
Encoding: 115655 115655 75
Width: 915
VWidth: 1024
Flags: W
LayerCount: 2
Fore
SplineSet
768.5 290 m 2,0,1
 775.5 297 775.5 297 775.5 307 c 0,2,3
 775.5 316.5 775.5 316.5 768.5 323.5 c 2,4,-1
 461.5 635 l 2,5,6
 454.5 643 454.5 643 439.5 643 c 0,7,8
 428 643 428 643 420.5 635.5 c 2,9,-1
 151.5 365.5 l 1,10,11
 139 370 139 370 128.5 370 c 0,12,13
 101 370 101 370 83.25 350.75 c 128,-1,14
 65.5 331.5 65.5 331.5 65.5 307 c 128,-1,15
 65.5 282.5 65.5 282.5 83.25 263.25 c 128,-1,16
 101 244 101 244 128.5 244 c 0,17,18
 141.5 244 141.5 244 152 248.5 c 1,19,-1
 382.5 20.5 l 1,20,21
 379 11.5 379 11.5 379 0 c 0,22,23
 379 -24.5 379 -24.5 396.75 -43.75 c 128,-1,24
 414.5 -63 414.5 -63 442 -63 c 128,-1,25
 469.5 -63 469.5 -63 487.25 -43.75 c 128,-1,26
 505 -24.5 505 -24.5 505 0 c 0,27,28
 505 11 505 11 500.5 22.5 c 1,29,-1
 768.5 290 l 2,0,1
418.5 58.5 m 1,30,-1
 192.5 282 l 1,31,-1
 686 282 l 1,32,-1
 463 59.5 l 1,33,34
 451.5 63 451.5 63 442 63 c 0,35,36
 431 63 431 63 418.5 58.5 c 1,30,-1
192 332 m 1,37,-1
 441 581 l 1,38,-1
 686.5 332 l 1,39,-1
 192 332 l 1,37,-1
EndSplineSet
EndChar

StartChar: u1C3C8
Encoding: 115656 115656 76
Width: 793
VWidth: 1024
Flags: W
LayerCount: 2
Fore
SplineSet
368.5 706 m 1,0,-1
 423.5 706 l 1,1,-1
 423 549 l 1,2,-1
 619.5 358.5 l 1,3,4
 625.5 360 625.5 360 632.5 360 c 0,5,6
 657 360 657 360 673.75 344 c 128,-1,7
 690.5 328 690.5 328 690.5 306 c 128,-1,8
 690.5 284 690.5 284 673.75 268.25 c 128,-1,9
 657 252.5 657 252.5 632.5 252.5 c 0,10,11
 624 252.5 624 252.5 620 253.5 c 1,12,-1
 425.5 67.5 l 1,13,-1
 426 -90 l 1,14,-1
 371 -90 l 1,15,-1
 370.5 63 l 1,16,-1
 172.5 254.5 l 1,17,18
 164.5 253.5 164.5 253.5 160.5 253.5 c 0,19,20
 136 253.5 136 253.5 119.25 269.25 c 128,-1,21
 102.5 285 102.5 285 102.5 307 c 128,-1,22
 102.5 329 102.5 329 119.25 345 c 128,-1,23
 136 361 136 361 160.5 361 c 0,24,25
 168 361 168 361 175 359.5 c 1,26,-1
 368 549 l 1,27,-1
 368.5 706 l 1,0,-1
221 280.5 m 1,28,-1
 395.5 111.5 l 1,29,-1
 572.5 280.5 l 1,30,-1
 221 280.5 l 1,28,-1
573 330.5 m 1,31,-1
 395.5 503 l 1,32,-1
 220.5 330.5 l 1,33,-1
 573 330.5 l 1,31,-1
EndSplineSet
EndChar

StartChar: u1C3C9
Encoding: 115657 115657 77
Width: 738
VWidth: 1024
Flags: W
LayerCount: 2
Fore
SplineSet
510.5 742 m 1,0,-1
 510.5 692 l 1,1,-1
 207.5 691.5 l 1,2,-1
 207.5 741.5 l 1,3,-1
 510.5 742 l 1,0,-1
222 73.5 m 1,4,-1
 222 123.5 l 1,5,-1
 514.5 123.5 l 1,6,-1
 514.5 73.5 l 1,7,-1
 222 73.5 l 1,4,-1
167.5 406 m 1,8,-1
 368 212 l 1,9,-1
 571 406 l 1,10,-1
 368 603.5 l 1,11,-1
 167.5 406 l 1,8,-1
110 389 m 2,12,13
 103 395 103 395 103 406 c 0,14,15
 103 416.5 103 416.5 110 423 c 2,16,-1
 348 657 l 2,17,18
 355.5 664.5 355.5 664.5 368.5 664.5 c 0,19,20
 380 664.5 380 664.5 388 657 c 2,21,-1
 629 423 l 2,22,23
 636.5 415.5 636.5 415.5 636.5 406 c 128,-1,24
 636.5 396.5 636.5 396.5 629 389 c 2,25,-1
 388 158.5 l 2,26,27
 379.5 151 379.5 151 367 151 c 0,28,29
 355.5 151 355.5 151 348 158.5 c 2,30,-1
 110 389 l 2,12,13
588.5 25.5 m 1,31,-1
 588.5 -24.5 l 1,32,-1
 153.5 -24.5 l 1,33,-1
 153.5 25.5 l 1,34,-1
 588.5 25.5 l 1,31,-1
322 411 m 128,-1,36
 322 428.5 322 428.5 335.25 442 c 128,-1,37
 348.5 455.5 348.5 455.5 369 455.5 c 128,-1,38
 389.5 455.5 389.5 455.5 402.75 442 c 128,-1,39
 416 428.5 416 428.5 416 411 c 128,-1,40
 416 393.5 416 393.5 402.75 380 c 128,-1,41
 389.5 366.5 389.5 366.5 369 366.5 c 128,-1,42
 348.5 366.5 348.5 366.5 335.25 380 c 128,-1,35
 322 393.5 322 393.5 322 411 c 128,-1,36
EndSplineSet
EndChar

StartChar: u1C3CA
Encoding: 115658 115658 78
Width: 864
VWidth: 1024
Flags: W
LayerCount: 2
Fore
SplineSet
109.5 290.5 m 2,0,1
 102.5 297.5 102.5 297.5 102.5 307.5 c 0,2,3
 102.5 317 102.5 317 109 323.5 c 2,4,-1
 402 634.5 l 2,5,6
 409 642.5 409 642.5 423.5 642.5 c 0,7,8
 435.5 642.5 435.5 642.5 443 635 c 2,9,-1
 754.5 324 l 2,10,11
 761.5 317 761.5 317 761.5 307 c 0,12,13
 761.5 297.5 761.5 297.5 754.5 290.5 c 2,14,-1
 451.5 -17 l 2,15,16
 444 -24.5 444 -24.5 430.5 -24.5 c 0,17,18
 418 -24.5 418 -24.5 410.5 -16.5 c 2,19,-1
 109.5 290.5 l 2,0,1
672 332 m 1,20,-1
 450.5 553.5 l 1,21,-1
 450.5 332 l 1,22,-1
 672 332 l 1,20,-1
189.5 332 m 1,23,-1
 395.5 332 l 1,24,-1
 395.5 550.5 l 1,25,-1
 189.5 332 l 1,23,-1
191.5 282 m 1,26,-1
 236.5 236 l 1,27,-1
 626 235 l 1,28,29
 634 242.5 634 242.5 649.5 258.25 c 128,-1,30
 665 274 665 274 672.5 282 c 1,31,-1
 191.5 282 l 1,26,-1
286 185.5 m 1,32,-1
 431 37.5 l 1,33,-1
 576.5 185 l 1,34,-1
 286 185.5 l 1,32,-1
EndSplineSet
EndChar

StartChar: u1C3CB
Encoding: 115659 115659 79
Width: 877
VWidth: 1024
Flags: W
LayerCount: 2
Fore
SplineSet
109.5 290 m 2,0,1
 102.5 297 102.5 297 102.5 307 c 0,2,3
 102.5 316.5 102.5 316.5 109.5 323.5 c 2,4,-1
 416.5 635 l 2,5,6
 423.5 643 423.5 643 438.5 643 c 0,7,8
 450 643 450 643 457.5 635.5 c 2,9,-1
 768.5 324 l 2,10,11
 775 317.5 775 317.5 775 307.5 c 0,12,13
 775 297 775 297 768 290 c 2,14,-1
 457.5 -17 l 2,15,16
 450 -24.5 450 -24.5 437 -24.5 c 0,17,18
 424.5 -24.5 424.5 -24.5 417 -17 c 2,19,-1
 109.5 290 l 2,0,1
688 330 m 1,20,-1
 189.5 330 l 1,21,-1
 167 307 l 1,22,-1
 188 286 l 1,23,24
 188 286 188 286 689.5 286 c 1,25,-1
 711 307 l 1,26,-1
 688 330 l 1,20,-1
638 380 m 1,27,-1
 556 462.5 l 1,28,-1
 485 380 l 1,29,30
 485 380 485 380 638 380 c 1,27,-1
238.5 380 m 1,31,-1
 394 380 l 1,32,-1
 318.5 461 l 1,33,-1
 238.5 380 l 1,31,-1
238 236 m 1,34,-1
 437.5 37 l 1,35,-1
 639 236 l 1,36,-1
 238 236 l 1,34,-1
518 500 m 1,37,-1
 437 581 l 1,38,-1
 355.5 498.5 l 1,39,-1
 439.5 408 l 1,40,-1
 518 500 l 1,37,-1
EndSplineSet
EndChar

StartChar: u1C3CC
Encoding: 115660 115660 80
Width: 739
VWidth: 1024
Flags: W
LayerCount: 2
Fore
SplineSet
395 1.5 m 1,0,-1
 340 1.5 l 1,1,-1
 340.5 242.5 l 1,2,-1
 110 469.5 l 2,3,4
 103 476 103 476 103 486.5 c 0,5,6
 103 497.5 103 497.5 110 503.5 c 2,7,-1
 348 734 l 2,8,9
 356 741.5 356 741.5 368 741.5 c 0,10,11
 380.5 741.5 380.5 741.5 388 734 c 2,12,-1
 629 503.5 l 2,13,14
 636.5 496 636.5 496 636.5 486.5 c 128,-1,15
 636.5 477 636.5 477 629 469.5 c 2,16,-1
 395.5 242.5 l 1,17,18
 395.5 202.5 395.5 202.5 395.25 122.25 c 128,-1,19
 395 42 395 42 395 1.5 c 1,0,-1
167.5 486.5 m 1,20,-1
 368 289 l 1,21,-1
 571 486.5 l 1,22,-1
 368 680.5 l 1,23,-1
 167.5 486.5 l 1,20,-1
EndSplineSet
EndChar

StartChar: u1C3CD
Encoding: 115661 115661 81
Width: 739
VWidth: 1024
Flags: W
LayerCount: 2
Fore
SplineSet
110 503.5 m 2,0,-1
 348 734 l 2,1,2
 356 741.5 356 741.5 368 741.5 c 0,3,4
 380.5 741.5 380.5 741.5 388 734 c 2,5,-1
 629 503.5 l 2,6,7
 636.5 496 636.5 496 636.5 486.5 c 128,-1,8
 636.5 477 636.5 477 629 469.5 c 2,9,-1
 395.5 242.5 l 1,10,-1
 395 59.5 l 1,11,12
 412 52 412 52 421.75 36 c 128,-1,13
 431.5 20 431.5 20 431.5 2 c 0,14,15
 431.5 -23 431.5 -23 413.75 -42 c 128,-1,16
 396 -61 396 -61 368.5 -61 c 128,-1,17
 341 -61 341 -61 323.25 -42 c 128,-1,18
 305.5 -23 305.5 -23 305.5 2 c 0,19,20
 305.5 19 305.5 19 314.75 34.75 c 128,-1,21
 324 50.5 324 50.5 340 58.5 c 1,22,-1
 340.5 242.5 l 1,23,-1
 110 469.5 l 2,24,25
 103 476 103 476 103 486.5 c 0,26,27
 103 497.5 103 497.5 110 503.5 c 2,0,-1
167.5 486.5 m 1,28,-1
 368 289 l 1,29,-1
 571 486.5 l 1,30,-1
 368 680.5 l 1,31,-1
 167.5 486.5 l 1,28,-1
EndSplineSet
EndChar

StartChar: u1C3CE
Encoding: 115662 115662 82
Width: 739
VWidth: 1024
Flags: W
LayerCount: 2
Fore
SplineSet
344 742 m 1,0,-1
 400 742 l 1,1,-1
 399 500 l 1,2,3
 400 500 400 500 630 274 c 2,4,5
 636 268 636 268 636 256 c 0,6,7
 636 246 636 246 630 240 c 2,8,-1
 392 9 l 2,9,10
 384 2 384 2 372 2 c 128,-1,11
 360 2 360 2 352 9 c 2,12,13
 352 10 352 10 110 240 c 2,14,15
 102 248 102 248 102.5 257 c 0,16,17
 102 266 102 266 110 274 c 2,18,-1
 344 500 l 1,19,20
 344 540 344 540 344 621 c 128,-1,21
 344 702 344 702 344 742 c 1,0,-1
572 256 m 1,22,-1
 372 454 l 1,23,-1
 168 256 l 1,24,-1
 372 62 l 1,25,-1
 572 256 l 1,22,-1
EndSplineSet
EndChar

StartChar: u1C3CF
Encoding: 115663 115663 83
Width: 877
VWidth: 1024
Flags: W
LayerCount: 2
Fore
SplineSet
109.5 290 m 2,0,1
 102.5 297 102.5 297 102.5 307 c 0,2,3
 102.5 316.5 102.5 316.5 109.5 323.5 c 2,4,-1
 416.5 635 l 2,5,6
 423.5 643 423.5 643 438.5 643 c 0,7,8
 450 643 450 643 457.5 635.5 c 2,9,-1
 768.5 324 l 2,10,11
 775 317.5 775 317.5 775 307.5 c 0,12,13
 775 297 775 297 768 290 c 2,14,-1
 457.5 -17 l 2,15,16
 450 -24.5 450 -24.5 437 -24.5 c 0,17,18
 424.5 -24.5 424.5 -24.5 417 -17 c 2,19,-1
 109.5 290 l 2,0,1
559 157 m 1,20,-1
 441 271 l 1,21,-1
 321.5 153 l 1,22,-1
 437.5 37 l 1,23,-1
 559 157 l 1,20,-1
282.5 424.5 m 1,24,-1
 167 307 l 1,25,-1
 284.5 190 l 1,26,-1
 403.5 307.5 l 1,27,-1
 282.5 424.5 l 1,24,-1
596 194 m 1,28,-1
 711 307 l 1,29,-1
 595 423 l 1,30,-1
 478.5 308 l 1,31,-1
 596 194 l 1,28,-1
319.5 462 m 1,32,-1
 440.5 344.5 l 1,33,-1
 558 460 l 1,34,-1
 437 581 l 1,35,-1
 319.5 462 l 1,32,-1
EndSplineSet
EndChar

StartChar: u1C3D0
Encoding: 115664 115664 84
Width: 738
VWidth: 1024
Flags: W
LayerCount: 2
Fore
SplineSet
153 640 m 1,0,-1
 193 674 l 1,1,-1
 387.5 483 l 1,2,-1
 388 482.5 l 1,3,-1
 629 248.5 l 2,4,5
 636.5 241 636.5 241 636.5 231.5 c 128,-1,6
 636.5 222 636.5 222 629 214.5 c 2,7,-1
 388 -16 l 2,8,9
 379.5 -23.5 379.5 -23.5 367 -23.5 c 0,10,11
 355.5 -23.5 355.5 -23.5 348 -16 c 2,12,-1
 110 214.5 l 2,13,14
 103 220.5 103 220.5 103 231.5 c 0,15,16
 103 242 103 242 110 248.5 c 2,17,-1
 330.5 465.5 l 1,18,-1
 153 640 l 1,0,-1
167.5 231.5 m 1,19,-1
 368 37.5 l 1,20,-1
 571 231.5 l 1,21,-1
 368 429 l 1,22,-1
 167.5 231.5 l 1,19,-1
EndSplineSet
EndChar

StartChar: u1C3D1
Encoding: 115665 115665 85
Width: 877
VWidth: 1024
Flags: W
LayerCount: 2
Fore
SplineSet
109.5 290 m 2,0,1
 102.5 297 102.5 297 102.5 307 c 0,2,3
 102.5 316.5 102.5 316.5 109.5 323.5 c 2,4,-1
 222.5 438.5 l 1,5,6
 218 449.5 218 449.5 218 461.5 c 0,7,8
 218 486 218 486 235.75 505.25 c 128,-1,9
 253.5 524.5 253.5 524.5 281 524.5 c 0,10,11
 292.5 524.5 292.5 524.5 303.5 520.5 c 1,12,-1
 416.5 635 l 2,13,14
 423.5 643 423.5 643 438.5 643 c 0,15,16
 450 643 450 643 457.5 635.5 c 2,17,-1
 573 519.5 l 1,18,19
 586.5 525.5 586.5 525.5 599.5 525.5 c 0,20,21
 627 525.5 627 525.5 644.75 506.25 c 128,-1,22
 662.5 487 662.5 487 662.5 462.5 c 0,23,24
 662.5 449 662.5 449 656.5 436 c 1,25,-1
 768.5 324 l 2,26,27
 775 317.5 775 317.5 775 307.5 c 0,28,29
 775 297 775 297 768 290 c 2,30,-1
 655.5 178.5 l 1,31,32
 658.5 169.5 658.5 169.5 658.5 159.5 c 0,33,34
 658.5 135 658.5 135 641 115.75 c 128,-1,35
 623.5 96.5 623.5 96.5 596 96.5 c 0,36,37
 584.5 96.5 584.5 96.5 575.5 99.5 c 1,38,-1
 457.5 -17 l 2,39,40
 450 -24.5 450 -24.5 437 -24.5 c 0,41,42
 424.5 -24.5 424.5 -24.5 417 -17 c 2,43,-1
 304.5 95.5 l 1,44,45
 295.5 92.5 295.5 92.5 284.5 92.5 c 0,46,47
 257 92.5 257 92.5 239.25 111.75 c 128,-1,48
 221.5 131 221.5 131 221.5 155.5 c 0,49,50
 221.5 163.5 221.5 163.5 225 175 c 1,51,-1
 109.5 290 l 2,0,1
620.5 217.5 m 1,52,-1
 711 307 l 1,53,-1
 616.5 401.5 l 1,54,55
 610 399.5 610 399.5 599.5 399.5 c 0,56,57
 586.5 399.5 586.5 399.5 576 404 c 1,58,-1
 478.5 308 l 1,59,-1
 571.5 217.5 l 1,60,61
 583 222.5 583 222.5 596 222.5 c 0,62,63
 608 222.5 608 222.5 620.5 217.5 c 1,52,-1
537.5 136 m 1,64,65
 533 147 533 147 533 159.5 c 0,66,67
 533 169 533 169 536 179 c 1,68,-1
 441 271 l 1,69,-1
 344 175.5 l 1,70,71
 347.5 164 347.5 164 347.5 155.5 c 0,72,73
 347.5 144.5 347.5 144.5 342.5 132 c 1,74,-1
 437.5 37 l 1,75,-1
 537.5 136 l 1,64,65
539 479 m 1,76,-1
 437 581 l 1,77,-1
 340 482.5 l 1,78,79
 343.5 472.5 343.5 472.5 343.5 461.5 c 0,80,81
 343.5 451 343.5 451 340.5 441.5 c 1,82,-1
 440.5 344.5 l 1,83,-1
 540 442 l 1,84,85
 536.5 453.5 536.5 453.5 536.5 462.5 c 0,86,87
 536.5 470 536.5 470 539 479 c 1,76,-1
403.5 307.5 m 1,88,-1
 304.5 403 l 1,89,90
 294 398.5 294 398.5 281 398.5 c 0,91,92
 271 398.5 271 398.5 260.5 402 c 1,93,-1
 167 307 l 1,94,-1
 260.5 214 l 1,95,96
 271 218.5 271 218.5 284.5 218.5 c 128,-1,97
 298 218.5 298 218.5 308.5 214 c 1,98,-1
 403.5 307.5 l 1,88,-1
EndSplineSet
EndChar

StartChar: u1C3D2
Encoding: 115666 115666 86
Width: 864
VWidth: 1024
Flags: W
LayerCount: 2
Fore
SplineSet
109.5 290.5 m 2,0,1
 102.5 297.5 102.5 297.5 102.5 307.5 c 0,2,3
 102.5 317 102.5 317 109 323.5 c 2,4,-1
 395.5 628 l 1,5,-1
 397.5 736.5 l 1,6,-1
 328.5 695.5 l 1,7,-1
 298.5 737.5 l 1,8,-1
 411 804 l 2,9,10
 419 808.5 419 808.5 426.5 808.5 c 0,11,12
 437.5 808.5 437.5 808.5 445.75 800.75 c 128,-1,13
 454 793 454 793 453.5 783 c 2,14,-1
 450.5 628 l 1,15,-1
 754.5 324 l 2,16,17
 761.5 317 761.5 317 761.5 307 c 0,18,19
 761.5 297.5 761.5 297.5 754.5 290.5 c 2,20,-1
 451.5 -17 l 2,21,22
 444 -24.5 444 -24.5 430.5 -24.5 c 0,23,24
 418 -24.5 418 -24.5 410.5 -16.5 c 2,25,-1
 109.5 290.5 l 2,0,1
292 179.5 m 1,26,-1
 406 305.5 l 1,27,-1
 282 430 l 1,28,-1
 166.5 307.5 l 1,29,-1
 292 179.5 l 1,26,-1
545 459 m 1,30,-1
 423.5 580.5 l 1,31,-1
 311 461 l 1,32,-1
 434.5 337 l 1,33,-1
 545 459 l 1,30,-1
322 149 m 1,34,-1
 431 37.5 l 1,35,-1
 551 159 l 1,36,-1
 436 275 l 1,37,-1
 322 149 l 1,34,-1
575.5 428.5 m 1,38,-1
 465 306.5 l 1,39,-1
 581 189.5 l 1,40,-1
 697 307 l 1,41,-1
 575.5 428.5 l 1,38,-1
EndSplineSet
EndChar

StartChar: u1C3D3
Encoding: 115667 115667 87
Width: 705
VWidth: 1024
Flags: W
LayerCount: 2
Fore
SplineSet
206 612 m 1,0,-1
 179 655 l 1,1,-1
 339 737.5 l 2,2,3
 345.5 740.5 345.5 740.5 353 740.5 c 0,4,5
 369 740.5 369 740.5 376.5 728.5 c 0,6,7
 380 723 380 723 380 716 c 2,8,-1
 380 512.5 l 1,9,10
 443.5 505 443.5 505 494.75 466.75 c 128,-1,11
 546 428.5 546 428.5 574.5 369.75 c 128,-1,12
 603 311 603 311 603 244 c 0,13,14
 603 206.5 603 206.5 599 175.75 c 128,-1,15
 595 145 595 145 585.25 113.25 c 128,-1,16
 575.5 81.5 575.5 81.5 557.25 57.5 c 128,-1,17
 539 33.5 539 33.5 512 14.25 c 128,-1,18
 485 -5 485 -5 444.5 -15 c 128,-1,19
 404 -25 404 -25 352.5 -25 c 0,20,21
 307 -25 307 -25 270.5 -17 c 128,-1,22
 234 -9 234 -9 208.25 4.25 c 128,-1,23
 182.5 17.5 182.5 17.5 163.25 37.75 c 128,-1,24
 144 58 144 58 132.5 80.25 c 128,-1,25
 121 102.5 121 102.5 114.25 130.75 c 128,-1,26
 107.5 159 107.5 159 105 185.5 c 128,-1,27
 102.5 212 102.5 212 102.5 244 c 0,28,29
 102.5 311 102.5 311 131 369.75 c 128,-1,30
 159.5 428.5 159.5 428.5 210.5 466.5 c 128,-1,31
 261.5 504.5 261.5 504.5 325 512 c 1,32,-1
 325 673 l 1,33,-1
 206 612 l 1,0,-1
479.5 52.5 m 1,34,-1
 352.5 208 l 1,35,-1
 212.5 60.5 l 1,36,37
 257.5 25 257.5 25 352.5 25 c 0,38,39
 435 25 435 25 479.5 52.5 c 1,34,-1
205.5 388 m 1,40,41
 157.5 326 157.5 326 157.5 244 c 0,42,43
 157.5 145.5 157.5 145.5 179 102 c 1,44,-1
 318.5 249.5 l 1,45,-1
 205.5 388 l 1,40,41
517.5 89.5 m 1,46,47
 548 137 548 137 548 244 c 0,48,49
 548 317 548 317 509.5 374.5 c 1,50,-1
 389 247 l 1,51,-1
 517.5 89.5 l 1,46,47
243 426 m 1,52,-1
 355.5 288 l 1,53,-1
 475.5 415 l 1,54,55
 422 464 422 464 352.5 464 c 0,56,57
 293 464 293 464 243 426 c 1,52,-1
EndSplineSet
EndChar

StartChar: u1C3D4
Encoding: 115668 115668 88
Width: 877
VWidth: 1024
Flags: W
LayerCount: 2
Fore
SplineSet
109.5 290 m 2,0,1
 102.5 297 102.5 297 102.5 307 c 0,2,3
 102.5 316.5 102.5 316.5 109.5 323.5 c 2,4,-1
 400 618.5 l 1,5,-1
 283.5 734 l 1,6,-1
 210.5 612 l 1,7,-1
 162.5 636 l 1,8,-1
 253.5 789 l 1,9,10
 253.5 789 253.5 789 256 792 c 0,11,12
 258 794.5 258 794.5 259 795.5 c 0,13,14
 266 802 266 802 277.5 802 c 0,15,16
 290 802 290 802 298 794 c 2,17,-1
 457.5 635.5 l 1,18,-1
 768.5 324 l 2,19,20
 775 317.5 775 317.5 775 307.5 c 0,21,22
 775 297 775 297 768 290 c 2,23,-1
 457.5 -17 l 2,24,25
 450 -24.5 450 -24.5 437 -24.5 c 0,26,27
 424.5 -24.5 424.5 -24.5 417 -17 c 2,28,-1
 109.5 290 l 2,0,1
584 182 m 1,29,-1
 711 307 l 1,30,-1
 576 442 l 1,31,-1
 460 316 l 1,32,-1
 584 182 l 1,29,-1
322.5 465 m 1,33,-1
 431 347.5 l 1,34,-1
 546 472 l 1,35,-1
 437 581 l 1,36,-1
 322.5 465 l 1,33,-1
553.5 152 m 1,37,-1
 431 284.5 l 1,38,-1
 315 159.5 l 1,39,-1
 437.5 37 l 1,40,-1
 553.5 152 l 1,37,-1
292.5 434.5 m 1,41,-1
 167 307 l 1,42,-1
 284.5 189.5 l 1,43,-1
 401.5 316 l 1,44,-1
 292.5 434.5 l 1,41,-1
EndSplineSet
EndChar

StartChar: u1C3D5
Encoding: 115669 115669 89
Width: 865
VWidth: 1024
Flags: W
LayerCount: 2
Fore
SplineSet
259 309 m 128,-1,1
 259 323 259 323 270 333 c 128,-1,2
 281 343 281 343 297 343 c 0,3,4
 323 343 323 343 333 322.5 c 1,5,-1
 412.5 322.5 l 1,6,-1
 411.5 430 l 1,7,8
 390 438 390 438 390 460.5 c 0,9,10
 390 474.5 390 474.5 401 484.5 c 128,-1,11
 412 494.5 412 494.5 428 494.5 c 128,-1,12
 444 494.5 444 494.5 455.5 484.5 c 128,-1,13
 467 474.5 467 474.5 467 460.5 c 0,14,15
 467 440.5 467 440.5 447.5 431 c 1,16,-1
 448.5 322.5 l 1,17,-1
 532.5 322.5 l 1,18,19
 542.5 342 542.5 342 567.5 342 c 0,20,21
 583.5 342 583.5 342 594.75 332 c 128,-1,22
 606 322 606 322 606 308 c 128,-1,23
 606 294 606 294 594.75 284.25 c 128,-1,24
 583.5 274.5 583.5 274.5 567.5 274.5 c 0,25,26
 543.5 274.5 543.5 274.5 533.5 291.5 c 1,27,-1
 448.5 291.5 l 1,28,-1
 450.5 128 l 2,29,30
 450.5 113.5 450.5 113.5 433 113.5 c 0,31,32
 425.5 113.5 425.5 113.5 420 117.25 c 128,-1,33
 414.5 121 414.5 121 414.5 128 c 0,34,35
 414 155 414 155 413.5 209.5 c 128,-1,36
 413 264 413 264 412.5 291.5 c 1,37,-1
 329.5 291.5 l 1,38,39
 319 275.5 319 275.5 297 275.5 c 0,40,41
 281 275.5 281 275.5 270 285.25 c 128,-1,0
 259 295 259 295 259 309 c 128,-1,1
109.5 289.5 m 2,42,43
 102.5 296.5 102.5 296.5 102.5 307 c 0,44,45
 102.5 315 102.5 315 109.5 323.5 c 2,46,-1
 402.5 635 l 2,47,48
 409.5 644 409.5 644 425 644 c 0,49,50
 436.5 644 436.5 644 444.5 636 c 2,51,-1
 755.5 324.5 l 2,52,53
 763 317 763 317 763 307 c 128,-1,54
 763 297 763 297 755.5 289.5 c 2,55,-1
 452.5 -17.5 l 2,56,57
 445.5 -24.5 445.5 -24.5 431 -24.5 c 0,58,59
 417.5 -24.5 417.5 -24.5 410.5 -17.5 c 2,60,-1
 109.5 289.5 l 2,42,43
168 307 m 1,61,-1
 432 39 l 1,62,-1
 697.5 307 l 1,63,-1
 424 579.5 l 1,64,-1
 168 307 l 1,61,-1
EndSplineSet
EndChar

StartChar: u1C3D6
Encoding: 115670 115670 90
Width: 864
VWidth: 1024
Flags: W
LayerCount: 2
Fore
SplineSet
355.5 206 m 1,0,-1
 322.5 234 l 1,1,-1
 415.5 321 l 2,2,3
 422 327 422 327 431.5 327 c 0,4,5
 440.5 327 440.5 327 447.5 321.5 c 0,6,7
 454.5 315.5 454.5 315.5 454.5 307 c 2,8,-1
 455 98 l 1,9,-1
 410 98 l 1,10,-1
 409.5 257 l 1,11,-1
 355.5 206 l 1,0,-1
109.5 290.5 m 2,12,13
 102.5 297.5 102.5 297.5 102.5 307 c 128,-1,14
 102.5 316.5 102.5 316.5 109 323 c 2,15,-1
 402 634.5 l 2,16,17
 409.5 643 409.5 643 424.5 643 c 0,18,19
 436 643 436 643 443.5 635.5 c 2,20,-1
 754.5 324 l 2,21,22
 761.5 317 761.5 317 761.5 307 c 0,23,24
 761.5 297.5 761.5 297.5 754.5 290.5 c 2,25,-1
 451.5 -16.5 l 2,26,27
 443.5 -24.5 443.5 -24.5 430 -24.5 c 0,28,29
 418.5 -24.5 418.5 -24.5 410.5 -16.5 c 2,30,-1
 109.5 290.5 l 2,12,13
166.5 307.5 m 1,31,-1
 431 37.5 l 1,32,-1
 697 307 l 1,33,-1
 423.5 580.5 l 1,34,-1
 166.5 307.5 l 1,31,-1
EndSplineSet
EndChar

StartChar: u1C3D7
Encoding: 115671 115671 91
Width: 943
VWidth: 1024
Flags: W
LayerCount: 2
Fore
SplineSet
314.5 25.5 m 1,0,-1
 773 25.5 l 1,1,-1
 600 524 l 1,2,-1
 167 585.5 l 1,3,-1
 314.5 25.5 l 1,0,-1
292 -25.5 m 2,4,5
 282 -25.5 282 -25.5 274 -20.25 c 128,-1,6
 266 -15 266 -15 264 -6 c 2,7,-1
 102.5 611 l 1,8,-1
 102.5 617.5 l 2,9,10
 102.5 629 102.5 629 110.5 636 c 128,-1,11
 118.5 643 118.5 643 130 643 c 2,12,-1
 134 643 l 1,13,-1
 625.5 572.5 l 2,14,15
 633 572 633 572 639.25 567 c 128,-1,16
 645.5 562 645.5 562 648 555 c 2,17,-1
 838.5 8 l 2,18,19
 838.5 7.5 838.5 7.5 839.5 4.25 c 128,-1,20
 840.5 1 840.5 1 840.5 0 c 0,21,22
 840.5 -11 840.5 -11 832 -18.25 c 128,-1,23
 823.5 -25.5 823.5 -25.5 812 -25.5 c 2,24,-1
 292 -25.5 l 2,4,5
EndSplineSet
EndChar

StartChar: u1C3D8
Encoding: 115672 115672 92
Width: 918
VWidth: 1024
Flags: W
LayerCount: 2
Fore
SplineSet
102.5 619.5 m 0,0,1
 102.5 644.5 102.5 644.5 120.25 663.75 c 128,-1,2
 138 683 138 683 166 683 c 0,3,4
 186.5 683 186.5 683 202.5 671.75 c 128,-1,5
 218.5 660.5 218.5 660.5 225.5 643 c 1,6,-1
 691 643 l 1,7,8
 698 660 698 660 713.5 670.5 c 128,-1,9
 729 681 729 681 749.5 681 c 0,10,11
 777.5 681 777.5 681 795.25 661.75 c 128,-1,12
 813 642.5 813 642.5 813 617.5 c 0,13,14
 813 601 813 601 804.25 585.75 c 128,-1,15
 795.5 570.5 795.5 570.5 780.5 562 c 1,16,-1
 780.5 56 l 1,17,18
 797 47.5 797 47.5 806.5 32 c 128,-1,19
 816 16.5 816 16.5 816 -1 c 0,20,21
 816 -26 816 -26 798.25 -45.25 c 128,-1,22
 780.5 -64.5 780.5 -64.5 752.5 -64.5 c 0,23,24
 732 -64.5 732 -64.5 716.75 -53.5 c 128,-1,25
 701.5 -42.5 701.5 -42.5 694.5 -25.5 c 1,26,-1
 223 -25.5 l 1,27,28
 216 -42.5 216 -42.5 201 -53 c 128,-1,29
 186 -63.5 186 -63.5 166 -63.5 c 0,30,31
 138 -63.5 138 -63.5 120.25 -44.25 c 128,-1,32
 102.5 -25 102.5 -25 102.5 0 c 0,33,34
 102.5 17 102.5 17 111.75 32.75 c 128,-1,35
 121 48.5 121 48.5 137 57 c 1,36,-1
 137 563 l 1,37,38
 121 571.5 121 571.5 111.75 587 c 128,-1,39
 102.5 602.5 102.5 602.5 102.5 619.5 c 0,0,1
192.5 57 m 1,40,41
 215.5 46 215.5 46 224.5 25.5 c 1,42,-1
 695.5 25.5 l 1,43,44
 705 47 705 47 725 56 c 1,45,-1
 725 559 l 1,46,47
 701 568.5 701 568.5 691 592 c 1,48,-1
 223 592 l 1,49,50
 213 571 213 571 192.5 562 c 1,51,-1
 192.5 57 l 1,40,41
EndSplineSet
EndChar

StartChar: u1C3D9
Encoding: 115673 115673 93
Width: 864
VWidth: 1024
Flags: W
LayerCount: 2
Fore
SplineSet
166.5 307.5 m 1,0,-1
 431 37.5 l 1,1,-1
 697 307 l 1,2,-1
 423.5 580.5 l 1,3,-1
 166.5 307.5 l 1,0,-1
109.5 290.5 m 2,4,5
 102.5 297.5 102.5 297.5 102.5 307 c 128,-1,6
 102.5 316.5 102.5 316.5 109 323 c 2,7,-1
 395.5 628 l 1,8,-1
 396.5 782 l 2,9,10
 396.5 792 396.5 792 404.75 799.5 c 128,-1,11
 413 807 413 807 424 807 c 0,12,13
 432 807 432 807 440.5 802 c 2,14,-1
 536.5 736.5 l 1,15,-1
 503.5 696.5 l 1,16,-1
 451 732 l 1,17,-1
 450.5 628 l 1,18,-1
 754.5 324 l 2,19,20
 761.5 317 761.5 317 761.5 307 c 0,21,22
 761.5 297.5 761.5 297.5 754.5 290.5 c 2,23,-1
 451.5 -16.5 l 2,24,25
 443.5 -24.5 443.5 -24.5 430 -24.5 c 0,26,27
 418.5 -24.5 418.5 -24.5 410.5 -16.5 c 2,28,-1
 109.5 290.5 l 2,4,5
429 274.5 m 1,29,-1
 394.5 235 l 1,30,-1
 464.5 235 l 1,31,-1
 429 274.5 l 1,29,-1
382.5 327 m 1,32,-1
 348 365.5 l 1,33,-1
 348 327 l 1,34,-1
 382.5 327 l 1,32,-1
475.5 327 m 1,35,-1
 509.5 327 l 1,36,-1
 509.5 365 l 1,37,-1
 475.5 327 l 1,35,-1
475.5 287 m 1,38,-1
 528.5 227.5 l 2,39,40
 534 221 534 221 533 212.75 c 128,-1,41
 532 204.5 532 204.5 525 199.5 c 0,42,43
 519 195 519 195 511 195 c 2,44,-1
 348 195 l 2,45,46
 338.5 195 338.5 195 332 200.75 c 128,-1,47
 325.5 206.5 325.5 206.5 325.5 215 c 0,48,49
 325.5 221 325.5 221 330.5 227.5 c 2,50,-1
 383 287 l 1,51,-1
 325.5 287 l 2,52,53
 316 287 316 287 309.5 292.75 c 128,-1,54
 303 298.5 303 298.5 303 307 c 2,55,-1
 303 423 l 2,56,57
 303 431.5 303 431.5 309.5 437.25 c 128,-1,58
 316 443 316 443 325.5 443 c 0,59,60
 336.5 443 336.5 443 343 435.5 c 2,61,-1
 429 339 l 1,62,-1
 514.5 435.5 l 2,63,64
 520 442.5 520 442.5 532 442.5 c 0,65,66
 540.5 442.5 540.5 442.5 546 438.5 c 0,67,68
 554.5 432.5 554.5 432.5 554.5 423 c 2,69,-1
 554.5 307 l 2,70,71
 554.5 298.5 554.5 298.5 548 292.75 c 128,-1,72
 541.5 287 541.5 287 532 287 c 2,73,-1
 475.5 287 l 1,38,-1
EndSplineSet
EndChar

StartChar: u1C3DA
Encoding: 115674 115674 94
Width: 864
VWidth: 1024
Flags: W
LayerCount: 2
Fore
SplineSet
166.5 307.5 m 1,0,-1
 431 37.5 l 1,1,-1
 697 307 l 1,2,-1
 423.5 580.5 l 1,3,-1
 166.5 307.5 l 1,0,-1
109.5 290.5 m 2,4,5
 102.5 297.5 102.5 297.5 102.5 307 c 128,-1,6
 102.5 316.5 102.5 316.5 109 323 c 2,7,-1
 402 634.5 l 1,8,-1
 403 635.5 l 1,9,-1
 556 792 l 1,10,-1
 597 759 l 1,11,-1
 460 619 l 1,12,-1
 754.5 324 l 2,13,14
 761.5 317 761.5 317 761.5 307 c 0,15,16
 761.5 297.5 761.5 297.5 754.5 290.5 c 2,17,-1
 451.5 -16.5 l 2,18,19
 443.5 -24.5 443.5 -24.5 430 -24.5 c 0,20,21
 418.5 -24.5 418.5 -24.5 410.5 -16.5 c 2,22,-1
 109.5 290.5 l 2,4,5
429 274.5 m 1,23,-1
 394.5 235 l 1,24,-1
 464.5 235 l 1,25,-1
 429 274.5 l 1,23,-1
382.5 327 m 1,26,-1
 348 365.5 l 1,27,-1
 348 327 l 1,28,-1
 382.5 327 l 1,26,-1
475.5 327 m 1,29,-1
 509.5 327 l 1,30,-1
 509.5 365 l 1,31,-1
 475.5 327 l 1,29,-1
475.5 287 m 1,32,-1
 528.5 227.5 l 2,33,34
 534 221 534 221 533 212.75 c 128,-1,35
 532 204.5 532 204.5 525 199.5 c 0,36,37
 519 195 519 195 511 195 c 2,38,-1
 348 195 l 2,39,40
 338.5 195 338.5 195 332 200.75 c 128,-1,41
 325.5 206.5 325.5 206.5 325.5 215 c 0,42,43
 325.5 221 325.5 221 330.5 227.5 c 2,44,-1
 383 287 l 1,45,-1
 325.5 287 l 2,46,47
 316 287 316 287 309.5 292.75 c 128,-1,48
 303 298.5 303 298.5 303 307 c 2,49,-1
 303 423 l 2,50,51
 303 431.5 303 431.5 309.5 437.25 c 128,-1,52
 316 443 316 443 325.5 443 c 0,53,54
 336.5 443 336.5 443 343 435.5 c 2,55,-1
 429 339 l 1,56,-1
 514.5 435.5 l 2,57,58
 520 442.5 520 442.5 532 442.5 c 0,59,60
 540.5 442.5 540.5 442.5 546 438.5 c 0,61,62
 554.5 432.5 554.5 432.5 554.5 423 c 2,63,-1
 554.5 307 l 2,64,65
 554.5 298.5 554.5 298.5 548 292.75 c 128,-1,66
 541.5 287 541.5 287 532 287 c 2,67,-1
 475.5 287 l 1,32,-1
EndSplineSet
EndChar

StartChar: u1C3DB
Encoding: 115675 115675 95
Width: 864
VWidth: 1024
Flags: W
LayerCount: 2
Fore
SplineSet
475.5 287 m 1,0,-1
 528.5 227.5 l 2,1,2
 534 221 534 221 533 212.75 c 128,-1,3
 532 204.5 532 204.5 525 199.5 c 0,4,5
 519 195 519 195 511 195 c 2,6,-1
 348 195 l 2,7,8
 338.5 195 338.5 195 332 200.75 c 128,-1,9
 325.5 206.5 325.5 206.5 325.5 215 c 0,10,11
 325.5 221 325.5 221 330.5 227.5 c 2,12,-1
 383 287 l 1,13,-1
 325.5 287 l 2,14,15
 316 287 316 287 309.5 292.75 c 128,-1,16
 303 298.5 303 298.5 303 307 c 2,17,-1
 303 423 l 2,18,19
 303 431.5 303 431.5 309.5 437.25 c 128,-1,20
 316 443 316 443 325.5 443 c 0,21,22
 336.5 443 336.5 443 343 435.5 c 2,23,-1
 429 339 l 1,24,-1
 514.5 435.5 l 2,25,26
 520 442.5 520 442.5 532 442.5 c 0,27,28
 540.5 442.5 540.5 442.5 546 438.5 c 0,29,30
 554.5 432.5 554.5 432.5 554.5 423 c 2,31,-1
 554.5 307 l 2,32,33
 554.5 298.5 554.5 298.5 548 292.75 c 128,-1,34
 541.5 287 541.5 287 532 287 c 2,35,-1
 475.5 287 l 1,0,-1
475.5 327 m 1,36,-1
 509.5 327 l 1,37,-1
 509.5 365 l 1,38,-1
 475.5 327 l 1,36,-1
382.5 327 m 1,39,-1
 348 365.5 l 1,40,-1
 348 327 l 1,41,-1
 382.5 327 l 1,39,-1
429 274.5 m 1,42,-1
 394.5 235 l 1,43,-1
 464.5 235 l 1,44,-1
 429 274.5 l 1,42,-1
423 618.5 m 1024,45,-1
423 618.5 m 1024,46,-1
109.5 290.5 m 2,47,48
 102.5 297.5 102.5 297.5 102.5 307 c 128,-1,49
 102.5 316.5 102.5 316.5 109 323 c 2,50,-1
 402 634.5 l 2,51,52
 409.5 643 409.5 643 424.5 643 c 0,53,54
 436 643 436 643 443.5 635.5 c 2,55,-1
 754.5 324 l 2,56,57
 761.5 317 761.5 317 761.5 307 c 0,58,59
 761.5 297.5 761.5 297.5 754.5 290.5 c 2,60,-1
 451.5 -16.5 l 2,61,62
 443.5 -24.5 443.5 -24.5 430 -24.5 c 0,63,64
 418.5 -24.5 418.5 -24.5 410.5 -16.5 c 2,65,-1
 109.5 290.5 l 2,47,48
166.5 307.5 m 1,66,-1
 431 37.5 l 1,67,-1
 697 307 l 1,68,-1
 423.5 580.5 l 1,69,-1
 166.5 307.5 l 1,66,-1
EndSplineSet
EndChar

StartChar: u1C3DC
Encoding: 115676 115676 96
Width: 864
VWidth: 1024
Flags: W
LayerCount: 2
Fore
SplineSet
166.5 307.5 m 1,0,-1
 431 37.5 l 1,1,-1
 697 307 l 1,2,-1
 423.5 580.5 l 1,3,-1
 166.5 307.5 l 1,0,-1
109.5 290.5 m 2,4,5
 102.5 297.5 102.5 297.5 102.5 307 c 128,-1,6
 102.5 316.5 102.5 316.5 109 323 c 2,7,-1
 395.5 628 l 1,8,-1
 396.5 782 l 2,9,10
 396.5 792 396.5 792 404.75 799.5 c 128,-1,11
 413 807 413 807 424 807 c 0,12,13
 432 807 432 807 440.5 802 c 2,14,-1
 536.5 736.5 l 1,15,-1
 503.5 696.5 l 1,16,-1
 451 732 l 1,17,-1
 450.5 628 l 1,18,-1
 754.5 324 l 2,19,20
 761.5 317 761.5 317 761.5 307 c 0,21,22
 761.5 297.5 761.5 297.5 754.5 290.5 c 2,23,-1
 451.5 -16.5 l 2,24,25
 443.5 -24.5 443.5 -24.5 430 -24.5 c 0,26,27
 418.5 -24.5 418.5 -24.5 410.5 -16.5 c 2,28,-1
 109.5 290.5 l 2,4,5
429 274.5 m 1,29,-1
 394.5 235 l 1,30,-1
 464.5 235 l 1,31,-1
 429 274.5 l 1,29,-1
382.5 327 m 1,32,-1
 348 365.5 l 1,33,-1
 348 327 l 1,34,-1
 382.5 327 l 1,32,-1
475.5 327 m 1,35,-1
 509.5 327 l 1,36,-1
 509.5 365 l 1,37,-1
 475.5 327 l 1,35,-1
475.5 287 m 1,38,-1
 528.5 227.5 l 2,39,40
 534 221 534 221 533 212.75 c 128,-1,41
 532 204.5 532 204.5 525 199.5 c 0,42,43
 519 195 519 195 511 195 c 2,44,-1
 348 195 l 2,45,46
 338.5 195 338.5 195 332 200.75 c 128,-1,47
 325.5 206.5 325.5 206.5 325.5 215 c 0,48,49
 325.5 221 325.5 221 330.5 227.5 c 2,50,-1
 383 287 l 1,51,-1
 325.5 287 l 2,52,53
 316 287 316 287 309.5 292.75 c 128,-1,54
 303 298.5 303 298.5 303 307 c 2,55,-1
 303 423 l 2,56,57
 303 431.5 303 431.5 309.5 437.25 c 128,-1,58
 316 443 316 443 325.5 443 c 0,59,60
 336.5 443 336.5 443 343 435.5 c 2,61,-1
 429 339 l 1,62,-1
 514.5 435.5 l 2,63,64
 520 442.5 520 442.5 532 442.5 c 0,65,66
 540.5 442.5 540.5 442.5 546 438.5 c 0,67,68
 554.5 432.5 554.5 432.5 554.5 423 c 2,69,-1
 554.5 307 l 2,70,71
 554.5 298.5 554.5 298.5 548 292.75 c 128,-1,72
 541.5 287 541.5 287 532 287 c 2,73,-1
 475.5 287 l 1,38,-1
EndSplineSet
EndChar

StartChar: u1C3DD
Encoding: 115677 115677 97
Width: 877
VWidth: 1024
Flags: W
LayerCount: 2
Fore
SplineSet
167 307 m 1,0,-1
 437.5 37 l 1,1,-1
 711 307 l 1,2,-1
 437 581 l 1,3,-1
 167 307 l 1,0,-1
109.5 290 m 2,4,5
 102.5 297 102.5 297 102.5 307 c 0,6,7
 102.5 316.5 102.5 316.5 109.5 323.5 c 2,8,-1
 416.5 635 l 2,9,10
 423.5 643 423.5 643 438.5 643 c 0,11,12
 450 643 450 643 457.5 635.5 c 2,13,-1
 768.5 324 l 2,14,15
 775 317.5 775 317.5 775 307.5 c 0,16,17
 775 297 775 297 768 290 c 2,18,-1
 457.5 -17 l 2,19,20
 450 -24.5 450 -24.5 437 -24.5 c 0,21,22
 424.5 -24.5 424.5 -24.5 417 -17 c 2,23,-1
 109.5 290 l 2,4,5
393.5 306 m 1,24,-1
 335.5 344 l 1,25,-1
 335.5 266.5 l 1,26,-1
 393.5 306 l 1,24,-1
431 331.5 m 1,27,-1
 537 403.5 l 2,28,29
 543.5 407.5 543.5 407.5 550.5 407.5 c 0,30,31
 562 407.5 562 407.5 568.5 400 c 0,32,33
 573.5 394 573.5 394 573.5 387.5 c 2,34,-1
 573.5 228 l 2,35,36
 573.5 219.5 573.5 219.5 567 213.75 c 128,-1,37
 560.5 208 560.5 208 551 208 c 0,38,39
 545.5 208 545.5 208 537.5 212 c 2,40,-1
 431.5 281.5 l 1,41,-1
 327 210.5 l 2,42,43
 319 206 319 206 313 206 c 0,44,45
 303.5 206 303.5 206 297 211.75 c 128,-1,46
 290.5 217.5 290.5 217.5 290.5 226 c 2,47,-1
 290.5 384 l 2,48,49
 290.5 390 290.5 390 295 395.5 c 0,50,51
 302 404 302 404 313.5 404 c 0,52,53
 320 404 320 404 326.5 400 c 2,54,-1
 431 331.5 l 1,27,-1
468.5 307 m 1,55,-1
 528.5 267.5 l 1,56,-1
 528.5 347.5 l 1,57,-1
 468.5 307 l 1,55,-1
EndSplineSet
EndChar

StartChar: u1C3DE
Encoding: 115678 115678 98
Width: 800
VWidth: 1024
Flags: W
LayerCount: 2
Fore
SplineSet
199.5 385 m 1,0,-1
 400 187.5 l 1,1,-1
 603 385 l 1,2,-1
 400 579 l 1,3,-1
 199.5 385 l 1,0,-1
157.5 151 m 0,4,5
 157.5 147.5 157.5 147.5 161 147.5 c 0,6,7
 164 147.5 164 147.5 164 151 c 0,8,9
 164 153 164 153 163 154 c 2,10,-1
 159 154 l 2,11,12
 157.5 152.5 157.5 152.5 157.5 151 c 0,4,5
636 144.5 m 0,13,14
 636 141 636 141 639.5 141 c 0,15,16
 642.5 141 642.5 141 642.5 144.5 c 0,17,18
 642.5 146.5 642.5 146.5 642 147 c 2,19,-1
 637 147 l 2,20,21
 636 146 636 146 636 144.5 c 0,13,14
237 713.5 m 128,-1,23
 237 735.5 237 735.5 254 751.25 c 128,-1,24
 271 767 271 767 295 767 c 128,-1,25
 319 767 319 767 336 751.25 c 128,-1,26
 353 735.5 353 735.5 353 713.5 c 0,27,28
 353 706 353 706 350.5 697.5 c 1,29,-1
 400 651.5 l 1,30,-1
 449 697.5 l 1,31,32
 446 706 446 706 446 714.5 c 0,33,34
 446 736.5 446 736.5 463 752.25 c 128,-1,35
 480 768 480 768 504 768 c 128,-1,36
 528 768 528 768 545 752.25 c 128,-1,37
 562 736.5 562 736.5 562 714.5 c 128,-1,38
 562 692.5 562 692.5 545.25 676.5 c 128,-1,39
 528.5 660.5 528.5 660.5 504 660.5 c 0,40,41
 495 660.5 495 660.5 488.5 662.5 c 1,42,-1
 438 615.5 l 1,43,-1
 661 402 l 2,44,45
 668 395 668 395 668 385 c 1,46,-1
 668.5 385 l 1,47,-1
 668.5 191.5 l 1,48,49
 681.5 184.5 681.5 184.5 689.5 171.75 c 128,-1,50
 697.5 159 697.5 159 697.5 144.5 c 0,51,52
 697.5 122.5 697.5 122.5 680.5 106.75 c 128,-1,53
 663.5 91 663.5 91 639.5 91 c 128,-1,54
 615.5 91 615.5 91 598.25 106.75 c 128,-1,55
 581 122.5 581 122.5 581 144.5 c 0,56,57
 581 160 581 160 589.75 173 c 128,-1,58
 598.5 186 598.5 186 613.5 193 c 1,59,-1
 613.5 321.5 l 1,60,-1
 427.5 141 l 1,61,-1
 428 29 l 1,62,63
 441.5 22 441.5 22 449.75 9.5 c 128,-1,64
 458 -3 458 -3 458 -18 c 0,65,66
 458 -40 458 -40 441.25 -56 c 128,-1,67
 424.5 -72 424.5 -72 400 -72 c 128,-1,68
 375.5 -72 375.5 -72 358.75 -56 c 128,-1,69
 342 -40 342 -40 342 -18 c 0,70,71
 342 -3 342 -3 350.5 9.75 c 128,-1,72
 359 22.5 359 22.5 373 29.5 c 1,73,-1
 372.5 141 l 1,74,-1
 189 321.5 l 1,75,-1
 188.5 198.5 l 1,76,77
 202.5 191.5 202.5 191.5 210.75 178.75 c 128,-1,78
 219 166 219 166 219 151 c 0,79,80
 219 129 219 129 202 113.25 c 128,-1,81
 185 97.5 185 97.5 161 97.5 c 128,-1,82
 137 97.5 137 97.5 119.75 113.25 c 128,-1,83
 102.5 129 102.5 129 102.5 151 c 0,84,85
 102.5 166 102.5 166 111 179 c 128,-1,86
 119.5 192 119.5 192 133.5 199 c 1,87,-1
 134.5 385 l 1,88,-1
 135 385 l 1,89,90
 135 395 135 395 142 402 c 2,91,-1
 362 615 l 1,92,-1
 311.5 661.5 l 1,93,94
 305 659.5 305 659.5 295 659.5 c 0,95,96
 270.5 659.5 270.5 659.5 253.75 675.5 c 128,-1,22
 237 691.5 237 691.5 237 713.5 c 128,-1,23
403 -19 m 1,97,-1
 397 -19 l 1,98,99
 397.5 -22 397.5 -22 400 -22 c 128,-1,100
 402.5 -22 402.5 -22 403 -19 c 1,97,-1
298 714.5 m 1,101,102
 297.5 717 297.5 717 295 717 c 0,103,104
 292 717 292 717 292 713.5 c 0,105,106
 292 711.5 292 711.5 293 710.5 c 2,107,-1
 298 714.5 l 1,101,102
501.5 716.5 m 2,108,-1
 504.5 713.5 l 1,109,-1
 506.5 712 l 2,110,111
 507 712.5 507 712.5 507 714.5 c 0,112,113
 507 718 507 718 504 718 c 0,114,115
 502 718 502 718 501.5 716.5 c 2,108,-1
EndSplineSet
EndChar

StartChar: u1C3DF
Encoding: 115679 115679 99
Width: 1180
VWidth: 1024
Flags: W
LayerCount: 2
Fore
SplineSet
125 488 m 0,0,1
 128.5 490.5 128.5 490.5 135.75 495.75 c 128,-1,2
 143 501 143 501 146.5 504 c 1,3,-1
 258.5 379 l 1,4,-1
 258.5 535 l 1,5,-1
 313.5 535 l 1,6,-1
 313.5 372 l 1,7,-1
 560.5 634.5 l 2,8,9
 568 643 568 643 583 643 c 0,10,11
 594.5 643 594.5 643 602 635.5 c 2,12,-1
 867.5 369.5 l 1,13,-1
 867.5 535 l 1,14,-1
 922.5 535 l 1,15,-1
 922.5 379 l 1,16,-1
 1034.5 504 l 1,17,-1
 1077.5 472 l 1,18,-1
 930 307.5 l 1,19,-1
 1077 154.5 l 1,20,-1
 1036 121.5 l 1,21,22
 1034.5 123 1034.5 123 922.5 239.5 c 1,23,-1
 922.5 100 l 1,24,-1
 867.5 100 l 1,25,-1
 867.5 244.5 l 1,26,-1
 610 -16.5 l 2,27,28
 602 -24.5 602 -24.5 588.5 -24.5 c 0,29,30
 577 -24.5 577 -24.5 569 -16.5 c 2,31,-1
 313.5 244 l 1,32,-1
 313.5 100 l 1,33,-1
 258.5 100 l 1,34,-1
 258.5 239.5 l 1,35,-1
 145 121.5 l 1,36,-1
 104 154.5 l 1,37,-1
 251 307.5 l 1,38,-1
 103.5 472 l 1,39,40
 107 475 107 475 114.25 480 c 128,-1,41
 121.5 485 121.5 485 125 488 c 0,0,1
325 307.5 m 1,42,-1
 589.5 37.5 l 1,43,-1
 855.5 307 l 1,44,-1
 582 580.5 l 1,45,-1
 325 307.5 l 1,42,-1
EndSplineSet
EndChar

StartChar: u1C3E0
Encoding: 115680 115680 100
Width: 736
VWidth: 1024
Flags: W
LayerCount: 2
Fore
SplineSet
340.5 691.5 m 1,0,-1
 393.5 696.5 l 1,1,-1
 393 512.5 l 1,2,-1
 518.5 633 l 1,3,-1
 552.5 596.5 l 1,4,-1
 411 460.5 l 1,5,-1
 626.5 251 l 2,6,7
 633.5 245 633.5 245 633.5 233.5 c 128,-1,8
 633.5 222 633.5 222 624.5 213.5 c 2,9,-1
 383.5 -17 l 2,10,11
 374.5 -25 374.5 -25 364 -25 c 0,12,13
 354 -25 354 -25 347.5 -18.5 c 2,14,-1
 109.5 212 l 2,15,16
 102.5 219 102.5 219 102.5 229.5 c 0,17,18
 102.5 241 102.5 241 111 249.5 c 2,19,-1
 321.5 456 l 1,20,-1
 167 594 l 1,21,-1
 204 634.5 l 1,22,-1
 340.5 513 l 1,23,-1
 340.5 691.5 l 1,0,-1
166 233.5 m 1,24,-1
 368.5 37.5 l 1,25,-1
 569.5 230 l 1,26,-1
 367 426.5 l 1,27,-1
 362.5 426.5 l 1,28,-1
 166 233.5 l 1,24,-1
EndSplineSet
EndChar

StartChar: u1C3E1
Encoding: 115681 115681 101
Width: 738
VWidth: 1024
Flags: W
LayerCount: 2
Fore
SplineSet
-602 870.5 m 1024,0,-1
167 231.5 m 1,1,-1
 367.5 37.5 l 1,2,-1
 570.5 231.5 l 1,3,-1
 368.5 428 l 1,4,-1
 367 428 l 1,5,-1
 167 231.5 l 1,1,-1
109.5 214.5 m 2,6,7
 102.5 220.5 102.5 220.5 102.5 231.5 c 0,8,9
 102.5 242 102.5 242 109.5 248.5 c 2,10,-1
 322.5 458 l 1,11,-1
 202 565.5 l 1,12,13
 192 563.5 192 563.5 186.5 563.5 c 0,14,15
 162 563.5 162 563.5 145 579.5 c 128,-1,16
 128 595.5 128 595.5 128 617.5 c 128,-1,17
 128 639.5 128 639.5 145 655.25 c 128,-1,18
 162 671 162 671 186.5 671 c 128,-1,19
 211 671 211 671 227.75 655.25 c 128,-1,20
 244.5 639.5 244.5 639.5 244.5 617.5 c 0,21,22
 244.5 609 244.5 609 241.5 600.5 c 1,23,-1
 340 512 l 1,24,-1
 340.5 645.5 l 1,25,26
 326.5 652.5 326.5 652.5 318 665.25 c 128,-1,27
 309.5 678 309.5 678 309.5 693 c 0,28,29
 309.5 715 309.5 715 326.25 731 c 128,-1,30
 343 747 343 747 367.5 747 c 128,-1,31
 392 747 392 747 408.75 731 c 128,-1,32
 425.5 715 425.5 715 425.5 693 c 0,33,34
 425.5 678 425.5 678 417.25 665.5 c 128,-1,35
 409 653 409 653 395.5 646 c 1,36,-1
 395 515.5 l 1,37,-1
 480.5 597.5 l 1,38,39
 476.5 607 476.5 607 476.5 617.5 c 0,40,41
 476.5 639.5 476.5 639.5 493.5 655.25 c 128,-1,42
 510.5 671 510.5 671 535 671 c 128,-1,43
 559.5 671 559.5 671 576.25 655.25 c 128,-1,44
 593 639.5 593 639.5 593 617.5 c 128,-1,45
 593 595.5 593 595.5 576.25 579.5 c 128,-1,46
 559.5 563.5 559.5 563.5 535 563.5 c 0,47,48
 528.5 563.5 528.5 563.5 522.5 565 c 1,49,-1
 412 459 l 1,50,-1
 628.5 248.5 l 2,51,52
 636 241 636 241 636 231.5 c 128,-1,53
 636 222 636 222 628.5 214.5 c 2,54,-1
 387.5 -16 l 2,55,56
 379 -23.5 379 -23.5 366.5 -23.5 c 0,57,58
 355 -23.5 355 -23.5 347.5 -16 c 2,59,-1
 109.5 214.5 l 2,6,7
189.5 617 m 1,60,-1
 189.5 617.5 l 2,61,62
 189.5 621 189.5 621 186.5 621 c 0,63,64
 183 621 183 621 183 617.5 c 0,65,66
 183 613.5 183 613.5 186 613.5 c 1,67,-1
 189.5 617 l 1,60,-1
532 619 m 2,68,-1
 537 614.5 l 2,69,70
 538 615.5 538 615.5 538 617.5 c 0,71,72
 538 621 538 621 535 621 c 0,73,74
 532.5 621 532.5 621 532 619 c 2,68,-1
364.5 694 m 1,75,-1
 368 694 l 1,76,-1
 370.5 694 l 1,77,78
 370 697 370 697 367.5 697 c 128,-1,79
 365 697 365 697 364.5 694 c 1,75,-1
EndSplineSet
EndChar

StartChar: u1C3E2
Encoding: 115682 115682 102
Width: 738
VWidth: 1024
Flags: W
LayerCount: 2
Fore
SplineSet
167.5 307.5 m 1,0,-1
 368 113.5 l 1,1,-1
 571 307.5 l 1,2,-1
 369 504 l 1,3,4
 369 504 369 504 367.5 504 c 2,5,-1
 167.5 307.5 l 1,0,-1
110 290.5 m 2,6,7
 103 296.5 103 296.5 103 307.5 c 0,8,9
 103 318 103 318 110 324.5 c 2,10,-1
 323 534 l 1,11,-1
 206 638 l 1,12,13
 199.5 636 199.5 636 190.5 636 c 0,14,15
 166 636 166 636 149 652 c 128,-1,16
 132 668 132 668 132 690 c 128,-1,17
 132 712 132 712 149 727.75 c 128,-1,18
 166 743.5 166 743.5 190.5 743.5 c 128,-1,19
 215 743.5 215 743.5 231.75 727.75 c 128,-1,20
 248.5 712 248.5 712 248.5 690 c 0,21,22
 248.5 681 248.5 681 245.5 673 c 1,23,-1
 340.5 588.5 l 1,24,-1
 340 686 l 1,25,26
 325.5 693 325.5 693 317.25 705.5 c 128,-1,27
 309 718 309 718 309 733.5 c 0,28,29
 309 755.5 309 755.5 325.75 771.5 c 128,-1,30
 342.5 787.5 342.5 787.5 367 787.5 c 128,-1,31
 391.5 787.5 391.5 787.5 408.25 771.5 c 128,-1,32
 425 755.5 425 755.5 425 733.5 c 0,33,34
 425 718.5 425 718.5 416.75 706 c 128,-1,35
 408.5 693.5 408.5 693.5 395 686.5 c 1,36,-1
 395.5 591 l 1,37,-1
 472.5 665 l 1,38,39
 468.5 674.5 468.5 674.5 468.5 685 c 0,40,41
 468.5 707 468.5 707 485.5 722.75 c 128,-1,42
 502.5 738.5 502.5 738.5 527 738.5 c 128,-1,43
 551.5 738.5 551.5 738.5 568.25 722.75 c 128,-1,44
 585 707 585 707 585 685 c 128,-1,45
 585 663 585 663 568.25 647 c 128,-1,46
 551.5 631 551.5 631 527 631 c 0,47,48
 520.5 631 520.5 631 514.5 632.5 c 1,49,-1
 412.5 535 l 1,50,-1
 629 324.5 l 2,51,52
 636.5 317 636.5 317 636.5 307.5 c 128,-1,53
 636.5 298 636.5 298 629 290.5 c 2,54,-1
 410.5 81 l 1,55,-1
 557 -59.5 l 1,56,57
 553.5 -62.5 553.5 -62.5 547 -68 c 128,-1,58
 540.5 -73.5 540.5 -73.5 537 -76.5 c 0,59,60
 534 -79 534 -79 527 -85.25 c 128,-1,61
 520 -91.5 520 -91.5 517 -94 c 1,62,-1
 367.5 50 l 1,63,-1
 206.5 -94 l 1,64,-1
 167.5 -58 l 1,65,-1
 325 82 l 1,66,-1
 110 290.5 l 2,6,7
193.5 689.5 m 1,67,-1
 193.5 690 l 2,68,69
 193.5 693.5 193.5 693.5 190.5 693.5 c 0,70,71
 187 693.5 187 693.5 187 690 c 0,72,73
 187 686 187 686 190 686 c 1,74,-1
 193.5 689.5 l 1,67,-1
524 686.5 m 2,75,-1
 529 682 l 2,76,77
 530 683 530 683 530 685 c 0,78,79
 530 688.5 530 688.5 527 688.5 c 0,80,81
 524.5 688.5 524.5 688.5 524 686.5 c 2,75,-1
364 734.5 m 1,82,-1
 370 734.5 l 1,83,84
 369 737.5 369 737.5 367 737.5 c 128,-1,85
 365 737.5 365 737.5 364 734.5 c 1,82,-1
EndSplineSet
EndChar

StartChar: u1C3E3
Encoding: 115683 115683 103
Width: 736
VWidth: 1024
Flags: W
LayerCount: 2
Fore
SplineSet
393.5 -77.5 m 1,0,-1
 340.5 -82.5 l 1,1,-1
 340.5 94 l 1,2,3
 338 95 338 95 333 98 c 1,4,-1
 202 -19 l 1,5,-1
 169 19 l 1,6,-1
 305.5 140.5 l 1,7,8
 305 144 305 144 305 150.5 c 0,9,10
 305 159.5 305 159.5 307.5 168.5 c 1,11,-1
 109 363 l 2,12,13
 102.5 369.5 102.5 369.5 102.5 380 c 0,14,15
 102.5 393 102.5 393 111 400.5 c 2,16,-1
 349 631 l 2,17,18
 357 639 357 639 369 639 c 0,19,20
 379 639 379 639 385.5 633 c 2,21,-1
 626.5 402.5 l 2,22,23
 633.5 396 633.5 396 633.5 385 c 0,24,25
 633.5 372 633.5 372 625 364.5 c 2,26,-1
 426 172 l 1,27,28
 428 162 428 162 428 156 c 0,29,30
 428 149 428 149 426.5 142 c 1,31,-1
 554.5 19 l 1,32,-1
 516.5 -20.5 l 1,33,-1
 393.5 97.5 l 2,34,35
 393 97.5 393 97.5 393 97 c 2,36,-1
 393.5 -77.5 l 1,0,-1
395.5 211.5 m 1,37,-1
 569.5 381 l 1,38,-1
 365 577 l 1,39,-1
 166 384.5 l 1,40,-1
 342 211.5 l 1,41,42
 355 218 355 218 369 218 c 0,43,44
 382.5 218 382.5 218 395.5 211.5 c 1,37,-1
EndSplineSet
EndChar

StartChar: u1C3E4
Encoding: 115684 115684 104
Width: 738
VWidth: 1024
Flags: W
LayerCount: 2
Fore
SplineSet
368 694 m 1,0,1
 368 694 368 694 395.5 694 c 1,2,-1
 395 515.5 l 1,3,-1
 516.5 632 l 1,4,-1
 556.5 597.5 l 1,5,-1
 432.5 478.5 l 1,6,-1
 574.5 478.5 l 1,7,-1
 574.5 428.5 l 1,8,-1
 443.5 428.5 l 1,9,-1
 628.5 248.5 l 2,10,11
 636 241 636 241 636 231.5 c 128,-1,12
 636 222 636 222 628.5 214.5 c 2,13,-1
 387.5 -16 l 2,14,15
 379 -23.5 379 -23.5 366.5 -23.5 c 0,16,17
 355 -23.5 355 -23.5 347.5 -16 c 2,18,-1
 109.5 214.5 l 2,19,20
 102.5 220.5 102.5 220.5 102.5 231.5 c 0,21,22
 102.5 242 102.5 242 109.5 248.5 c 2,23,-1
 292.5 428.5 l 1,24,-1
 139.5 428.5 l 1,25,-1
 139.5 478.5 l 1,26,-1
 299.5 478.5 l 1,27,-1
 167 596.5 l 1,28,-1
 206 632 l 1,29,-1
 340 512 l 1,30,-1
 340.5 694 l 1,31,-1
 368 694 l 1,0,1
167 231.5 m 1,32,-1
 367.5 37.5 l 1,33,-1
 570.5 231.5 l 1,34,-1
 368.5 428 l 1,35,-1
 367 428 l 1,36,-1
 167 231.5 l 1,32,-1
EndSplineSet
EndChar

StartChar: u1C3E5
Encoding: 115685 115685 105
Width: 738
VWidth: 1024
Flags: W
LayerCount: 2
Fore
SplineSet
396 -74.5 m 1,0,-1
 341 -74.5 l 1,1,-1
 340.5 107 l 1,2,-1
 206.5 -12.5 l 1,3,-1
 167.5 23 l 1,4,-1
 299.5 141 l 1,5,-1
 140 141 l 1,6,-1
 140 191 l 1,7,-1
 293 191 l 1,8,-1
 110 371 l 2,9,10
 103 377.5 103 377.5 103 388 c 0,11,12
 103 399 103 399 110 405 c 2,13,-1
 348 635.5 l 2,14,15
 356 643 356 643 368 643 c 0,16,17
 380.5 643 380.5 643 388 635.5 c 2,18,-1
 629 405 l 2,19,20
 636.5 397.5 636.5 397.5 636.5 388 c 128,-1,21
 636.5 378.5 636.5 378.5 629 371 c 2,22,-1
 443.5 191 l 1,23,-1
 575 191 l 1,24,-1
 575 141 l 1,25,-1
 433 141 l 1,26,-1
 557 22 l 1,27,28
 553.5 19 553.5 19 546.75 13.25 c 128,-1,29
 540 7.5 540 7.5 537 4.5 c 0,30,31
 534 2 534 2 527 -3.75 c 128,-1,32
 520 -9.5 520 -9.5 517 -12.5 c 1,33,-1
 395.5 104 l 1,34,-1
 396 -74.5 l 1,0,-1
369 191.5 m 1,35,-1
 571 388 l 1,36,-1
 368 582 l 1,37,-1
 167.5 388 l 1,38,-1
 367 191.5 l 2,39,40
 367.5 191.5 367.5 191.5 368 191.5 c 2,41,-1
 369 191.5 l 1,35,-1
EndSplineSet
EndChar

StartChar: u1C3E6
Encoding: 115686 115686 106
Width: 738
VWidth: 1024
Flags: W
LayerCount: 2
Fore
SplineSet
368 694 m 1,0,1
 368 694 368 694 395.5 694 c 1,2,-1
 395 515.5 l 1,3,-1
 516.5 632 l 1,4,-1
 556.5 597.5 l 1,5,-1
 432.5 478.5 l 1,6,-1
 574.5 478.5 l 1,7,-1
 574.5 428.5 l 1,8,-1
 443.5 428.5 l 1,9,-1
 628.5 248.5 l 2,10,11
 636 241 636 241 636 231.5 c 128,-1,12
 636 222 636 222 628.5 214.5 c 2,13,-1
 387.5 -16 l 2,14,15
 379 -23.5 379 -23.5 366.5 -23.5 c 0,16,17
 355 -23.5 355 -23.5 347.5 -16 c 2,18,-1
 109.5 214.5 l 2,19,20
 102.5 220.5 102.5 220.5 102.5 231.5 c 0,21,22
 102.5 242 102.5 242 109.5 248.5 c 2,23,-1
 292.5 428.5 l 1,24,-1
 139.5 428.5 l 1,25,-1
 139.5 478.5 l 1,26,-1
 299.5 478.5 l 1,27,-1
 167 596.5 l 1,28,-1
 206 632 l 1,29,-1
 340 512 l 1,30,-1
 340.5 694 l 1,31,-1
 368 694 l 1,0,1
167 231.5 m 1,32,-1
 367.5 37.5 l 1,33,-1
 570.5 231.5 l 1,34,-1
 368.5 428 l 1,35,-1
 367 428 l 1,36,-1
 167 231.5 l 1,32,-1
EndSplineSet
EndChar

StartChar: u1C3E7
Encoding: 115687 115687 107
Width: 864
VWidth: 1024
Flags: W
LayerCount: 2
Fore
SplineSet
280.5 290 m 2,0,1
 273.5 297 273.5 297 273.5 307 c 128,-1,2
 273.5 317 273.5 317 280 323.5 c 2,3,-1
 405 452.5 l 2,4,5
 413 460.5 413 460.5 425.5 460.5 c 128,-1,6
 438 460.5 438 460.5 445.5 453 c 2,7,-1
 578 324 l 2,8,9
 585 317 585 317 585 307 c 128,-1,10
 585 297 585 297 578 290 c 2,11,-1
 449 163 l 2,12,13
 440.5 155.5 440.5 155.5 428 155.5 c 0,14,15
 416 155.5 416 155.5 408.5 163 c 2,16,-1
 280.5 290 l 2,0,1
338 307.5 m 1,17,-1
 429 217 l 1,18,-1
 520.5 307 l 1,19,-1
 426 399 l 1,20,-1
 338 307.5 l 1,17,-1
423 618.5 m 1024,21,-1
109.5 290.5 m 2,22,23
 102.5 297.5 102.5 297.5 102.5 307.5 c 0,24,25
 102.5 317 102.5 317 109 323.5 c 2,26,-1
 402 634.5 l 2,27,28
 409 642.5 409 642.5 423.5 642.5 c 0,29,30
 435.5 642.5 435.5 642.5 443 635 c 2,31,-1
 754.5 324 l 2,32,33
 761.5 317 761.5 317 761.5 307 c 0,34,35
 761.5 297.5 761.5 297.5 754.5 290.5 c 2,36,-1
 451.5 -17 l 2,37,38
 444 -24.5 444 -24.5 430.5 -24.5 c 0,39,40
 418 -24.5 418 -24.5 410.5 -16.5 c 2,41,-1
 109.5 290.5 l 2,22,23
166.5 307.5 m 1,42,-1
 431 37.5 l 1,43,-1
 697 307 l 1,44,-1
 423.5 580.5 l 1,45,-1
 166.5 307.5 l 1,42,-1
EndSplineSet
EndChar

StartChar: u1C3E8
Encoding: 115688 115688 108
Width: 877
VWidth: 1024
Flags: W
LayerCount: 2
Fore
SplineSet
167 307 m 1,0,-1
 437.5 37 l 1,1,-1
 711 307 l 1,2,-1
 437 581 l 1,3,-1
 167 307 l 1,0,-1
109.5 290 m 2,4,5
 102.5 297 102.5 297 102.5 307 c 0,6,7
 102.5 316.5 102.5 316.5 109.5 323.5 c 2,8,-1
 416.5 635 l 2,9,10
 423.5 643 423.5 643 438.5 643 c 0,11,12
 450 643 450 643 457.5 635.5 c 2,13,-1
 768.5 324 l 2,14,15
 775 317.5 775 317.5 775 307.5 c 0,16,17
 775 297 775 297 768 290 c 2,18,-1
 457.5 -17 l 2,19,20
 450 -24.5 450 -24.5 437 -24.5 c 0,21,22
 424.5 -24.5 424.5 -24.5 417 -17 c 2,23,-1
 109.5 290 l 2,4,5
393.5 306 m 1,24,-1
 335.5 344 l 1,25,-1
 335.5 266.5 l 1,26,-1
 393.5 306 l 1,24,-1
431 331.5 m 1,27,-1
 537 403.5 l 2,28,29
 543.5 407.5 543.5 407.5 550.5 407.5 c 0,30,31
 562 407.5 562 407.5 568.5 400 c 0,32,33
 573.5 394 573.5 394 573.5 387.5 c 2,34,-1
 573.5 228 l 2,35,36
 573.5 219.5 573.5 219.5 567 213.75 c 128,-1,37
 560.5 208 560.5 208 551 208 c 0,38,39
 545.5 208 545.5 208 537.5 212 c 2,40,-1
 431.5 281.5 l 1,41,-1
 327 210.5 l 2,42,43
 319 206 319 206 313 206 c 0,44,45
 303.5 206 303.5 206 297 211.75 c 128,-1,46
 290.5 217.5 290.5 217.5 290.5 226 c 2,47,-1
 290.5 384 l 2,48,49
 290.5 390 290.5 390 295 395.5 c 0,50,51
 302 404 302 404 313.5 404 c 0,52,53
 320 404 320 404 326.5 400 c 2,54,-1
 431 331.5 l 1,27,-1
468.5 307 m 1,55,-1
 528.5 267.5 l 1,56,-1
 528.5 347.5 l 1,57,-1
 468.5 307 l 1,55,-1
EndSplineSet
EndChar

StartChar: u1C3E9
Encoding: 115689 115689 109
Width: 877
VWidth: 1024
Flags: W
LayerCount: 2
Fore
SplineSet
454.5 148.5 m 2,0,1
 448 142 448 142 437 142 c 0,2,3
 427.5 142 427.5 142 421 148.5 c 2,4,-1
 276 293.5 l 2,5,6
 271 298.5 271 298.5 270.75 306 c 128,-1,7
 270.5 313.5 270.5 313.5 275.5 319.5 c 2,8,-1
 344.5 397 l 1,9,-1
 347 399.5 l 2,10,11
 353 404 353 404 361.5 404 c 0,12,13
 372.5 404 372.5 404 379 397.5 c 2,14,-1
 438 338 l 1,15,-1
 495 400.5 l 1,16,17
 495 400.5 495 400.5 496.5 402 c 0,18,19
 498 403 498 403 498.5 403.5 c 0,20,21
 504.5 408 504.5 408 512.5 408 c 0,22,23
 523 408 523 408 530 400.5 c 2,24,-1
 602.5 319.5 l 2,25,26
 607.5 314.5 607.5 314.5 607.25 306.75 c 128,-1,27
 607 299 607 299 601.5 293.5 c 2,28,-1
 454.5 148.5 l 2,0,1
438 192 m 1,29,-1
 555.5 308 l 1,30,-1
 512.5 356 l 1,31,-1
 456.5 294.5 l 2,32,33
 450 287.5 450 287.5 439.5 287.5 c 0,34,35
 428.5 287.5 428.5 287.5 422 294 c 2,36,-1
 363 353.5 l 1,37,-1
 322.5 307.5 l 1,38,-1
 438 192 l 1,29,-1
109.5 290 m 2,39,40
 102.5 297 102.5 297 102.5 307 c 0,41,42
 102.5 316.5 102.5 316.5 109.5 323.5 c 2,43,-1
 416.5 635 l 2,44,45
 423.5 643 423.5 643 438.5 643 c 0,46,47
 450 643 450 643 457.5 635.5 c 2,48,-1
 768.5 324 l 2,49,50
 775 317.5 775 317.5 775 307.5 c 0,51,52
 775 297 775 297 768 290 c 2,53,-1
 457.5 -17 l 2,54,55
 450 -24.5 450 -24.5 437 -24.5 c 0,56,57
 424.5 -24.5 424.5 -24.5 417 -17 c 2,58,-1
 109.5 290 l 2,39,40
167 307 m 1,59,-1
 437.5 37 l 1,60,-1
 711 307 l 1,61,-1
 437 581 l 1,62,-1
 167 307 l 1,59,-1
EndSplineSet
EndChar

StartChar: u1C3EA
Encoding: 115690 115690 110
Width: 872
VWidth: 1024
Flags: W
LayerCount: 2
Fore
SplineSet
164.5 307 m 1,0,-1
 435 37 l 1,1,-1
 708 307 l 1,2,-1
 434.5 581 l 1,3,-1
 164.5 307 l 1,0,-1
110.5 286.5 m 2,4,5
 103.5 294 103.5 294 102.75 306 c 128,-1,6
 102 318 102 318 110.5 327 c 2,7,-1
 397.5 618.5 l 1,8,-1
 280 735 l 1,9,-1
 205 609 l 1,10,-1
 184 624 l 1,11,-1
 163 639 l 1,12,-1
 254 792 l 2,13,14
 259.5 801 259.5 801 270.75 803.5 c 128,-1,15
 282 806 282 806 291.5 797.5 c 2,16,-1
 451 639 l 1,17,-1
 762 327.5 l 2,18,19
 769.5 320 769.5 320 770 307.75 c 128,-1,20
 770.5 295.5 770.5 295.5 762 286.5 c 2,21,-1
 451.5 -20.5 l 2,22,23
 447 -25 447 -25 441.25 -26.5 c 128,-1,24
 435.5 -28 435.5 -28 429.25 -26.5 c 128,-1,25
 423 -25 423 -25 418 -20.5 c 2,26,-1
 110.5 286.5 l 2,4,5
305 269.5 m 1,27,-1
 318.5 286 l 1,28,-1
 374 226.5 l 1,29,-1
 410 269.5 l 1,30,-1
 342 348.5 l 1,31,-1
 356.5 364 l 1,32,-1
 371 379.5 l 1,33,-1
 437 302 l 1,34,-1
 501.5 379.5 l 1,35,-1
 516 364 l 1,36,-1
 530.5 348.5 l 1,37,-1
 465 270 l 1,38,-1
 500.5 228.5 l 1,39,-1
 552.5 285.5 l 1,40,-1
 566.5 269.5 l 1,41,-1
 580 253.5 l 1,42,-1
 451 111.5 l 2,43,44
 445.5 105.5 445.5 105.5 437.25 105.5 c 128,-1,45
 429 105.5 429 105.5 423 111.5 c 2,46,-1
 291 253.5 l 1,47,-1
 305 269.5 l 1,27,-1
471.5 197 m 1,48,-1
 437.5 237 l 1,49,-1
 403 195.5 l 1,50,-1
 437 159 l 1,51,-1
 471.5 197 l 1,48,-1
EndSplineSet
EndChar

StartChar: u1C3EB
Encoding: 115691 115691 111
Width: 790
VWidth: 1024
Flags: W
LayerCount: 2
Fore
SplineSet
299 423 m 1,0,-1
 299 191.5 l 1,1,-1
 504 191.5 l 1,2,-1
 504 423 l 1,3,-1
 299 423 l 1,0,-1
271.5 474 m 2,4,-1
 531.5 474 l 2,5,6
 543 474 543 474 551.5 466.75 c 128,-1,7
 560 459.5 560 459.5 560 448.5 c 2,8,-1
 560 166 l 2,9,10
 560 155 560 155 551.5 147.5 c 128,-1,11
 543 140 543 140 531.5 140 c 2,12,-1
 271.5 140 l 2,13,14
 260 140 260 140 251.25 147.5 c 128,-1,15
 242.5 155 242.5 155 242.5 166 c 2,16,-1
 242.5 448.5 l 2,17,18
 242.5 459 242.5 459 251 466.5 c 128,-1,19
 259.5 474 259.5 474 271.5 474 c 2,4,-1
157.5 542.5 m 1,20,-1
 157.5 74.5 l 1,21,-1
 632 74.5 l 1,22,-1
 632 542.5 l 1,23,-1
 157.5 542.5 l 1,20,-1
130 594 m 2,24,-1
 660.5 594 l 2,25,26
 672 594 672 594 680 586.5 c 128,-1,27
 688 579 688 579 688 568 c 2,28,-1
 688 49 l 2,29,30
 688 38 688 38 680 30.75 c 128,-1,31
 672 23.5 672 23.5 660.5 23.5 c 2,32,-1
 130 23.5 l 2,33,34
 118.5 23.5 118.5 23.5 110 30.75 c 128,-1,35
 101.5 38 101.5 38 101.5 49 c 2,36,-1
 101.5 568 l 2,37,38
 101.5 579 101.5 579 110 586.5 c 128,-1,39
 118.5 594 118.5 594 130 594 c 2,24,-1
EndSplineSet
EndChar

StartChar: u1C3EC
Encoding: 115692 115692 112
Width: 530
VWidth: 1024
Flags: W
LayerCount: 2
Fore
SplineSet
108.5 137.5 m 2,0,1
 102.5 144.5 102.5 144.5 102.5 153.5 c 0,2,3
 102.5 162 102.5 162 108.5 169 c 2,4,-1
 242.5 321 l 2,5,6
 245 324 245 324 246.5 325 c 0,7,8
 254.5 330.5 254.5 330.5 264 330.5 c 0,9,10
 277 330.5 277 330.5 285.5 321.5 c 2,11,-1
 422 169.5 l 2,12,13
 428 162.5 428 162.5 428 153.5 c 0,14,15
 428 144 428 144 421.5 137.5 c 2,16,-1
 285.5 -12.5 l 2,17,18
 283.5 -15 283.5 -15 282 -16 c 0,19,20
 274 -21.5 274 -21.5 264.5 -21.5 c 0,21,22
 251 -21.5 251 -21.5 243 -12.5 c 2,23,-1
 108.5 137.5 l 2,0,1
165.5 153.5 m 1,24,-1
 264.5 43 l 1,25,-1
 365 153.5 l 1,26,-1
 264 265.5 l 1,27,-1
 165.5 153.5 l 1,24,-1
EndSplineSet
EndChar

StartChar: u1C3ED
Encoding: 115693 115693 113
Width: 877
VWidth: 1024
Flags: W
LayerCount: 2
Fore
SplineSet
110.5 287.5 m 2,0,1
 104 294 104 294 104 305 c 0,2,3
 104 316.5 104 316.5 112 324.5 c 2,4,-1
 419 636 l 2,5,6
 427.5 644.5 427.5 644.5 440 644.5 c 0,7,8
 450 644.5 450 644.5 456.5 638 c 2,9,-1
 767.5 326.5 l 2,10,11
 774 320 774 320 774 309 c 0,12,13
 774 297.5 774 297.5 765.5 289 c 2,14,-1
 455 -18 l 2,15,16
 447 -26 447 -26 435 -26 c 0,17,18
 424.5 -26 424.5 -26 418 -19.5 c 2,19,-1
 110.5 287.5 l 2,0,1
559 155 m 1,20,-1
 439.5 271 l 1,21,-1
 321.5 155 l 1,22,-1
 439.5 37 l 1,23,-1
 559 155 l 1,20,-1
281 424.5 m 1,24,-1
 191 333.5 l 1,25,-1
 375 333.5 l 1,26,-1
 281 424.5 l 1,24,-1
598 194 m 1,27,-1
 686 280.5 l 1,28,-1
 508.5 280.5 l 1,29,-1
 598 194 l 1,27,-1
319.5 463.5 m 1,30,-1
 442.5 344.5 l 1,31,-1
 558 458.5 l 1,32,-1
 435.5 581 l 1,33,-1
 319.5 463.5 l 1,30,-1
593.5 423 m 1,34,-1
 502.5 333.5 l 1,35,-1
 683 333.5 l 1,36,-1
 593.5 423 l 1,34,-1
286 190 m 1,37,-1
 378 280.5 l 1,38,-1
 195 280.5 l 1,39,-1
 286 190 l 1,37,-1
EndSplineSet
EndChar

StartChar: u1C3EE
Encoding: 115694 115694 114
Width: 738
VWidth: 1024
Flags: W
LayerCount: 2
Fore
SplineSet
517.5 38 m 1,0,-1
 477.5 4 l 1,1,-1
 348 131.5 l 1,2,-1
 110 365.5 l 2,3,4
 103 372 103 372 103 382.5 c 0,5,6
 103 393.5 103 393.5 110 399.5 c 2,7,-1
 348 630 l 2,8,9
 356 637.5 356 637.5 368 637.5 c 0,10,11
 380.5 637.5 380.5 637.5 388 630 c 2,12,-1
 629 399.5 l 2,13,14
 636.5 392 636.5 392 636.5 382.5 c 128,-1,15
 636.5 373 636.5 373 629 365.5 c 2,16,-1
 489 229.5 l 1,17,-1
 603 119 l 1,18,-1
 563 85 l 1,19,-1
 451.5 193 l 1,20,-1
 405.5 148.5 l 1,21,-1
 517.5 38 l 1,0,-1
167.5 382.5 m 1,22,-1
 368 185 l 1,23,-1
 571 382.5 l 1,24,-1
 368 576.5 l 1,25,-1
 167.5 382.5 l 1,22,-1
EndSplineSet
EndChar

StartChar: u1C3EF
Encoding: 115695 115695 115
Width: 864
VWidth: 1024
Flags: W
LayerCount: 2
Fore
SplineSet
166.5 307.5 m 1,0,-1
 431 37.5 l 1,1,-1
 697 307 l 1,2,-1
 423.5 580.5 l 1,3,-1
 166.5 307.5 l 1,0,-1
109.5 290.5 m 2,4,5
 102.5 297.5 102.5 297.5 102.5 307 c 128,-1,6
 102.5 316.5 102.5 316.5 109 323 c 2,7,-1
 402 634.5 l 1,8,-1
 402.5 635 l 1,9,-1
 556 792 l 2,10,11
 560 796 560 796 565 798 c 0,12,13
 569.5 800 569.5 800 576.5 800 c 0,14,15
 594.5 800 594.5 800 601.5 786 c 2,16,-1
 682 626 l 1,17,-1
 632 605 l 1,18,-1
 569 730 l 1,19,-1
 460 618.5 l 1,20,-1
 754.5 324 l 2,21,22
 761.5 317 761.5 317 761.5 307 c 0,23,24
 761.5 297.5 761.5 297.5 754.5 290.5 c 2,25,-1
 451.5 -16.5 l 2,26,27
 443.5 -24.5 443.5 -24.5 430 -24.5 c 0,28,29
 418.5 -24.5 418.5 -24.5 410.5 -16.5 c 2,30,-1
 109.5 290.5 l 2,4,5
381.5 447 m 128,-1,32
 381.5 462.5 381.5 462.5 393.25 474.5 c 128,-1,33
 405 486.5 405 486.5 423.5 486.5 c 128,-1,34
 442 486.5 442 486.5 453.75 474.5 c 128,-1,35
 465.5 462.5 465.5 462.5 465.5 447 c 128,-1,36
 465.5 431.5 465.5 431.5 453.75 419.5 c 128,-1,37
 442 407.5 442 407.5 423.5 407.5 c 128,-1,38
 405 407.5 405 407.5 393.25 419.5 c 128,-1,31
 381.5 431.5 381.5 431.5 381.5 447 c 128,-1,32
282 339 m 128,-1,40
 282 354.5 282 354.5 293.75 366.5 c 128,-1,41
 305.5 378.5 305.5 378.5 324 378.5 c 128,-1,42
 342.5 378.5 342.5 378.5 354.25 366.5 c 128,-1,43
 366 354.5 366 354.5 366 339 c 128,-1,44
 366 323.5 366 323.5 354.25 311.5 c 128,-1,45
 342.5 299.5 342.5 299.5 324 299.5 c 128,-1,46
 305.5 299.5 305.5 299.5 293.75 311.5 c 128,-1,39
 282 323.5 282 323.5 282 339 c 128,-1,40
278 228 m 128,-1,48
 278 243.5 278 243.5 289.75 255.5 c 128,-1,49
 301.5 267.5 301.5 267.5 320 267.5 c 128,-1,50
 338.5 267.5 338.5 267.5 350.25 255.5 c 128,-1,51
 362 243.5 362 243.5 362 228 c 128,-1,52
 362 212.5 362 212.5 350.25 200.5 c 128,-1,53
 338.5 188.5 338.5 188.5 320 188.5 c 128,-1,54
 301.5 188.5 301.5 188.5 289.75 200.5 c 128,-1,47
 278 212.5 278 212.5 278 228 c 128,-1,48
399.5 319.5 m 128,-1,56
 399.5 335 399.5 335 411.25 347 c 128,-1,57
 423 359 423 359 441.5 359 c 128,-1,58
 460 359 460 359 471.75 347 c 128,-1,59
 483.5 335 483.5 335 483.5 319.5 c 128,-1,60
 483.5 304 483.5 304 471.75 292 c 128,-1,61
 460 280 460 280 441.5 280 c 128,-1,62
 423 280 423 280 411.25 292 c 128,-1,55
 399.5 304 399.5 304 399.5 319.5 c 128,-1,56
517.5 354 m 128,-1,64
 517.5 369.5 517.5 369.5 529.25 381.5 c 128,-1,65
 541 393.5 541 393.5 559.5 393.5 c 128,-1,66
 578 393.5 578 393.5 589.75 381.5 c 128,-1,67
 601.5 369.5 601.5 369.5 601.5 354 c 128,-1,68
 601.5 338.5 601.5 338.5 589.75 326.5 c 128,-1,69
 578 314.5 578 314.5 559.5 314.5 c 128,-1,70
 541 314.5 541 314.5 529.25 326.5 c 128,-1,63
 517.5 338.5 517.5 338.5 517.5 354 c 128,-1,64
387.5 151.5 m 128,-1,72
 387.5 167 387.5 167 399.25 179 c 128,-1,73
 411 191 411 191 429.5 191 c 128,-1,74
 448 191 448 191 459.75 179 c 128,-1,75
 471.5 167 471.5 167 471.5 151.5 c 128,-1,76
 471.5 136 471.5 136 459.75 124 c 128,-1,77
 448 112 448 112 429.5 112 c 128,-1,78
 411 112 411 112 399.25 124 c 128,-1,71
 387.5 136 387.5 136 387.5 151.5 c 128,-1,72
471.5 240 m 128,-1,80
 471.5 255.5 471.5 255.5 483.25 267.5 c 128,-1,81
 495 279.5 495 279.5 513.5 279.5 c 128,-1,82
 532 279.5 532 279.5 543.75 267.5 c 128,-1,83
 555.5 255.5 555.5 255.5 555.5 240 c 128,-1,84
 555.5 224.5 555.5 224.5 543.75 212.5 c 128,-1,85
 532 200.5 532 200.5 513.5 200.5 c 128,-1,86
 495 200.5 495 200.5 483.25 212.5 c 128,-1,79
 471.5 224.5 471.5 224.5 471.5 240 c 128,-1,80
EndSplineSet
EndChar

StartChar: u1C3F0
Encoding: 115696 115696 116
Width: 864
VWidth: 1024
Flags: W
LayerCount: 2
Fore
SplineSet
166.5 307.5 m 1,0,-1
 431 37.5 l 1,1,-1
 697 307 l 1,2,-1
 423.5 580.5 l 1,3,-1
 166.5 307.5 l 1,0,-1
109.5 290.5 m 2,4,5
 102.5 297.5 102.5 297.5 102.5 307 c 128,-1,6
 102.5 316.5 102.5 316.5 109 323 c 2,7,-1
 402 634.5 l 1,8,-1
 402.5 635 l 1,9,-1
 556 792 l 2,10,11
 559 795 559 795 561 796 c 0,12,13
 568.5 800.5 568.5 800.5 576.5 800.5 c 0,14,15
 591 800.5 591 800.5 599.5 789.5 c 2,16,-1
 660.5 707.5 l 1,17,-1
 614.5 679.5 l 1,18,-1
 573.5 735 l 1,19,-1
 460 618.5 l 1,20,-1
 754.5 324 l 2,21,22
 761.5 317 761.5 317 761.5 307 c 0,23,24
 761.5 297.5 761.5 297.5 754.5 290.5 c 2,25,-1
 451.5 -16.5 l 2,26,27
 443.5 -24.5 443.5 -24.5 430 -24.5 c 0,28,29
 418.5 -24.5 418.5 -24.5 410.5 -16.5 c 2,30,-1
 109.5 290.5 l 2,4,5
EndSplineSet
EndChar

StartChar: u1C3F1
Encoding: 115697 115697 117
Width: 864
VWidth: 1024
Flags: W
LayerCount: 2
Fore
SplineSet
166.5 307.5 m 1,0,-1
 431 37.5 l 1,1,-1
 489.5 96.5 l 1,2,-1
 223.5 368 l 1,3,-1
 166.5 307.5 l 1,0,-1
109.5 290.5 m 2,4,5
 102.5 297.5 102.5 297.5 102.5 306.75 c 128,-1,6
 102.5 316 102.5 316 109 323 c 2,7,-1
 395.5 628 l 1,8,-1
 397.5 736.5 l 1,9,-1
 328.5 695.5 l 1,10,-1
 298.5 737.5 l 1,11,-1
 411 804.5 l 2,12,13
 418 808.5 418 808.5 426.5 808.5 c 0,14,15
 437.5 808.5 437.5 808.5 445.5 800.75 c 128,-1,16
 453.5 793 453.5 793 453.5 783 c 2,17,-1
 450.5 628.5 l 1,18,-1
 754.5 324 l 2,19,20
 761 317.5 761 317.5 761.25 307.75 c 128,-1,21
 761.5 298 761.5 298 754.5 290.5 c 2,22,-1
 451.5 -16.5 l 2,23,24
 445 -23 445 -23 433 -24.25 c 128,-1,25
 421 -25.5 421 -25.5 410.5 -16.5 c 2,26,-1
 109.5 290.5 l 2,4,5
526 134 m 1,27,-1
 588 196.5 l 1,28,-1
 319.5 470 l 1,29,-1
 259.5 406.5 l 1,30,-1
 526 134 l 1,27,-1
624.5 233.5 m 1,31,-1
 697 307 l 1,32,-1
 423.5 580.5 l 1,33,-1
 355.5 508.5 l 1,34,-1
 624.5 233.5 l 1,31,-1
EndSplineSet
EndChar

StartChar: u1C3F2
Encoding: 115698 115698 118
Width: 864
VWidth: 1024
Flags: W
LayerCount: 2
Fore
SplineSet
109.5 290.5 m 2,0,1
 102.5 297.5 102.5 297.5 102.5 307 c 128,-1,2
 102.5 316.5 102.5 316.5 109 323 c 2,3,-1
 402 634.5 l 1,4,-1
 402.5 635 l 1,5,-1
 556 792 l 2,6,7
 559 795 559 795 561 796 c 0,8,9
 568.5 800.5 568.5 800.5 576.5 800.5 c 0,10,11
 591 800.5 591 800.5 599.5 789.5 c 2,12,-1
 660.5 707.5 l 1,13,-1
 614.5 679.5 l 1,14,-1
 573.5 735 l 1,15,-1
 460 618.5 l 1,16,-1
 754.5 324 l 2,17,18
 761.5 317 761.5 317 761.5 307 c 0,19,20
 761.5 297.5 761.5 297.5 754.5 290.5 c 2,21,-1
 451.5 -16.5 l 2,22,23
 443.5 -24.5 443.5 -24.5 430 -24.5 c 0,24,25
 418.5 -24.5 418.5 -24.5 410.5 -16.5 c 2,26,-1
 109.5 290.5 l 2,0,1
672 332 m 1,27,-1
 423.5 580.5 l 1,28,-1
 189.5 332 l 1,29,-1
 672 332 l 1,27,-1
191.5 282 m 1,30,-1
 431 37.5 l 1,31,-1
 672.5 282 l 1,32,-1
 191.5 282 l 1,30,-1
EndSplineSet
EndChar

StartChar: u1C3F3
Encoding: 115699 115699 119
Width: 577
VWidth: 1024
Flags: W
LayerCount: 2
Fore
SplineSet
101.5 42 m 2,0,-1
 101.5 577.5 l 2,1,2
 101.5 587 101.5 587 110.5 596 c 2,3,-1
 269.5 739 l 2,4,5
 278.5 746.5 278.5 746.5 289.5 746.5 c 0,6,7
 301 746.5 301 746.5 309 739 c 2,8,-1
 467 595 l 2,9,10
 475 587 475 587 475 576.5 c 2,11,-1
 475 40 l 2,12,13
 475 29.5 475 29.5 467 21.5 c 2,14,-1
 308 -121 l 2,15,16
 299.5 -128 299.5 -128 288.5 -128 c 0,17,18
 277 -128 277 -128 269.5 -121 c 2,19,-1
 110.5 23.5 l 2,20,21
 101.5 32.5 101.5 32.5 101.5 42 c 2,0,-1
420 111.5 m 1,22,-1
 420 281.5 l 1,23,-1
 157.5 281.5 l 1,24,-1
 157.5 112.5 l 1,25,-1
 420 111.5 l 1,22,-1
420 60.5 m 1,26,-1
 157.5 61.5 l 1,27,-1
 157.5 52 l 1,28,-1
 289 -66.5 l 1,29,-1
 420 50 l 1,30,-1
 420 60.5 l 1,26,-1
157.5 332.5 m 1,31,-1
 420 332.5 l 1,32,-1
 420 503.5 l 1,33,-1
 157.5 503.5 l 1,34,-1
 157.5 332.5 l 1,31,-1
157.5 555 m 1,35,-1
 420 555 l 1,36,-1
 420 566 l 1,37,-1
 289 685 l 1,38,-1
 157.5 567 l 1,39,-1
 157.5 555 l 1,35,-1
EndSplineSet
EndChar

StartChar: u1C3F4
Encoding: 115700 115700 120
Width: 535
VWidth: 1024
Flags: W
LayerCount: 2
Fore
SplineSet
190 159 m 1,0,1
 218.5 97.5 218.5 97.5 269 39.5 c 1,2,3
 320.5 99.5 320.5 99.5 347.5 159 c 1,4,-1
 190 159 l 1,0,1
171 209 m 1,5,-1
 365.5 209 l 1,6,7
 375.5 246 375.5 246 377 282 c 1,8,-1
 158 282 l 1,9,10
 160 246 160 246 171 209 c 1,5,-1
171 395.5 m 1,11,12
 162 363 162 363 159 332 c 1,13,-1
 375.5 332 l 1,14,15
 371.5 366 371.5 366 362.5 395.5 c 1,16,-1
 171 395.5 l 1,11,12
188.5 445.5 m 1,17,-1
 344.5 445.5 l 1,18,19
 316.5 509 316.5 509 265.5 575 c 1,20,21
 215 508.5 215 508.5 188.5 445.5 c 1,17,-1
288 -18.5 m 1,22,23
 279.5 -24.5 279.5 -24.5 268 -24.5 c 0,24,25
 255 -24.5 255 -24.5 248 -16.5 c 0,26,27
 102.5 136.5 102.5 136.5 102.5 301.5 c 0,28,29
 102.5 462.5 102.5 462.5 243.5 632.5 c 0,30,31
 247 636 247 636 249 637.5 c 0,32,33
 256 642.5 256 642.5 265.5 642.5 c 0,34,35
 272 642.5 272 642.5 277.75 640 c 128,-1,36
 283.5 637.5 283.5 637.5 287.5 632.5 c 0,37,38
 432.5 460 432.5 460 432.5 296.5 c 0,39,40
 432.5 133.5 432.5 133.5 288 -18.5 c 1,22,23
EndSplineSet
EndChar

StartChar: u1C3F5
Encoding: 115701 115701 121
Width: 577
VWidth: 1024
Flags: W
LayerCount: 2
Fore
SplineSet
101.5 42 m 2,0,-1
 101.5 577.5 l 2,1,2
 101.5 587 101.5 587 110.5 596 c 2,3,-1
 269.5 739 l 2,4,5
 278.5 746.5 278.5 746.5 289.5 746.5 c 0,6,7
 301 746.5 301 746.5 309 739 c 2,8,-1
 467 595 l 2,9,10
 475 587 475 587 475 576.5 c 2,11,-1
 475 40 l 2,12,13
 475 29.5 475 29.5 467 21.5 c 2,14,-1
 308 -121 l 2,15,16
 299.5 -128 299.5 -128 288.5 -128 c 0,17,18
 277 -128 277 -128 269.5 -121 c 2,19,-1
 110.5 23.5 l 2,20,21
 101.5 32.5 101.5 32.5 101.5 42 c 2,0,-1
420 111.5 m 1,22,-1
 420 503.5 l 1,23,-1
 157.5 503.5 l 1,24,-1
 157.5 112.5 l 1,25,-1
 420 111.5 l 1,22,-1
420 60.5 m 1,26,-1
 157.5 61.5 l 1,27,-1
 157.5 52 l 1,28,-1
 289 -66.5 l 1,29,-1
 420 50 l 1,30,-1
 420 60.5 l 1,26,-1
157.5 555 m 1,31,-1
 420 555 l 1,32,-1
 420 566 l 1,33,-1
 289 685 l 1,34,-1
 157.5 567 l 1,35,-1
 157.5 555 l 1,31,-1
EndSplineSet
EndChar

StartChar: u1C3F6
Encoding: 115702 115702 122
Width: 533
VWidth: 1024
Flags: W
LayerCount: 2
Fore
SplineSet
242.5 632.5 m 0,0,1
 244 634 244 634 248 637 c 0,2,3
 256 642.5 256 642.5 265 642.5 c 0,4,5
 279 642.5 279 642.5 286.5 632.5 c 0,6,7
 431 461 431 461 431 296.5 c 0,8,9
 431 134 431 134 289 -16.5 c 0,10,11
 281.5 -25 281.5 -25 267 -25 c 0,12,13
 255 -25 255 -25 247 -16.5 c 0,14,15
 102.5 135.5 102.5 135.5 102.5 301 c 0,16,17
 102.5 464 102.5 464 242.5 632.5 c 0,0,1
181.5 431.5 m 1,18,-1
 349.5 431.5 l 1,19,20
 322.5 500.5 322.5 500.5 264.5 575 c 1,21,22
 208.5 501.5 208.5 501.5 181.5 431.5 c 1,18,-1
166 381.5 m 1,23,24
 156 339 156 339 156 300.5 c 0,25,26
 156 272.5 156 272.5 161.5 242 c 1,27,-1
 372.5 242 l 1,28,29
 377 268 377 268 377 295.5 c 0,30,31
 377 339 377 339 366 381.5 c 1,32,-1
 166 381.5 l 1,23,24
175 192 m 1,33,34
 201 117.5 201 117.5 268 39.5 c 1,35,36
 333.5 115.5 333.5 115.5 359.5 192 c 1,37,-1
 175 192 l 1,33,34
EndSplineSet
EndChar

StartChar: u1C3F7
Encoding: 115703 115703 123
Width: 577
VWidth: 1024
Flags: W
LayerCount: 2
Fore
SplineSet
101.5 42 m 2,0,-1
 101.5 577.5 l 2,1,2
 101.5 587 101.5 587 110.5 596 c 2,3,-1
 269.5 739 l 2,4,5
 278.5 746.5 278.5 746.5 289.5 746.5 c 0,6,7
 301 746.5 301 746.5 309 739 c 2,8,-1
 467 595 l 2,9,10
 475 587 475 587 475 576.5 c 2,11,-1
 475 40 l 2,12,13
 475 29.5 475 29.5 467 21.5 c 2,14,-1
 308 -121 l 2,15,16
 299.5 -128 299.5 -128 288.5 -128 c 0,17,18
 277 -128 277 -128 269.5 -121 c 2,19,-1
 110.5 23.5 l 2,20,21
 101.5 32.5 101.5 32.5 101.5 42 c 2,0,-1
420 111.5 m 1,22,-1
 420 281.5 l 1,23,-1
 157.5 281.5 l 1,24,-1
 157.5 112.5 l 1,25,-1
 420 111.5 l 1,22,-1
420 60.5 m 1,26,-1
 157.5 61.5 l 1,27,-1
 157.5 52 l 1,28,-1
 289 -66.5 l 1,29,-1
 420 50 l 1,30,-1
 420 60.5 l 1,26,-1
157.5 332.5 m 1,31,-1
 420 332.5 l 1,32,-1
 420 566 l 1,33,-1
 289 685 l 1,34,-1
 157.5 567 l 1,35,-1
 157.5 332.5 l 1,31,-1
EndSplineSet
EndChar

StartChar: u1C3F8
Encoding: 115704 115704 124
Width: 865
VWidth: 1024
Flags: W
LayerCount: 2
Fore
SplineSet
109.5 290.5 m 2,0,1
 102.5 297.5 102.5 297.5 102.5 307.5 c 0,2,3
 102.5 317 102.5 317 109 323.5 c 2,4,-1
 386 618 l 1,5,-1
 282 720.5 l 1,6,7
 285 723 285 723 291.75 728.75 c 128,-1,8
 298.5 734.5 298.5 734.5 302 737.5 c 0,9,10
 305 740 305 740 311.75 745.75 c 128,-1,11
 318.5 751.5 318.5 751.5 322 754.5 c 1,12,-1
 422 656.5 l 1,13,-1
 511 753.5 l 1,14,-1
 553 721.5 l 1,15,-1
 459.5 619 l 1,16,-1
 754.5 324 l 2,17,18
 761.5 317 761.5 317 761.5 307 c 0,19,20
 761.5 297.5 761.5 297.5 754.5 290.5 c 2,21,-1
 467.5 -0.5 l 1,22,-1
 564.5 -103.5 l 1,23,-1
 522.5 -136 l 1,24,-1
 430 -37.5 l 1,25,-1
 326.5 -137 l 1,26,-1
 286.5 -103 l 1,27,-1
 394 0.5 l 1,28,-1
 109.5 290.5 l 2,0,1
238.5 234 m 1,29,-1
 238.5 234.5 l 1,30,-1
 619.5 234.5 l 1,31,-1
 619.5 228.5 l 1,32,-1
 697 307 l 1,33,-1
 623.5 380.5 l 1,34,-1
 235.5 381 l 1,35,-1
 166.5 307.5 l 1,36,-1
 238.5 234 l 1,29,-1
287 184.5 m 1,37,-1
 431 37.5 l 1,38,-1
 576.5 184.5 l 1,39,-1
 287 184.5 l 1,37,-1
573.5 430.5 m 1,40,-1
 423.5 580.5 l 1,41,-1
 282.5 431 l 1,42,-1
 573.5 430.5 l 1,40,-1
EndSplineSet
EndChar

StartChar: u1C3F9
Encoding: 115705 115705 125
Width: 877
VWidth: 1024
Flags: W
LayerCount: 2
Fore
SplineSet
109.5 290 m 2,0,1
 102.5 297 102.5 297 102.5 307 c 0,2,3
 102.5 316.5 102.5 316.5 109.5 323.5 c 2,4,-1
 416.5 635 l 2,5,6
 423.5 643 423.5 643 438.5 643 c 0,7,8
 450 643 450 643 457.5 635.5 c 2,9,-1
 768.5 324 l 2,10,11
 775 317.5 775 317.5 775 307.5 c 0,12,13
 775 297 775 297 768 290 c 2,14,-1
 457.5 -17 l 2,15,16
 450 -24.5 450 -24.5 437 -24.5 c 0,17,18
 424.5 -24.5 424.5 -24.5 417 -17 c 2,19,-1
 109.5 290 l 2,0,1
638 380 m 1,20,-1
 238.5 379.5 l 1,21,-1
 167 307 l 1,22,-1
 236 238 l 1,23,-1
 641 238 l 1,24,-1
 711 307 l 1,25,-1
 638 380 l 1,20,-1
588 430 m 1,26,-1
 437 581 l 1,27,-1
 288 429.5 l 1,28,-1
 588 430 l 1,26,-1
286 188 m 1,29,-1
 437.5 37 l 1,30,-1
 590 188 l 1,31,-1
 286 188 l 1,29,-1
EndSplineSet
EndChar

StartChar: u1C3FA
Encoding: 115706 115706 126
Width: 877
VWidth: 1024
Flags: W
LayerCount: 2
Fore
SplineSet
109.5 290 m 2,0,1
 102.5 297 102.5 297 102.5 307 c 0,2,3
 102.5 316.5 102.5 316.5 109.5 323.5 c 2,4,-1
 416.5 635 l 2,5,6
 423.5 643 423.5 643 438.5 643 c 0,7,8
 450 643 450 643 457.5 635.5 c 2,9,-1
 768.5 324 l 2,10,11
 775 317.5 775 317.5 775 307.5 c 0,12,13
 775 297 775 297 768 290 c 2,14,-1
 457.5 -17 l 2,15,16
 450 -24.5 450 -24.5 437 -24.5 c 0,17,18
 424.5 -24.5 424.5 -24.5 417 -17 c 2,19,-1
 109.5 290 l 2,0,1
688 330 m 1,20,-1
 189.5 330 l 1,21,-1
 167 307 l 1,22,-1
 188 286 l 1,23,24
 188 286 188 286 689.5 286 c 1,25,-1
 711 307 l 1,26,-1
 688 330 l 1,20,-1
638 380 m 1,27,-1
 437 581 l 1,28,-1
 238.5 380 l 1,29,30
 238.5 380 238.5 380 638 380 c 1,27,-1
238 236 m 1,31,-1
 437.5 37 l 1,32,-1
 639 236 l 1,33,-1
 238 236 l 1,31,-1
EndSplineSet
EndChar

StartChar: u1C3FB
Encoding: 115707 115707 127
Width: 577
VWidth: 1024
Flags: W
LayerCount: 2
Fore
SplineSet
101.5 42 m 2,0,-1
 101.5 577.5 l 2,1,2
 101.5 591 101.5 591 114.5 599 c 2,3,-1
 237.5 674.5 l 1,4,-1
 109.5 750.5 l 1,5,-1
 140.5 793.5 l 1,6,-1
 289 705.5 l 1,7,-1
 432 793.5 l 1,8,-1
 463 750.5 l 1,9,-1
 340 674.5 l 1,10,-1
 464 598 l 2,11,12
 475 591.5 475 591.5 475 576.5 c 2,13,-1
 475 40 l 2,14,15
 475 26 475 26 463 18.5 c 2,16,-1
 339 -58.5 l 1,17,-1
 462 -135.5 l 1,18,-1
 429 -178.5 l 1,19,-1
 289 -89 l 1,20,-1
 140.5 -178.5 l 1,21,-1
 109.5 -135.5 l 1,22,-1
 238.5 -57.5 l 1,23,-1
 113.5 20.5 l 2,24,25
 101.5 27.5 101.5 27.5 101.5 42 c 2,0,-1
157.5 332.5 m 1,26,-1
 420 332.5 l 1,27,-1
 420 563 l 1,28,-1
 289 645 l 1,29,-1
 157.5 564 l 1,30,-1
 157.5 332.5 l 1,26,-1
157.5 281.5 m 1,31,-1
 157.5 55 l 1,32,-1
 289 -27.5 l 1,33,-1
 420 53 l 1,34,-1
 420 281.5 l 1,35,-1
 157.5 281.5 l 1,31,-1
EndSplineSet
EndChar

StartChar: u1C3FC
Encoding: 115708 115708 128
Width: 588
VWidth: 1024
Flags: W
LayerCount: 2
Fore
SplineSet
104.5 296 m 2,0,1
 102.5 300 102.5 300 102.5 307 c 0,2,3
 102.5 309.5 102.5 309.5 105.5 318.5 c 2,4,-1
 269.5 625.5 l 2,5,6
 277.5 640 277.5 640 295 640 c 0,7,8
 312 640 312 640 320.5 625.5 c 2,9,-1
 484.5 318.5 l 2,10,11
 486.5 315.5 486.5 315.5 486.5 307 c 0,12,13
 486.5 299 486.5 299 484.5 296 c 2,14,-1
 320.5 -11.5 l 2,15,16
 312.5 -25.5 312.5 -25.5 295 -25.5 c 128,-1,17
 277.5 -25.5 277.5 -25.5 269.5 -11.5 c 2,18,-1
 104.5 296 l 2,0,1
413.5 281.5 m 1,19,-1
 176 281.5 l 1,20,-1
 295 58.5 l 1,21,-1
 413.5 281.5 l 1,19,-1
413.5 332.5 m 1,22,-1
 295 556 l 1,23,-1
 176 332.5 l 1,24,-1
 413.5 332.5 l 1,22,-1
EndSplineSet
EndChar

StartChar: u1C3FD
Encoding: 115709 115709 129
Width: 577
VWidth: 1024
Flags: W
LayerCount: 2
Fore
SplineSet
474.5 40 m 2,0,1
 474.5 30 474.5 30 466.5 22.5 c 2,2,-1
 308.5 -120 l 2,3,4
 300.5 -127 300.5 -127 288.5 -127 c 0,5,6
 277 -127 277 -127 269.5 -120 c 2,7,-1
 110.5 24.5 l 2,8,9
 102.5 31.5 102.5 31.5 102.5 42 c 2,10,-1
 102.5 577.5 l 2,11,12
 102.5 587.5 102.5 587.5 110.5 595 c 2,13,-1
 269.5 738.5 l 2,14,15
 277.5 745.5 277.5 745.5 289 745.5 c 0,16,17
 301 745.5 301 745.5 308.5 738.5 c 2,18,-1
 467 594 l 2,19,20
 475 587 475 587 475 576.5 c 2,21,-1
 474.5 40 l 2,0,1
157.5 282 m 1,22,-1
 157.5 52.5 l 1,23,-1
 289 -67 l 1,24,-1
 419.5 50.5 l 1,25,-1
 419.5 282 l 1,26,-1
 157.5 282 l 1,22,-1
157.5 332 m 1,27,-1
 420 332 l 1,28,-1
 420 566 l 1,29,-1
 289 685.5 l 1,30,-1
 157.5 567 l 1,31,-1
 157.5 332 l 1,27,-1
EndSplineSet
EndChar

StartChar: u1C3FE
Encoding: 115710 115710 130
Width: 577
VWidth: 1024
Flags: W
LayerCount: 2
Fore
SplineSet
419.5 50.5 m 1,0,-1
 420 566 l 1,1,-1
 289 685.5 l 1,2,-1
 157.5 567 l 1,3,-1
 157.5 52.5 l 1,4,-1
 289 -67 l 1,5,-1
 419.5 50.5 l 1,0,-1
474.5 40 m 2,6,7
 474.5 30 474.5 30 466.5 22.5 c 2,8,-1
 308.5 -120 l 2,9,10
 300.5 -127 300.5 -127 288.5 -127 c 0,11,12
 277 -127 277 -127 269.5 -120 c 2,13,-1
 110.5 24.5 l 2,14,15
 102.5 31.5 102.5 31.5 102.5 42 c 2,16,-1
 102.5 577.5 l 2,17,18
 102.5 587.5 102.5 587.5 110.5 595 c 2,19,-1
 269.5 738.5 l 2,20,21
 277.5 745.5 277.5 745.5 289 745.5 c 0,22,23
 301 745.5 301 745.5 308.5 738.5 c 2,24,-1
 467 594 l 2,25,26
 475 587 475 587 475 576.5 c 2,27,-1
 474.5 40 l 2,6,7
EndSplineSet
EndChar

StartChar: u1C3FF
Encoding: 115711 115711 131
Width: 577
VWidth: 1024
Flags: W
LayerCount: 2
Fore
SplineSet
157.5 567 m 1,0,-1
 157.5 52 l 1,1,-1
 289 -66.5 l 1,2,-1
 420 50 l 1,3,-1
 420 566 l 1,4,-1
 289 685 l 1,5,-1
 157.5 567 l 1,0,-1
101.5 42 m 2,6,-1
 101.5 577.5 l 2,7,8
 101.5 587 101.5 587 110.5 596 c 2,9,-1
 269.5 739 l 2,10,11
 278.5 746.5 278.5 746.5 289.5 746.5 c 0,12,13
 301 746.5 301 746.5 309 739 c 2,14,-1
 467 595 l 2,15,16
 475 587 475 587 475 576.5 c 2,17,-1
 475 40 l 2,18,19
 475 29.5 475 29.5 467 21.5 c 2,20,-1
 308 -121 l 2,21,22
 299.5 -128 299.5 -128 288.5 -128 c 0,23,24
 277 -128 277 -128 269.5 -121 c 2,25,-1
 110.5 23.5 l 2,26,27
 101.5 32.5 101.5 32.5 101.5 42 c 2,6,-1
239.5 529.5 m 128,-1,29
 239.5 547 239.5 547 253.25 560.75 c 128,-1,30
 267 574.5 267 574.5 287.5 574.5 c 128,-1,31
 308 574.5 308 574.5 322 560.75 c 128,-1,32
 336 547 336 547 336 529.5 c 128,-1,33
 336 512 336 512 322 498.25 c 128,-1,34
 308 484.5 308 484.5 287.5 484.5 c 128,-1,35
 267 484.5 267 484.5 253.25 498.25 c 128,-1,28
 239.5 512 239.5 512 239.5 529.5 c 128,-1,29
239.5 307 m 128,-1,37
 239.5 324.5 239.5 324.5 253.25 338.25 c 128,-1,38
 267 352 267 352 287.5 352 c 128,-1,39
 308 352 308 352 322 338.25 c 128,-1,40
 336 324.5 336 324.5 336 307 c 128,-1,41
 336 289.5 336 289.5 322 275.75 c 128,-1,42
 308 262 308 262 287.5 262 c 128,-1,43
 267 262 267 262 253.25 275.75 c 128,-1,36
 239.5 289.5 239.5 289.5 239.5 307 c 128,-1,37
239.5 83 m 128,-1,45
 239.5 100.5 239.5 100.5 253.25 114.25 c 128,-1,46
 267 128 267 128 287.5 128 c 128,-1,47
 308 128 308 128 322 114.25 c 128,-1,48
 336 100.5 336 100.5 336 83 c 128,-1,49
 336 65.5 336 65.5 322 51.75 c 128,-1,50
 308 38 308 38 287.5 38 c 128,-1,51
 267 38 267 38 253.25 51.75 c 128,-1,44
 239.5 65.5 239.5 65.5 239.5 83 c 128,-1,45
EndSplineSet
EndChar

StartChar: u1C400
Encoding: 115712 115712 132
Width: 897
VWidth: 1024
Flags: W
LayerCount: 2
Fore
SplineSet
157.5 52 m 1,0,-1
 289 -66.5 l 1,1,-1
 420 50 l 1,2,3
 420 50 420 50 420 394 c 2,4,5
 420 394 420 394 420 566 c 1,6,-1
 289 685 l 1,7,-1
 157.5 567 l 1,8,-1
 157.5 52 l 1,0,-1
110.5 23.5 m 2,9,10
 102.5 31.5 102.5 31.5 102.5 42 c 2,11,-1
 102.5 577.5 l 2,12,13
 102.5 588 102.5 588 110.5 596 c 2,14,-1
 269.5 739 l 2,15,16
 277 746.5 277 746.5 289 746.5 c 0,17,18
 301.5 746.5 301.5 746.5 309 739 c 2,19,-1
 448.5 611 l 1,20,-1
 588 737 l 2,21,22
 595.5 744.5 595.5 744.5 607 744.5 c 0,23,24
 620 744.5 620 744.5 627.5 737 c 2,25,-1
 785.5 593 l 2,26,27
 794.5 584 794.5 584 794.5 574.5 c 2,28,-1
 794.5 38 l 2,29,30
 794.5 28.5 794.5 28.5 785.5 19.5 c 2,31,-1
 626.5 -123 l 2,32,33
 618 -130 618 -130 607 -130 c 0,34,35
 595 -130 595 -130 588 -123 c 2,36,-1
 447.5 4 l 1,37,-1
 308 -121 l 2,38,39
 299 -128 299 -128 289 -128 c 0,40,41
 276.5 -128 276.5 -128 269.5 -121 c 2,42,-1
 110.5 23.5 l 2,9,10
476 564 m 1,43,44
 476 564 476 564 476 397 c 2,45,46
 476 397 476 397 476 51 c 1,47,-1
 607 -68.5 l 1,48,-1
 737.5 48 l 1,49,-1
 737.5 564 l 1,50,-1
 607 683 l 1,51,-1
 476 564 l 1,43,44
EndSplineSet
EndChar

StartChar: u1C401
Encoding: 115713 115713 133
Width: 897
VWidth: 1024
Flags: W
LayerCount: 2
Fore
SplineSet
157.5 52 m 1,0,-1
 289 -66.5 l 1,1,-1
 406.5 40 l 1,2,-1
 278.5 150.5 l 1,3,-1
 317.5 187.5 l 1,4,-1
 420 99 l 1,5,6
 420 99 420 99 420 179 c 2,7,8
 420 179 420 179 420 370.5 c 1,9,-1
 157.5 370.5 l 1,10,-1
 157.5 52 l 1,0,-1
561 182 m 1,11,-1
 602 145.5 l 1,12,-1
 487.5 40 l 1,13,-1
 607 -68.5 l 1,14,-1
 737.5 48 l 1,15,-1
 737.5 370.5 l 1,16,-1
 477 370.5 l 1,17,18
 477 355.5 477 355.5 477.5 323 c 128,-1,19
 478 290.5 478 290.5 478 274.5 c 0,20,21
 478 195.5 478 195.5 476 103.5 c 1,22,-1
 561 182 l 1,11,-1
477 422 m 1,23,-1
 737.5 422 l 1,24,-1
 737.5 564 l 1,25,-1
 607 683 l 1,26,-1
 476 566 l 1,27,28
 476 560 476 560 476.5 510.5 c 128,-1,29
 477 461 477 461 477 422 c 1,23,-1
420 422 m 1,30,-1
 420 566 l 1,31,-1
 289 685 l 1,32,-1
 157.5 567 l 1,33,-1
 157.5 422 l 1,34,-1
 420 422 l 1,30,-1
447.5 4 m 1,35,-1
 308 -121 l 2,36,37
 299 -128 299 -128 289 -128 c 0,38,39
 276.5 -128 276.5 -128 269.5 -121 c 2,40,-1
 110.5 23.5 l 2,41,42
 102.5 31.5 102.5 31.5 102.5 42 c 2,43,-1
 102.5 577.5 l 2,44,45
 102.5 588 102.5 588 110.5 596 c 2,46,-1
 269.5 739 l 2,47,48
 277 746.5 277 746.5 289 746.5 c 0,49,50
 301.5 746.5 301.5 746.5 309 739 c 2,51,-1
 447.5 612.5 l 1,52,-1
 588 737 l 2,53,54
 597.5 744.5 597.5 744.5 607 744.5 c 0,55,56
 620 744.5 620 744.5 627.5 737 c 2,57,-1
 785.5 593 l 2,58,59
 794.5 584 794.5 584 794.5 574.5 c 2,60,-1
 794.5 38 l 2,61,62
 794.5 28.5 794.5 28.5 785.5 19.5 c 2,63,-1
 626.5 -123 l 2,64,65
 618 -130 618 -130 607 -130 c 0,66,67
 595 -130 595 -130 588 -123 c 2,68,-1
 447.5 4 l 1,35,-1
EndSplineSet
EndChar

StartChar: u1C402
Encoding: 115714 115714 134
Width: 856
VWidth: 1024
Flags: W
LayerCount: 2
Fore
SplineSet
427 0 m 1024,0,-1
501.5 521.5 m 1,1,-1
 695.5 521.5 l 1,2,-1
 697.5 662 l 1,3,-1
 501.5 521.5 l 1,1,-1
681.5 471.5 m 1,4,-1
 457 471.5 l 1,5,-1
 173 471 l 1,6,7
 187.5 441.5 187.5 441.5 214.25 385.25 c 128,-1,8
 241 329 241 329 258.5 294.25 c 128,-1,9
 276 259.5 276 259.5 302.5 212.25 c 128,-1,10
 329 165 329 165 359.75 122.5 c 128,-1,11
 390.5 80 390.5 80 427 39 c 1,12,13
 453 68.5 453 68.5 476.5 99 c 128,-1,14
 500 129.5 500 129.5 517.5 153.75 c 128,-1,15
 535 178 535 178 554 210.5 c 128,-1,16
 573 243 573 243 583.75 262 c 128,-1,17
 594.5 281 594.5 281 611.5 316.5 c 128,-1,18
 628.5 352 628.5 352 635 366.5 c 128,-1,19
 641.5 381 641.5 381 659 420.25 c 128,-1,20
 676.5 459.5 676.5 459.5 681.5 471.5 c 1,4,-1
412.5 521 m 1,21,-1
 427 531.5 l 1,22,-1
 709 733.5 l 2,23,24
 718.5 740 718.5 740 730.5 738.25 c 128,-1,25
 742.5 736.5 742.5 736.5 749 727.5 c 0,26,27
 753.5 721.5 753.5 721.5 753.5 713.5 c 2,28,-1
 750.5 496.5 l 2,29,30
 750.5 491.5 750.5 491.5 748 487 c 0,31,32
 736.5 462 736.5 462 713.75 410.25 c 128,-1,33
 691 358.5 691 358.5 677.25 328.75 c 128,-1,34
 663.5 299 663.5 299 638 250 c 128,-1,35
 612.5 201 612.5 201 588.25 163.5 c 128,-1,36
 564 126 564 126 527.5 78 c 128,-1,37
 491 30 491 30 448 -16 c 0,38,39
 438.5 -25 438.5 -25 426 -24.5 c 128,-1,40
 413.5 -24 413.5 -24 406 -16.5 c 0,41,42
 367.5 24 367.5 24 333.5 68.75 c 128,-1,43
 299.5 113.5 299.5 113.5 275.5 152.25 c 128,-1,44
 251.5 191 251.5 191 227 237.25 c 128,-1,45
 202.5 283.5 202.5 283.5 185.5 319.75 c 128,-1,46
 168.5 356 168.5 356 145.5 403.75 c 128,-1,47
 122.5 451.5 122.5 451.5 105 485 c 0,48,49
 100 494.5 100 494.5 104.5 504.75 c 128,-1,50
 109 515 109 515 120 519 c 0,51,52
 124.5 520.5 124.5 520.5 129.5 520.5 c 2,53,-1
 412.5 521 l 1,21,-1
EndSplineSet
EndChar

StartChar: u1C403
Encoding: 115715 115715 135
Width: 993
VWidth: 1024
Flags: W
LayerCount: 2
Fore
SplineSet
491.5 -13.5 m 2,0,-1
 825.5 500.5 l 1,1,-1
 825.5 501.5 l 1,2,-1
 891 605 l 1,3,-1
 841.5 629.5 l 1,4,-1
 784.5 539.5 l 1,5,-1
 131 539.5 l 2,6,7
 119.5 539.5 119.5 539.5 111 532.25 c 128,-1,8
 102.5 525 102.5 525 102.5 514 c 0,9,10
 102.5 506.5 102.5 506.5 106.5 500.5 c 2,11,-1
 442.5 -13.5 l 2,12,13
 450 -25.5 450 -25.5 466 -25.5 c 0,14,15
 471.5 -25.5 471.5 -25.5 481.5 -21.5 c 0,16,17
 489.5 -17.5 489.5 -17.5 491.5 -13.5 c 2,0,-1
280.5 336 m 1,18,-1
 652.5 336 l 1,19,-1
 467 50 l 1,20,-1
 280.5 336 l 1,18,-1
247 387 m 1,21,-1
 180 488.5 l 1,22,-1
 751.5 488.5 l 1,23,-1
 686 387 l 1,24,-1
 247 387 l 1,21,-1
EndSplineSet
EndChar

StartChar: u1C404
Encoding: 115716 115716 136
Width: 993
VWidth: 1024
Flags: W
LayerCount: 2
Fore
SplineSet
502 -13.5 m 2,0,-1
 168 500.5 l 1,1,-1
 168 501.5 l 1,2,-1
 102.5 605 l 1,3,-1
 151.5 629.5 l 1,4,-1
 209 539.5 l 1,5,-1
 862 539.5 l 2,6,7
 874 539.5 874 539.5 882.5 532 c 128,-1,8
 891 524.5 891 524.5 891 514 c 0,9,10
 891 506.5 891 506.5 887 500.5 c 2,11,-1
 551 -13.5 l 2,12,13
 543.5 -25.5 543.5 -25.5 527.5 -25.5 c 0,14,15
 522 -25.5 522 -25.5 512 -21.5 c 0,16,17
 504 -17.5 504 -17.5 502 -13.5 c 2,0,-1
712.5 336 m 1,18,-1
 341 336 l 1,19,-1
 526.5 50 l 1,20,-1
 712.5 336 l 1,18,-1
746.5 387 m 1,21,-1
 813 488.5 l 1,22,-1
 241.5 488.5 l 1,23,-1
 307 387 l 1,24,-1
 746.5 387 l 1,21,-1
EndSplineSet
EndChar

StartChar: u1C405
Encoding: 115717 115717 137
Width: 932
VWidth: 1024
Flags: W
LayerCount: 2
Fore
SplineSet
823 529.5 m 1,0,-1
 778 498.5 l 1,1,-1
 678 616.5 l 1,2,-1
 551 497.5 l 1,3,-1
 510 534.5 l 1,4,-1
 660.5 673.5 l 2,5,6
 667 680 667 680 681 680 c 0,7,8
 695.5 680 695.5 680 703.5 670.5 c 2,9,-1
 823 529.5 l 1,0,-1
230.5 336 m 1,10,-1
 230.5 387 l 1,11,-1
 699.5 387 l 1,12,-1
 699.5 336 l 1,13,-1
 230.5 336 l 1,10,-1
465 50 m 1,14,-1
 751.5 488.5 l 1,15,-1
 180 488.5 l 1,16,-1
 465 50 l 1,14,-1
440 -13.5 m 2,17,-1
 106.5 500.5 l 2,18,19
 102.5 506 102.5 506 102.5 514 c 0,20,21
 102.5 528.5 102.5 528.5 116.5 536.5 c 0,22,23
 122.5 539.5 122.5 539.5 131 539.5 c 2,24,-1
 800.5 539.5 l 2,25,26
 812.5 539.5 812.5 539.5 821 532 c 128,-1,27
 829.5 524.5 829.5 524.5 829.5 514 c 0,28,29
 829.5 507 829.5 507 825 500.5 c 2,30,-1
 489.5 -13.5 l 2,31,32
 482 -25.5 482 -25.5 466 -25.5 c 0,33,34
 460.5 -25.5 460.5 -25.5 450.5 -21.5 c 0,35,36
 442 -17 442 -17 440 -13.5 c 2,17,-1
EndSplineSet
EndChar

StartChar: u1C406
Encoding: 115718 115718 138
Width: 833
VWidth: 1024
Flags: W
LayerCount: 2
Fore
SplineSet
417.5 0 m 1024,0,-1
432.5 521 m 1,1,-1
 703.5 520.5 l 2,2,3
 705.5 520.5 705.5 520.5 708.25 520.25 c 128,-1,4
 711 520 711 520 713 519 c 0,5,6
 720.5 517 720.5 517 725.25 511.25 c 128,-1,7
 730 505.5 730 505.5 730.75 498.75 c 128,-1,8
 731.5 492 731.5 492 728.5 485.5 c 0,9,10
 709.5 448 709.5 448 682.75 388.75 c 128,-1,11
 656 329.5 656 329.5 635 285.5 c 128,-1,12
 614 241.5 614 241.5 585.25 188.5 c 128,-1,13
 556.5 135.5 556.5 135.5 519.75 83.75 c 128,-1,14
 483 32 483 32 439 -16 c 0,15,16
 432 -23.5 432 -23.5 419.25 -24.5 c 128,-1,17
 406.5 -25.5 406.5 -25.5 396.5 -16 c 0,18,19
 355 30.5 355 30.5 320 78.5 c 128,-1,20
 285 126.5 285 126.5 261.5 164 c 128,-1,21
 238 201.5 238 201.5 213.5 250.5 c 128,-1,22
 189 299.5 189 299.5 176 329 c 128,-1,23
 163 358.5 163 358.5 141 410.25 c 128,-1,24
 119 462 119 462 107.5 487.5 c 0,25,26
 106 492 106 492 105.5 496.5 c 2,27,-1
 102.5 713.5 l 2,28,29
 102.5 721.5 102.5 721.5 107.5 728 c 0,30,31
 114.5 737 114.5 737 126.5 738.5 c 128,-1,32
 138.5 740 138.5 740 147.5 733 c 2,33,-1
 419.5 531 l 1,34,-1
 432.5 521 l 1,1,-1
345.5 521.5 m 1,35,-1
 158.5 660.5 l 1,36,-1
 160.5 521.5 l 1,37,-1
 345.5 521.5 l 1,35,-1
174 471.5 m 1,38,39
 179 459.5 179 459.5 195.5 420.5 c 128,-1,40
 212 381.5 212 381.5 218.5 366.75 c 128,-1,41
 225 352 225 352 241.25 316.75 c 128,-1,42
 257.5 281.5 257.5 281.5 267.75 262.5 c 128,-1,43
 278 243.5 278 243.5 296.25 211 c 128,-1,44
 314.5 178.5 314.5 178.5 331.25 154.25 c 128,-1,45
 348 130 348 130 370.5 99.75 c 128,-1,46
 393 69.5 393 69.5 418 40 c 1,47,48
 452.5 80.5 452.5 80.5 482 123 c 128,-1,49
 511.5 165.5 511.5 165.5 536.75 212.75 c 128,-1,50
 562 260 562 260 579 294.5 c 128,-1,51
 596 329 596 329 621.5 385.25 c 128,-1,52
 647 441.5 647 441.5 661 471 c 1,53,-1
 389.5 471.5 l 1,54,-1
 174 471.5 l 1,38,39
EndSplineSet
EndChar

StartChar: u1C407
Encoding: 115719 115719 139
Width: 930
VWidth: 1024
Flags: W
LayerCount: 2
Fore
SplineSet
749.5 488.5 m 1,0,-1
 180 488.5 l 1,1,-1
 252 380 l 1,2,-1
 678 380 l 1,3,-1
 749.5 488.5 l 1,0,-1
799.5 539.5 m 2,4,5
 806 539.5 806 539.5 814 535.5 c 0,6,7
 828.5 527.5 828.5 527.5 828.5 513 c 0,8,9
 828.5 506 828.5 506 824.5 500.5 c 2,10,-1
 719 341 l 1,11,12
 719 341 719 341 715 337 c 2,13,-1
 488.5 -13.5 l 2,14,15
 481 -25.5 481 -25.5 464 -25.5 c 0,16,17
 455.5 -25.5 455.5 -25.5 449.5 -22.5 c 0,18,19
 442 -19 442 -19 439.5 -13.5 c 2,20,-1
 215 337 l 1,21,22
 215 337 215 337 211 341 c 2,23,-1
 105.5 500.5 l 2,24,25
 102.5 505 102.5 505 102.5 514 c 0,26,27
 102.5 525 102.5 525 110.5 532.25 c 128,-1,28
 118.5 539.5 118.5 539.5 130 539.5 c 2,29,-1
 799.5 539.5 l 2,4,5
285.5 328.5 m 1,30,-1
 464 50 l 1,31,-1
 644 328.5 l 1,32,-1
 285.5 328.5 l 1,30,-1
EndSplineSet
EndChar

StartChar: u1C408
Encoding: 115720 115720 140
Width: 930
VWidth: 1024
Flags: W
LayerCount: 2
Fore
SplineSet
749.5 488.5 m 1,0,-1
 180 488.5 l 1,1,-1
 252 380 l 1,2,-1
 678 380 l 1,3,-1
 749.5 488.5 l 1,0,-1
799.5 539.5 m 2,4,5
 806 539.5 806 539.5 814 535.5 c 0,6,7
 828.5 527.5 828.5 527.5 828.5 513 c 0,8,9
 828.5 506 828.5 506 824.5 500.5 c 2,10,-1
 719 341 l 1,11,12
 719 341 719 341 715 337 c 2,13,-1
 488.5 -13.5 l 2,14,15
 481 -25.5 481 -25.5 464 -25.5 c 0,16,17
 455.5 -25.5 455.5 -25.5 449.5 -22.5 c 0,18,19
 442 -19 442 -19 439.5 -13.5 c 2,20,-1
 215 337 l 1,21,22
 215 337 215 337 211 341 c 2,23,-1
 105.5 500.5 l 2,24,25
 102.5 505 102.5 505 102.5 514 c 0,26,27
 102.5 525 102.5 525 110.5 532.25 c 128,-1,28
 118.5 539.5 118.5 539.5 130 539.5 c 2,29,-1
 799.5 539.5 l 2,4,5
285.5 328.5 m 1,30,-1
 464 50 l 1,31,-1
 644 328.5 l 1,32,-1
 285.5 328.5 l 1,30,-1
EndSplineSet
EndChar

StartChar: u1C409
Encoding: 115721 115721 141
Width: 864
VWidth: 1024
Flags: W
LayerCount: 2
Fore
SplineSet
508.5 -10 m 2,0,1
 504.5 -19 504.5 -19 494.5 -23 c 0,2,3
 484 -27 484 -27 473.5 -23.25 c 128,-1,4
 463 -19.5 463 -19.5 458.5 -10 c 2,5,-1
 207 504 l 1,6,-1
 105 706 l 2,7,8
 100.5 715.5 100.5 715.5 104.25 725.25 c 128,-1,9
 108 735 108 735 118.5 739 c 0,10,11
 126 742 126 742 134.25 740.75 c 128,-1,12
 142.5 739.5 142.5 739.5 148 735.5 c 2,13,-1
 398.5 539.5 l 1,14,-1
 734 539.5 l 2,15,16
 740 539.5 740 539.5 745 537.5 c 0,17,18
 755 533.5 755 533.5 759.25 523.75 c 128,-1,19
 763.5 514 763.5 514 759 504.5 c 2,20,-1
 508.5 -10 l 2,0,1
642 387 m 1,21,-1
 692 489.5 l 1,22,-1
 274.5 489.5 l 1,23,-1
 324.5 387 l 1,24,-1
 642 387 l 1,21,-1
617.5 337 m 1,25,-1
 349 337 l 1,26,-1
 483.5 61.5 l 1,27,-1
 617.5 337 l 1,25,-1
249.5 539.5 m 1,28,-1
 313.5 539.5 l 1,29,-1
 207.5 622.5 l 1,30,-1
 249.5 539.5 l 1,28,-1
EndSplineSet
EndChar

